<svg width="25" height="19" viewBox="0 0 25 19" fill="none" xmlns="http://www.w3.org/2000/svg">
<path d="M20.6893 1.51643C19.1317 0.814571 17.4614 0.297446 15.715 0.0012428C15.6832 -0.00447595 15.6514 0.00982091 15.6351 0.0383678C15.4202 0.413602 15.1823 0.903071 15.0157 1.28782C13.1373 1.01163 11.2686 1.01163 9.42878 1.28782C9.2621 0.89454 9.01553 0.413602 8.79974 0.0383678C8.78337 0.0107584 8.75158 -0.00353845 8.71979 0.0012428C6.97438 0.296461 5.30411 0.813586 3.74552 1.51643C3.73201 1.52215 3.72046 1.53166 3.71278 1.54404C0.544625 6.1924 -0.323304 10.7265 0.102451 15.2044C0.10436 15.2263 0.116913 15.2472 0.134239 15.2606C2.2245 16.7681 4.24931 17.6833 6.23647 18.2899C6.26826 18.2995 6.30196 18.2881 6.3222 18.2623C6.79225 17.6319 7.21127 16.9672 7.57054 16.2681C7.59173 16.2272 7.57149 16.1786 7.52815 16.1624C6.86351 15.9148 6.23065 15.6129 5.62185 15.2701C5.57369 15.2425 5.56982 15.1749 5.61416 15.1425C5.74227 15.0482 5.87043 14.9501 5.99276 14.8511C6.01491 14.833 6.04574 14.8292 6.07176 14.8406C10.0712 16.6339 14.401 16.6339 18.3533 14.8406C18.3793 14.8282 18.4101 14.832 18.4332 14.8501C18.5556 14.9491 18.6837 15.0482 18.8128 15.1424C18.8571 15.1748 18.8541 15.2425 18.806 15.2701C18.1972 15.6196 17.5644 15.9148 16.8988 16.1614C16.8554 16.1776 16.8362 16.2272 16.8574 16.2681C17.2244 16.9661 17.6434 17.6309 18.1048 18.2613C18.1241 18.288 18.1587 18.2995 18.1905 18.2899C20.1873 17.6833 22.2121 16.7681 24.3024 15.2605C24.3207 15.2472 24.3323 15.2272 24.3342 15.2053C24.8437 10.0284 23.4807 5.53141 20.721 1.54493C20.7143 1.53166 20.7027 1.52215 20.6893 1.51643ZM8.16788 12.4778C6.96379 12.4778 5.97162 11.3922 5.97162 10.0589C5.97162 8.72557 6.9445 7.63994 8.16788 7.63994C9.40081 7.63994 10.3834 8.73513 10.3641 10.0589C10.3641 11.3922 9.39116 12.4778 8.16788 12.4778ZM16.2881 12.4778C15.0841 12.4778 14.0919 11.3922 14.0919 10.0589C14.0919 8.72557 15.0648 7.63994 16.2881 7.63994C17.5211 7.63994 18.5036 8.73513 18.4844 10.0589C18.4844 11.3922 17.5211 12.4778 16.2881 12.4778Z" fill="white"/>
</svg>
