<svg width="33" height="21" viewBox="0 0 33 21" fill="none" xmlns="http://www.w3.org/2000/svg">
<g clip-path="url(#clip0_2_533)">
<rect x="0.25" y="0.00585938" width="52" height="31" fill="white"/>
<path d="M0.25 1.92465V3.84375H16.6113H32.9726V1.92465V0.00555754H16.6113H0.25V1.92465Z" fill="#0038B8"/>
<path d="M15.9209 5.72628L15.2205 6.96774H13.4872C12.5336 6.96774 11.7539 6.97303 11.7539 6.98097C11.7539 6.98627 12.1399 7.6745 12.6103 8.50566C13.0807 9.33948 13.4667 10.0304 13.4667 10.0409C13.4667 10.0648 11.8383 12.95 11.8025 12.9871C11.7897 13.003 11.7795 13.0241 11.7795 13.0347C11.7795 13.0453 12.5464 13.0586 13.4846 13.0612L15.1923 13.0691L15.8826 14.2921C16.2635 14.9644 16.5805 15.5203 16.5882 15.5282C16.5933 15.5362 16.9154 14.9829 17.3014 14.2974L18.0044 13.0559H19.7403C21.1821 13.0559 21.471 13.0506 21.4608 13.0215C21.4531 13.0003 21.0722 12.3227 20.6146 11.5127C20.157 10.7053 19.7761 10.0251 19.7658 10.0039C19.7582 9.98271 20.1135 9.32889 20.5967 8.4739L21.4403 6.98097L19.7377 6.96774L18.0326 6.9545L17.3398 5.73158C16.9588 5.05923 16.6418 4.50336 16.6367 4.49541C16.6291 4.49012 16.3069 5.04335 15.9209 5.72628ZM16.8182 6.65804L16.9895 6.9545L16.6444 6.96245C16.4527 6.96509 16.2916 6.96509 16.2865 6.95715C16.2788 6.95186 16.353 6.80892 16.4476 6.63951C16.5447 6.47274 16.6291 6.34039 16.6367 6.34833C16.6444 6.35628 16.7262 6.49657 16.8182 6.65804ZM14.6683 7.91802C14.6683 7.93655 14.1723 8.83125 14.0368 9.0536C14.001 9.11183 13.9882 9.09595 13.6687 8.52949C13.4872 8.20655 13.3389 7.93126 13.3389 7.91802C13.3389 7.90479 13.6252 7.8942 14.0036 7.8942C14.3845 7.8942 14.6683 7.90479 14.6683 7.91802ZM18.1016 8.92125C18.4211 9.48771 18.6819 9.96418 18.6819 9.98006C18.6819 9.99594 18.416 10.4803 18.0888 11.0574L17.4983 12.103L16.5907 12.0977L15.6857 12.0897L15.1131 11.0839C14.7986 10.5306 14.543 10.0621 14.5404 10.0436C14.5404 10.0198 15.5298 8.24625 15.7062 7.95243L15.742 7.8942H16.6316H17.5187L18.1016 8.92125ZM19.8579 7.91273C19.8579 7.9392 19.2366 9.03242 19.2213 9.03242C19.206 9.03242 18.6026 7.97361 18.5847 7.92067C18.5796 7.90479 18.8199 7.8942 19.2162 7.8942C19.569 7.8942 19.8579 7.90214 19.8579 7.91273ZM19.592 11.5524L19.9039 12.103H19.229H18.5515L18.5822 12.0421C18.6205 11.968 18.9273 11.4227 19.0986 11.1262C19.2085 10.933 19.229 10.9118 19.252 10.9542C19.2673 10.9833 19.4207 11.2506 19.592 11.5524ZM14.3257 11.5418L14.6376 12.0897L14.3206 12.0977C14.1467 12.1003 13.8604 12.1003 13.684 12.0977L13.3645 12.0897L13.6764 11.5392C13.8451 11.2374 13.9934 10.9912 14.001 10.9912C14.0087 10.9912 14.157 11.2374 14.3257 11.5418ZM16.9435 13.0718C16.9435 13.085 16.6802 13.5588 16.6239 13.6462C16.5958 13.6885 16.5703 13.6541 16.4118 13.3736L16.2303 13.0559H16.5882C16.7824 13.0559 16.9435 13.0639 16.9435 13.0718Z" fill="#0038B8"/>
<path d="M0.25 18.0985V20.0176H16.6113H32.9726V18.0985V16.1794H16.6113H0.25V18.0985Z" fill="#0038B8"/>
</g>
<defs>
<clipPath id="clip0_2_533">
<rect width="32.7226" height="20.0115" fill="white" transform="translate(0.25 0.00585938)"/>
</clipPath>
</defs>
</svg>
