<svg width="19" height="20" viewBox="0 0 19 20" fill="none" xmlns="http://www.w3.org/2000/svg">
<g opacity="0.5" clip-path="url(#clip0_2_554)">
<path d="M4.42881 3.46875C3.99988 3.46875 3.65088 3.82067 3.65088 4.25327C3.65088 4.68587 3.99985 5.03779 4.42881 5.03779C4.85777 5.03779 5.20673 4.68587 5.20673 4.25327C5.20673 3.82067 4.85773 3.46875 4.42881 3.46875Z" fill="white"/>
<path d="M3.65088 8.52441H5.2067V15.9343H3.65088V8.52441Z" fill="white"/>
<path d="M16.9671 0.235352H2.2481C1.13341 0.235352 0.226562 1.15041 0.226562 2.2752V17.1275C0.226562 18.2522 1.13341 19.1673 2.2481 19.1673H16.9671C18.0817 19.1673 18.9886 18.2522 18.9886 17.1275V2.2752C18.9886 1.15041 18.0817 0.235352 16.9671 0.235352ZM6.30597 16.4887C6.30597 16.795 6.05987 17.0434 5.7563 17.0434H3.10115C2.79758 17.0434 2.55148 16.795 2.55148 16.4887V7.96955C2.55148 7.66324 2.79758 7.4149 3.10115 7.4149H5.7563C6.05987 7.4149 6.30597 7.66324 6.30597 7.96955V16.4887ZM4.42874 6.14783C3.39364 6.14783 2.55148 5.29807 2.55148 4.25356C2.55148 3.20904 3.39361 2.35928 4.42874 2.35928C5.46388 2.35928 6.30601 3.20904 6.30601 4.25356C6.30601 5.29807 5.46384 6.14783 4.42874 6.14783ZM16.8496 16.4887C16.8496 16.795 16.6035 17.0434 16.2999 17.0434H13.6272C13.3237 17.0434 13.0776 16.795 13.0776 16.4887V11.5355C13.0776 11.0371 12.6757 10.6315 12.1817 10.6315C11.6878 10.6315 11.2859 11.0371 11.2859 11.5355V16.4887C11.2859 16.795 11.0398 17.0434 10.7363 17.0434H8.08111C7.77754 17.0434 7.53144 16.795 7.53144 16.4887V7.96955C7.53144 7.66324 7.77754 7.4149 8.08111 7.4149H10.7363C10.9845 7.4149 11.1944 7.58096 11.2626 7.80904C11.7875 7.55149 12.3672 7.4149 12.9613 7.4149C15.1053 7.4149 16.8496 9.17495 16.8496 11.3383V16.4887H16.8496Z" fill="white"/>
<path d="M12.9614 8.52441C12.2747 8.52441 11.6147 8.77892 11.1029 9.24102C10.9413 9.38689 10.7099 9.42346 10.512 9.33405C10.3141 9.24479 10.1867 9.04649 10.1867 8.82773V8.52445H8.63086V15.9343H10.1867V11.5357C10.1867 10.4256 11.0817 9.52241 12.1818 9.52241C13.2819 9.52241 14.177 10.4256 14.177 11.5357V15.9343H15.7504V11.3386C15.7504 9.78683 14.4993 8.52441 12.9614 8.52441Z" fill="white"/>
</g>
<defs>
<clipPath id="clip0_2_554">
<rect width="18.762" height="18.932" fill="white" transform="translate(0.226562 0.235352)"/>
</clipPath>
</defs>
</svg>
