<svg width="26" height="26" viewBox="0 0 26 26" fill="none" xmlns="http://www.w3.org/2000/svg">
<path d="M18.8247 0H7.17486C3.21865 0 0 3.2188 0 7.17502V18.8248C0 22.7812 3.21865 25.9998 7.17486 25.9998H18.8247C22.7812 25.9998 25.9998 22.781 25.9998 18.8248V7.17502C26 3.2188 22.7812 0 18.8247 0ZM23.6932 18.8248C23.6932 21.5092 21.5092 23.693 18.8248 23.693H7.17486C4.49063 23.6932 2.30683 21.5092 2.30683 18.8248V7.17502C2.30683 4.49079 4.49063 2.30683 7.17486 2.30683H18.8247C21.5091 2.30683 23.693 4.49079 23.693 7.17502V18.8248H23.6932Z" fill="white"/>
<path d="M12.9999 6.30078C9.30576 6.30078 6.30042 9.30612 6.30042 13.0003C6.30042 16.6943 9.30576 19.6995 12.9999 19.6995C16.6941 19.6995 19.6994 16.6943 19.6994 13.0003C19.6994 9.30612 16.6941 6.30078 12.9999 6.30078ZM12.9999 17.3925C10.5779 17.3925 8.60725 15.4222 8.60725 13.0001C8.60725 10.578 10.5777 8.60746 12.9999 8.60746C15.4221 8.60746 17.3926 10.578 17.3926 13.0001C17.3926 15.4222 15.4219 17.3925 12.9999 17.3925Z" fill="white"/>
<path d="M19.9804 4.34473C19.5359 4.34473 19.0993 4.52466 18.7854 4.83993C18.47 5.15366 18.2887 5.59042 18.2887 6.0364C18.2887 6.48101 18.4702 6.91761 18.7854 7.23288C19.0992 7.54661 19.5359 7.72808 19.9804 7.72808C20.4264 7.72808 20.8616 7.54661 21.1769 7.23288C21.4921 6.91761 21.6721 6.48085 21.6721 6.0364C21.6721 5.59042 21.4921 5.15366 21.1769 4.83993C20.8631 4.52466 20.4264 4.34473 19.9804 4.34473Z" fill="white"/>
</svg>
