<svg width="28" height="27" viewBox="0 0 28 27" fill="none" xmlns="http://www.w3.org/2000/svg">
<g clip-path="url(#clip0_47_897)">
<path d="M9.32866 23.9896C9.32866 24.7714 8.72083 25.0943 8.04766 24.7714L0.781667 21.2693C0.562333 21.1692 0.378 21.0016 0.2275 20.7664C0.077 20.5313 0 20.2973 0 20.0667V2.93631C0 2.29731 0.397833 2.00818 1.29733 2.44018L9.282 6.28768C9.3975 6.39906 9.31233 5.63406 9.32866 23.9896ZM10.3285 7.87956L18.6725 20.8936L10.3285 16.8964V7.87956ZM28 8.15068V23.9896C28 24.2404 27.9277 24.4429 27.7807 24.5982C27.6348 24.7534 27.4365 24.8311 27.1868 24.8311C26.9372 24.8311 26.6922 24.7658 26.453 24.6353L19.5627 21.3289L28 8.15068ZM27.9533 6.34731C27.9533 6.37768 26.6175 8.47918 23.9458 12.6507C21.2742 16.8222 19.7085 19.2657 19.25 19.9767L13.1565 10.4491L18.2187 2.53018C18.494 2.09368 19.0587 2.01718 19.4378 2.19943L27.8915 6.25731C27.9323 6.27643 27.9533 6.30681 27.9533 6.34731Z" fill="white"/>
</g>
<defs>
<clipPath id="clip0_47_897">
<rect width="28" height="27" fill="white"/>
</clipPath>
</defs>
</svg>
