<svg width="220" height="110" viewBox="0 0 1444 720" fill="none" xmlns="http://www.w3.org/2000/svg">
<path d="M843.399 295V233.3L803.55 295H797.691L757.79 233.036V295H751.192V222.48H758.265L800.805 288.191L842.871 222.48H849.891V295H843.399ZM875.678 295V222.48H936.111V228.655H882.856V253.62H933.419V259.743H882.856V288.825H936.903V295H875.678ZM987.972 228.497V295H981.427V228.497H948.439V222.48H1020.96V228.497H987.972ZM1092.03 295L1082.06 275.894H1032.81L1022.84 295H1015.61L1053.55 222.48H1061.31L1099.26 295H1092.03ZM1057.46 228.867L1036.03 269.824H1078.84L1057.46 228.867ZM1235.97 258.687C1235.97 263.332 1235.48 267.466 1234.49 271.091C1233.54 274.68 1232.19 277.811 1230.43 280.485C1228.67 283.16 1226.52 285.429 1223.99 287.294C1221.49 289.159 1218.69 290.654 1215.6 291.78C1212.54 292.906 1209.19 293.733 1205.57 294.261C1201.98 294.754 1198.2 295 1194.22 295H1156.8V222.48H1194.12C1200.06 222.48 1205.59 223.061 1210.69 224.222C1215.79 225.383 1220.21 227.371 1223.94 230.186C1227.7 232.966 1230.64 236.678 1232.75 241.323C1234.9 245.967 1235.97 251.756 1235.97 258.687ZM1229.16 258.687C1229.16 254.746 1228.77 251.263 1228 248.237C1227.23 245.211 1226.12 242.589 1224.68 240.373C1223.23 238.121 1221.47 236.238 1219.4 234.725C1217.32 233.212 1214.98 231.998 1212.38 231.083C1209.77 230.133 1206.94 229.465 1203.88 229.078C1200.82 228.691 1197.56 228.497 1194.12 228.497H1163.4V288.93H1194.12C1199.29 288.93 1204.02 288.473 1208.31 287.558C1212.61 286.608 1216.28 284.989 1219.34 282.702C1222.44 280.38 1224.85 277.283 1226.58 273.413C1228.3 269.507 1229.16 264.599 1229.16 258.687ZM1322.88 295L1312.9 275.894H1263.66L1253.68 295H1246.45L1284.4 222.48H1292.16L1330.11 295H1322.88ZM1288.31 228.867L1266.88 269.824H1309.68L1288.31 228.867ZM1431.69 258.793C1431.69 265.302 1430.51 270.932 1428.15 275.683C1425.79 280.398 1422.56 284.303 1418.44 287.4C1414.32 290.461 1409.47 292.73 1403.87 294.208C1398.28 295.686 1392.24 296.425 1385.77 296.425C1379.26 296.425 1373.19 295.686 1367.56 294.208C1361.93 292.73 1357.04 290.461 1352.89 287.4C1348.73 284.303 1345.48 280.398 1343.12 275.683C1340.76 270.932 1339.59 265.302 1339.59 258.793C1339.59 254.465 1340.13 250.542 1341.22 247.023C1342.31 243.469 1343.84 240.302 1345.81 237.523C1347.78 234.708 1350.16 232.28 1352.94 230.239C1355.75 228.198 1358.87 226.509 1362.28 225.172C1365.73 223.8 1369.42 222.797 1373.37 222.164C1377.31 221.495 1381.44 221.161 1385.77 221.161C1392.24 221.161 1398.28 221.9 1403.87 223.377C1409.47 224.855 1414.32 227.142 1418.44 230.239C1422.56 233.3 1425.79 237.206 1428.15 241.956C1430.51 246.671 1431.69 252.283 1431.69 258.793ZM1424.88 258.793C1424.88 253.656 1424.03 249.117 1422.35 245.176C1420.69 241.235 1418.23 237.927 1414.96 235.253C1411.68 232.544 1407.6 230.503 1402.71 229.13C1397.86 227.723 1392.21 227.019 1385.77 227.019C1379.33 227.019 1373.65 227.723 1368.72 229.13C1363.83 230.538 1359.73 232.596 1356.42 235.306C1353.12 237.98 1350.62 241.305 1348.93 245.281C1347.24 249.222 1346.39 253.726 1346.39 258.793C1346.39 263.93 1347.24 268.469 1348.93 272.41C1350.62 276.351 1353.12 279.676 1356.42 282.386C1359.73 285.06 1363.83 287.101 1368.72 288.508C1373.65 289.88 1379.33 290.566 1385.77 290.566C1392.21 290.566 1397.86 289.88 1402.71 288.508C1407.6 287.101 1411.68 285.06 1414.96 282.386C1418.23 279.676 1420.69 276.351 1422.35 272.41C1424.03 268.469 1424.88 263.93 1424.88 258.793Z" fill="white"/>
<path d="M831.066 316.251C842.107 316.251 852.356 317.208 861.813 319.121C871.324 320.979 880.042 323.384 887.968 326.336V353.885C884.852 352.136 881.327 350.442 877.391 348.802C873.51 347.162 869.274 345.713 864.682 344.456C860.091 343.199 855.171 342.188 849.924 341.423C844.676 340.657 839.156 340.275 833.362 340.275C826.146 340.275 819.86 340.794 814.504 341.832C809.147 342.871 804.555 344.265 800.729 346.014C796.903 347.763 793.76 349.813 791.3 352.163C788.84 354.459 786.9 356.919 785.478 359.543C784.057 362.166 783.073 364.845 782.527 367.578C781.98 370.311 781.707 372.962 781.707 375.531C781.707 377.772 781.925 380.205 782.363 382.828C782.855 385.452 783.729 388.076 784.987 390.7C786.298 393.323 788.102 395.838 790.398 398.243C792.694 400.648 795.673 402.78 799.335 404.638C803.052 406.497 807.507 408 812.7 409.148C817.892 410.241 824.069 410.787 831.23 410.787C834.837 410.787 837.98 410.678 840.659 410.46C843.337 410.241 845.77 409.94 847.956 409.558C850.197 409.175 852.274 408.71 854.187 408.164C856.155 407.617 858.178 407.043 860.255 406.442V392.831H826.146V368.152H890.674V425.71C886.629 427.076 882.092 428.334 877.063 429.482C872.089 430.575 866.924 431.504 861.567 432.269C856.265 433.089 850.935 433.718 845.578 434.155C840.222 434.592 835.165 434.811 830.41 434.811C823.031 434.811 815.952 434.319 809.174 433.335C802.396 432.351 796.055 430.848 790.152 428.826C784.303 426.749 778.946 424.125 774.082 420.954C769.271 417.784 765.145 414.012 761.701 409.64C758.312 405.267 755.661 400.265 753.748 394.635C751.889 388.95 750.96 382.582 750.96 375.531C750.96 368.534 751.944 362.194 753.912 356.509C755.879 350.824 758.613 345.795 762.111 341.423C765.664 337.05 769.9 333.278 774.82 330.108C779.794 326.937 785.232 324.341 791.136 322.318C797.094 320.241 803.435 318.711 810.158 317.727C816.936 316.743 823.905 316.251 831.066 316.251ZM1056.46 393.815C1056.46 399.445 1055.07 404.747 1052.28 409.722C1049.49 414.696 1045.31 419.041 1039.73 422.758C1034.16 426.475 1027.19 429.427 1018.83 431.613C1010.52 433.745 1000.79 434.811 989.638 434.811C978.487 434.811 968.702 433.745 960.285 431.613C951.922 429.427 944.952 426.475 939.377 422.758C933.801 419.041 929.62 414.696 926.832 409.722C924.044 404.747 922.65 399.445 922.65 393.815V319.121H952.987V382.91C952.987 386.682 953.452 390.262 954.381 393.651C955.365 396.986 957.169 399.91 959.793 402.424C962.471 404.939 966.188 406.934 970.944 408.41C975.754 409.886 981.985 410.623 989.638 410.623C997.236 410.623 1003.41 409.886 1008.17 408.41C1012.92 406.934 1016.61 404.939 1019.24 402.424C1021.92 399.91 1023.72 396.986 1024.65 393.651C1025.58 390.262 1026.04 386.682 1026.04 382.91V319.121H1056.46V393.815ZM1090.9 431.777V319.121H1121.32V431.777H1090.9ZM1156.65 431.777V319.121H1187.07V407.098H1269.31V431.777H1156.65ZM1431.74 375.367C1431.74 382.582 1430.94 389.005 1429.36 394.635C1427.77 400.211 1425.53 405.075 1422.64 409.23C1419.79 413.384 1416.35 416.91 1412.3 419.807C1408.31 422.704 1403.86 425.027 1398.94 426.776C1394.02 428.525 1388.72 429.81 1383.03 430.629C1377.35 431.395 1371.42 431.777 1365.24 431.777H1293.74V319.121H1365.08C1371.25 319.121 1377.18 319.531 1382.87 320.351C1388.55 321.116 1393.86 322.373 1398.78 324.122C1403.75 325.871 1408.26 328.195 1412.3 331.092C1416.35 333.934 1419.79 337.46 1422.64 341.669C1425.53 345.823 1427.77 350.688 1429.36 356.263C1430.94 361.838 1431.74 368.206 1431.74 375.367ZM1401.07 375.367C1401.07 369.956 1400.36 365.255 1398.94 361.265C1397.57 357.274 1395.33 353.995 1392.22 351.426C1389.16 348.802 1385.14 346.861 1380.16 345.604C1375.19 344.292 1369.12 343.636 1361.96 343.636H1324.16V407.262H1361.96C1369.12 407.262 1375.19 406.633 1380.16 405.376C1385.14 404.064 1389.16 402.096 1392.22 399.473C1395.33 396.794 1397.57 393.46 1398.94 389.47C1400.36 385.479 1401.07 380.779 1401.07 375.367Z" fill="white"/>
<g filter="url(#filter0_d_85_16)">
<path d="M95.7993 377.449C84.0669 357.126 84.0669 332.087 95.7993 311.764L215.21 104.918C226.942 84.595 248.625 72.0755 272.089 72.0755L510.911 72.0755C534.375 72.0755 556.058 84.595 567.79 104.918L687.201 311.764C698.933 332.087 698.933 357.126 687.201 377.449L567.79 584.294C556.058 604.617 534.375 617.137 510.911 617.137L272.089 617.137C248.625 617.137 226.942 604.617 215.21 584.294L95.7993 377.449Z" fill="#82D9FF"/>
<path d="M95.7993 377.449C84.0669 357.126 84.0669 332.087 95.7993 311.764L215.21 104.918C226.942 84.595 248.625 72.0755 272.089 72.0755L510.911 72.0755C534.375 72.0755 556.058 84.595 567.79 104.918L687.201 311.764C698.933 332.087 698.933 357.126 687.201 377.449L567.79 584.294C556.058 604.617 534.375 617.137 510.911 617.137L272.089 617.137C248.625 617.137 226.942 604.617 215.21 584.294L95.7993 377.449Z" fill="url(#paint0_radial_85_16)"/>
<path d="M95.7993 377.449C84.0669 357.126 84.0669 332.087 95.7993 311.764L215.21 104.918C226.942 84.595 248.625 72.0755 272.089 72.0755L510.911 72.0755C534.375 72.0755 556.058 84.595 567.79 104.918L687.201 311.764C698.933 332.087 698.933 357.126 687.201 377.449L567.79 584.294C556.058 604.617 534.375 617.137 510.911 617.137L272.089 617.137C248.625 617.137 226.942 604.617 215.21 584.294L95.7993 377.449Z" fill="url(#paint1_radial_85_16)"/>
<path d="M95.7993 377.449C84.0669 357.126 84.0669 332.087 95.7993 311.764L215.21 104.918C226.942 84.595 248.625 72.0755 272.089 72.0755L510.911 72.0755C534.375 72.0755 556.058 84.595 567.79 104.918L687.201 311.764C698.933 332.087 698.933 357.126 687.201 377.449L567.79 584.294C556.058 604.617 534.375 617.137 510.911 617.137L272.089 617.137C248.625 617.137 226.942 604.617 215.21 584.294L95.7993 377.449Z" fill="url(#paint2_radial_85_16)"/>
<path d="M96.2161 312.004L215.627 105.159C227.273 84.9846 248.797 72.5568 272.089 72.5568L510.911 72.5568C534.203 72.5568 555.727 84.9845 567.373 105.159L686.784 312.004C698.43 332.178 698.43 357.034 686.784 377.208L567.373 584.054C555.727 604.228 534.203 616.655 510.911 616.655L272.089 616.655C248.797 616.655 227.273 604.228 215.627 584.054L96.2161 377.208C84.5697 357.034 84.5697 332.178 96.2161 312.004Z" stroke="url(#paint3_linear_85_16)" stroke-opacity="0.31" stroke-width="0.962598"/>
</g>
<path d="M449.825 399.088C467.853 399.084 479.119 379.568 470.106 363.955L412.236 263.701C403.222 248.085 380.684 248.083 371.667 263.696L313.753 363.976C304.733 379.593 316.007 399.117 334.041 399.113L449.825 399.088Z" fill="#BCB9B9"/>
<path d="M449.825 399.088C467.853 399.084 479.119 379.568 470.106 363.955L412.236 263.701C403.222 248.085 380.684 248.083 371.667 263.696L313.753 363.976C304.733 379.593 316.007 399.117 334.041 399.113L449.825 399.088Z" fill="url(#paint4_linear_85_16)"/>
<path d="M167.107 369.397C158.204 353.984 158.204 334.994 167.107 319.581L257.72 162.707C266.623 147.294 283.076 137.799 300.882 137.799L390.667 137.799C368.947 138.071 347.352 149.221 334.94 170.64L212.235 382.375C199.648 404.095 201.193 428.537 212.235 447.525L167.107 369.397Z" fill="#BCB9B9"/>
<path d="M167.107 369.397C158.204 353.984 158.204 334.994 167.107 319.581L257.72 162.707C266.623 147.294 283.076 137.799 300.882 137.799L390.667 137.799C368.947 138.071 347.352 149.221 334.94 170.64L212.235 382.375C199.648 404.095 201.193 428.537 212.235 447.525L167.107 369.397Z" fill="url(#paint5_linear_85_16)"/>
<path d="M390.667 137.799C390.867 137.796 391.067 137.795 391.267 137.794C391.268 137.794 391.269 137.795 391.269 137.797V137.797C391.269 137.798 391.268 137.799 391.267 137.799L390.667 137.799Z" fill="#BCB9B9"/>
<path d="M390.667 137.799C390.867 137.796 391.067 137.795 391.267 137.794C391.268 137.794 391.269 137.795 391.269 137.797V137.797C391.269 137.798 391.268 137.799 391.267 137.799L390.667 137.799Z" fill="url(#paint6_linear_85_16)"/>
<path d="M392.343 137.799L391.93 137.795C392.052 137.796 392.174 137.797 392.297 137.799L392.343 137.799Z" fill="#BCB9B9"/>
<path d="M392.343 137.799L391.93 137.795C392.052 137.796 392.174 137.797 392.297 137.799L392.343 137.799Z" fill="url(#paint7_linear_85_16)"/>
<path d="M572.039 445.245C572.041 445.246 572.043 445.246 572.044 445.244L615.883 369.397C624.786 353.984 624.786 334.994 615.883 319.581L525.27 162.707C516.367 147.294 499.914 137.799 482.108 137.799L392.297 137.799C414.018 138.071 435.638 149.221 448.051 170.64L570.756 382.375C583.119 403.709 582.524 426.452 572.038 445.241C572.037 445.242 572.038 445.244 572.039 445.245V445.245Z" fill="#BCB9B9"/>
<path d="M572.039 445.245C572.041 445.246 572.043 445.246 572.044 445.244L615.883 369.397C624.786 353.984 624.786 334.994 615.883 319.581L525.27 162.707C516.367 147.294 499.914 137.799 482.108 137.799L392.297 137.799C414.018 138.071 435.638 149.221 448.051 170.64L570.756 382.375C583.119 403.709 582.524 426.452 572.038 445.241C572.037 445.242 572.038 445.244 572.039 445.245V445.245Z" fill="url(#paint8_linear_85_16)"/>
<path d="M571.955 445.398C571.955 445.397 571.955 445.396 571.954 445.395V445.395C571.953 445.395 571.952 445.395 571.951 445.396C571.876 445.529 571.801 445.662 571.725 445.795L571.368 446.413C560.338 465.261 539.228 479.965 514.2 479.965L268.79 479.965C243.742 479.965 223.318 466.501 212.294 447.629L257.72 526.272C266.623 541.685 283.076 551.18 300.882 551.18L482.108 551.18C499.914 551.18 516.367 541.685 525.27 526.271L571.368 446.413C571.425 446.316 571.481 446.22 571.537 446.123C571.561 446.082 571.584 446.041 571.608 446.001C571.647 445.932 571.686 445.864 571.725 445.795L571.955 445.398Z" fill="#BCB9B9"/>
<path d="M571.955 445.398C571.955 445.397 571.955 445.396 571.954 445.395V445.395C571.953 445.395 571.952 445.395 571.951 445.396C571.876 445.529 571.801 445.662 571.725 445.795L571.368 446.413C560.338 465.261 539.228 479.965 514.2 479.965L268.79 479.965C243.742 479.965 223.318 466.501 212.294 447.629L257.72 526.272C266.623 541.685 283.076 551.18 300.882 551.18L482.108 551.18C499.914 551.18 516.367 541.685 525.27 526.271L571.368 446.413C571.425 446.316 571.481 446.22 571.537 446.123C571.561 446.082 571.584 446.041 571.608 446.001C571.647 445.932 571.686 445.864 571.725 445.795L571.955 445.398Z" fill="url(#paint9_linear_85_16)"/>
<path d="M530.371 105.543C539.685 110.92 545.248 122.473 546.894 139.48C548.534 156.434 546.23 178.396 540.249 203.909C528.291 254.912 501.733 319.698 463.375 386.137C425.016 452.576 382.188 507.969 343.998 543.826C324.894 561.763 307.026 574.739 291.523 581.795C275.972 588.873 263.185 589.832 253.871 584.454C244.558 579.077 238.995 567.524 237.349 550.517C235.708 533.564 238.012 511.601 243.993 486.088C255.951 435.086 282.509 370.299 320.868 303.86C359.226 237.422 402.054 182.029 440.245 146.172C459.348 128.235 477.217 115.258 492.719 108.203C508.271 101.125 521.057 100.166 530.371 105.543Z" stroke="url(#paint10_linear_85_16)" stroke-width="3.52385"/>
<path d="M114.727 344.49C114.727 334.698 121.873 324.958 135.823 315.776C149.703 306.64 169.903 298.345 195.022 291.351C245.235 277.372 314.705 268.702 391.51 268.702C468.315 268.702 537.785 277.372 587.998 291.351C613.117 298.345 633.317 306.64 647.197 315.776C661.147 324.958 668.293 334.698 668.293 344.49C668.293 354.281 661.147 364.021 647.197 373.204C633.317 382.339 613.117 390.635 587.998 397.628C537.785 411.608 468.315 420.277 391.51 420.277C314.705 420.277 245.235 411.608 195.022 397.628C169.903 390.635 149.703 382.339 135.823 373.204C121.873 364.021 114.727 354.281 114.727 344.49Z" stroke="url(#paint11_linear_85_16)" stroke-width="3.52385"/>
<path d="M253.904 104.862C244.771 110.135 239.361 121.582 237.861 138.518C236.366 155.393 238.803 177.289 244.9 202.747C257.087 253.642 283.794 318.374 322.167 384.838C360.54 451.302 403.246 506.797 441.228 542.798C460.228 560.807 477.971 573.866 493.333 581.009C508.75 588.177 521.369 589.216 530.502 583.943C539.636 578.67 545.045 567.222 546.546 550.287C548.041 533.411 545.603 511.516 539.507 486.057C527.32 435.163 500.613 370.431 462.24 303.967C423.866 237.503 381.161 182.007 343.178 146.006C324.178 127.997 306.436 114.938 291.073 107.795C275.657 100.627 263.038 99.5883 253.904 104.862Z" stroke="url(#paint12_linear_85_16)" stroke-width="3.52385"/>
<circle cx="269.331" cy="411.911" r="8.22973" transform="rotate(-90 269.331 411.911)" fill="white"/>
<circle cx="514.316" cy="411.274" r="8.22973" transform="rotate(-90 514.316 411.274)" fill="white"/>
<circle cx="392.152" cy="201.102" r="8.22973" transform="rotate(-90 392.152 201.102)" fill="white"/>
<defs>
<filter id="filter0_d_85_16" x="0.189148" y="0.582927" width="782.622" height="718.684" filterUnits="userSpaceOnUse" color-interpolation-filters="sRGB">
<feFlood flood-opacity="0" result="BackgroundImageFix"/>
<feColorMatrix in="SourceAlpha" type="matrix" values="0 0 0 0 0 0 0 0 0 0 0 0 0 0 0 0 0 0 127 0" result="hardAlpha"/>
<feOffset dy="15.3196"/>
<feGaussianBlur stdDeviation="43.4054"/>
<feComposite in2="hardAlpha" operator="out"/>
<feColorMatrix type="matrix" values="0 0 0 0 0.25098 0 0 0 0 0.533334 0 0 0 0 0.878431 0 0 0 0.57 0"/>
<feBlend mode="normal" in2="BackgroundImageFix" result="effect1_dropShadow_85_16"/>
<feBlend mode="normal" in="SourceGraphic" in2="effect1_dropShadow_85_16" result="shape"/>
</filter>
<radialGradient id="paint0_radial_85_16" cx="0" cy="0" r="1" gradientUnits="userSpaceOnUse" gradientTransform="translate(648.982 178.282) rotate(111.834) scale(427.433 416.083)">
<stop stop-color="#44DCFF" stop-opacity="0.71"/>
<stop offset="0.848709" stop-color="#78C7D9" stop-opacity="0"/>
</radialGradient>
<radialGradient id="paint1_radial_85_16" cx="0" cy="0" r="1" gradientUnits="userSpaceOnUse" gradientTransform="translate(87.0001 92.2169) rotate(22.5107) scale(659.228 706.697)">
<stop stop-color="#C51BFF"/>
<stop offset="1" stop-color="#033959" stop-opacity="0"/>
</radialGradient>
<radialGradient id="paint2_radial_85_16" cx="0" cy="0" r="1" gradientUnits="userSpaceOnUse" gradientTransform="translate(190.405 629.072) rotate(-29.3637) scale(580.127 753.498)">
<stop stop-color="#14BDFF"/>
<stop offset="0.743635" stop-color="#033959" stop-opacity="0"/>
</radialGradient>
<linearGradient id="paint3_linear_85_16" x1="170.827" y1="61.5763" x2="533.329" y2="772.925" gradientUnits="userSpaceOnUse">
<stop stop-color="#75D4F6"/>
<stop offset="1" stop-color="#8E52DF"/>
</linearGradient>
<linearGradient id="paint4_linear_85_16" x1="310.578" y1="325.55" x2="473.278" y2="325.55" gradientUnits="userSpaceOnUse">
<stop stop-color="#193A79"/>
<stop offset="1" stop-color="#7545B9"/>
</linearGradient>
<linearGradient id="paint5_linear_85_16" x1="160.43" y1="344.487" x2="622.561" y2="344.487" gradientUnits="userSpaceOnUse">
<stop stop-color="#193A79"/>
<stop offset="1" stop-color="#7545B9"/>
</linearGradient>
<linearGradient id="paint6_linear_85_16" x1="160.43" y1="344.487" x2="622.561" y2="344.487" gradientUnits="userSpaceOnUse">
<stop stop-color="#193A79"/>
<stop offset="1" stop-color="#7545B9"/>
</linearGradient>
<linearGradient id="paint7_linear_85_16" x1="160.43" y1="344.487" x2="622.561" y2="344.487" gradientUnits="userSpaceOnUse">
<stop stop-color="#193A79"/>
<stop offset="1" stop-color="#7545B9"/>
</linearGradient>
<linearGradient id="paint8_linear_85_16" x1="160.43" y1="344.487" x2="622.561" y2="344.487" gradientUnits="userSpaceOnUse">
<stop stop-color="#193A79"/>
<stop offset="1" stop-color="#7545B9"/>
</linearGradient>
<linearGradient id="paint9_linear_85_16" x1="160.43" y1="344.487" x2="622.561" y2="344.487" gradientUnits="userSpaceOnUse">
<stop stop-color="#193A79"/>
<stop offset="1" stop-color="#7545B9"/>
</linearGradient>
<linearGradient id="paint10_linear_85_16" x1="274.076" y1="266.623" x2="458.664" y2="381.193" gradientUnits="userSpaceOnUse">
<stop stop-color="white"/>
<stop offset="1" stop-color="white" stop-opacity="0"/>
</linearGradient>
<linearGradient id="paint11_linear_85_16" x1="424.745" y1="500.538" x2="412.724" y2="320.094" gradientUnits="userSpaceOnUse">
<stop stop-color="white"/>
<stop offset="1" stop-color="white" stop-opacity="0"/>
</linearGradient>
<linearGradient id="paint12_linear_85_16" x1="501.347" y1="278.016" x2="344.065" y2="384.763" gradientUnits="userSpaceOnUse">
<stop stop-color="white"/>
<stop offset="1" stop-color="white" stop-opacity="0"/>
</linearGradient>
</defs>
</svg>
