<svg width="294" height="294" viewBox="0 0 294 294" fill="none" xmlns="http://www.w3.org/2000/svg">
<g filter="url(#filter0_i_166_923)">
<path d="M294 147C294 228.186 228.186 294 147 294C65.8141 294 0 228.186 0 147C0 65.8141 65.8141 0 147 0C228.186 0 294 65.8141 294 147ZM20.3652 147C20.3652 216.938 77.0615 273.635 147 273.635C216.938 273.635 273.635 216.938 273.635 147C273.635 77.0615 216.938 20.3652 147 20.3652C77.0615 20.3652 20.3652 77.0615 20.3652 147Z" fill="#253CFB"/>
<path d="M294 147C294 228.186 228.186 294 147 294C65.8141 294 0 228.186 0 147C0 65.8141 65.8141 0 147 0C228.186 0 294 65.8141 294 147ZM20.3652 147C20.3652 216.938 77.0615 273.635 147 273.635C216.938 273.635 273.635 216.938 273.635 147C273.635 77.0615 216.938 20.3652 147 20.3652C77.0615 20.3652 20.3652 77.0615 20.3652 147Z" fill="url(#paint0_radial_166_923)"/>
<path d="M294 147C294 228.186 228.186 294 147 294C65.8141 294 0 228.186 0 147C0 65.8141 65.8141 0 147 0C228.186 0 294 65.8141 294 147ZM20.3652 147C20.3652 216.938 77.0615 273.635 147 273.635C216.938 273.635 273.635 216.938 273.635 147C273.635 77.0615 216.938 20.3652 147 20.3652C77.0615 20.3652 20.3652 77.0615 20.3652 147Z" fill="url(#paint1_radial_166_923)"/>
<path d="M294 147C294 228.186 228.186 294 147 294C65.8141 294 0 228.186 0 147C0 65.8141 65.8141 0 147 0C228.186 0 294 65.8141 294 147ZM20.3652 147C20.3652 216.938 77.0615 273.635 147 273.635C216.938 273.635 273.635 216.938 273.635 147C273.635 77.0615 216.938 20.3652 147 20.3652C77.0615 20.3652 20.3652 77.0615 20.3652 147Z" fill="url(#paint2_radial_166_923)"/>
</g>
<defs>
<filter id="filter0_i_166_923" x="0" y="0" width="294" height="294" filterUnits="userSpaceOnUse" color-interpolation-filters="sRGB">
<feFlood flood-opacity="0" result="BackgroundImageFix"/>
<feBlend mode="normal" in="SourceGraphic" in2="BackgroundImageFix" result="shape"/>
<feColorMatrix in="SourceAlpha" type="matrix" values="0 0 0 0 0 0 0 0 0 0 0 0 0 0 0 0 0 0 127 0" result="hardAlpha"/>
<feOffset/>
<feGaussianBlur stdDeviation="5"/>
<feComposite in2="hardAlpha" operator="arithmetic" k2="-1" k3="1"/>
<feColorMatrix type="matrix" values="0 0 0 0 1 0 0 0 0 1 0 0 0 0 1 0 0 0 0.25 0"/>
<feBlend mode="normal" in2="shape" result="effect1_innerShadow_166_923"/>
</filter>
<radialGradient id="paint0_radial_166_923" cx="0" cy="0" r="1" gradientUnits="userSpaceOnUse" gradientTransform="translate(236.713 271.301) rotate(-160.273) scale(227.358 203.69)">
<stop stop-color="#42DCFF"/>
<stop offset="0.599661" stop-color="#78C7D9" stop-opacity="0"/>
</radialGradient>
<radialGradient id="paint1_radial_166_923" cx="0" cy="0" r="1" gradientUnits="userSpaceOnUse" gradientTransform="translate(264.253 60.1462) rotate(116.629) scale(261.602 302.33)">
<stop stop-color="#C51BFF"/>
<stop offset="1" stop-color="#033959" stop-opacity="0"/>
</radialGradient>
<radialGradient id="paint2_radial_166_923" cx="0" cy="0" r="1" gradientUnits="userSpaceOnUse" gradientTransform="translate(10.6396 77.9513) rotate(57.7417) scale(255.482 349.866)">
<stop stop-color="#00B7FF"/>
<stop offset="0.743635" stop-color="#033959" stop-opacity="0"/>
</radialGradient>
</defs>
</svg>
