<svg width="294" height="294" fill="none" xmlns="http://www.w3.org/2000/svg"><g filter="url(#a)"><path d="M294 147c0 81.186-65.814 147-147 147S0 228.186 0 147 65.814 0 147 0s147 65.814 147 147Zm-273.635 0c0 69.938 56.697 126.635 126.635 126.635S273.635 216.938 273.635 147c0-69.939-56.697-126.635-126.635-126.635C77.061 20.365 20.365 77.062 20.365 147Z" fill="#253CFB"/><path d="M294 147c0 81.186-65.814 147-147 147S0 228.186 0 147 65.814 0 147 0s147 65.814 147 147Zm-273.635 0c0 69.938 56.697 126.635 126.635 126.635S273.635 216.938 273.635 147c0-69.939-56.697-126.635-126.635-126.635C77.061 20.365 20.365 77.062 20.365 147Z" fill="url(#b)"/><path d="M294 147c0 81.186-65.814 147-147 147S0 228.186 0 147 65.814 0 147 0s147 65.814 147 147Zm-273.635 0c0 69.938 56.697 126.635 126.635 126.635S273.635 216.938 273.635 147c0-69.939-56.697-126.635-126.635-126.635C77.061 20.365 20.365 77.062 20.365 147Z" fill="url(#c)"/><path d="M294 147c0 81.186-65.814 147-147 147S0 228.186 0 147 65.814 0 147 0s147 65.814 147 147Zm-273.635 0c0 69.938 56.697 126.635 126.635 126.635S273.635 216.938 273.635 147c0-69.939-56.697-126.635-126.635-126.635C77.061 20.365 20.365 77.062 20.365 147Z" fill="url(#d)"/></g><defs><radialGradient id="b" cx="0" cy="0" r="1" gradientUnits="userSpaceOnUse" gradientTransform="matrix(-214.01472 -76.74216 68.7533 -191.73576 236.713 271.301)"><stop stop-color="#42DCFF"/><stop offset=".6" stop-color="#78C7D9" stop-opacity="0"/></radialGradient><radialGradient id="c" cx="0" cy="0" r="1" gradientUnits="userSpaceOnUse" gradientTransform="rotate(116.629 113.563 111.63) scale(261.602 302.33)"><stop stop-color="#C51BFF"/><stop offset="1" stop-color="#033959" stop-opacity="0"/></radialGradient><radialGradient id="d" cx="0" cy="0" r="1" gradientUnits="userSpaceOnUse" gradientTransform="matrix(136.3602 216.04848 -295.86436 186.73644 10.64 77.951)"><stop stop-color="#00B7FF"/><stop offset=".744" stop-color="#033959" stop-opacity="0"/></radialGradient><filter id="a" x="0" y="0" width="294" height="294" filterUnits="userSpaceOnUse" color-interpolation-filters="sRGB"><feFlood flood-opacity="0" result="BackgroundImageFix"/><feBlend in="SourceGraphic" in2="BackgroundImageFix" result="shape"/><feColorMatrix in="SourceAlpha" values="0 0 0 0 0 0 0 0 0 0 0 0 0 0 0 0 0 0 127 0" result="hardAlpha"/><feOffset/><feGaussianBlur stdDeviation="5"/><feComposite in2="hardAlpha" operator="arithmetic" k2="-1" k3="1"/><feColorMatrix values="0 0 0 0 1 0 0 0 0 1 0 0 0 0 1 0 0 0 0.25 0"/><feBlend in2="shape" result="effect1_innerShadow_166_923"/></filter></defs></svg>