<svg width="1463" height="892" viewBox="0 0 1463 892" fill="none" xmlns="http://www.w3.org/2000/svg">
<path d="M287.119 29V26.804L296.263 18.74C298.231 17.012 299.599 15.572 300.367 14.42C301.135 13.268 301.519 12.068 301.519 10.82C301.519 9.38 301.027 8.216 300.043 7.328C299.059 6.44 297.859 5.996 296.443 5.996C295.075 5.996 293.863 6.344 292.807 7.04C291.775 7.736 290.731 8.828 289.675 10.316L287.587 8.804C288.811 6.98 290.107 5.636 291.475 4.772C292.843 3.884 294.571 3.44 296.659 3.44C298.915 3.44 300.775 4.124 302.239 5.492C303.727 6.836 304.471 8.552 304.471 10.64C304.471 12.368 304.003 13.904 303.067 15.248C302.131 16.592 300.475 18.32 298.099 20.432L291.367 26.408H304.723V29H287.119ZM319.65 29.432C316.314 29.432 313.314 28.1 310.65 25.436L312.522 23.384C314.898 25.688 317.286 26.84 319.686 26.84C321.486 26.84 322.95 26.312 324.078 25.256C325.206 24.2 325.77 22.844 325.77 21.188C325.77 19.628 325.182 18.356 324.006 17.372C322.854 16.388 321.354 15.896 319.506 15.896C317.778 15.896 316.014 16.376 314.214 17.336L312.306 16.076L313.026 3.8H327.534V6.428H315.51L314.97 14.492C316.674 13.748 318.33 13.376 319.938 13.376C322.458 13.376 324.534 14.084 326.166 15.5C327.822 16.892 328.65 18.776 328.65 21.152C328.65 23.6 327.81 25.592 326.13 27.128C324.45 28.664 322.29 29.432 319.65 29.432ZM344.249 14.492C343.169 15.764 341.801 16.4 340.145 16.4C338.489 16.4 337.121 15.776 336.041 14.528C334.985 13.256 334.457 11.732 334.457 9.956C334.457 8.204 334.997 6.692 336.077 5.42C337.157 4.148 338.537 3.512 340.217 3.512C341.873 3.512 343.229 4.148 344.285 5.42C345.341 6.668 345.869 8.18 345.869 9.956C345.869 11.708 345.329 13.22 344.249 14.492ZM337.049 29L355.553 3.8H358.109L339.641 29H337.049ZM354.977 29.288C353.321 29.288 351.965 28.664 350.909 27.416C349.853 26.144 349.325 24.62 349.325 22.844C349.325 21.092 349.865 19.58 350.945 18.308C352.025 17.036 353.393 16.4 355.049 16.4C356.705 16.4 358.061 17.036 359.117 18.308C360.173 19.556 360.701 21.068 360.701 22.844C360.701 24.62 360.161 26.144 359.081 27.416C358.025 28.664 356.657 29.288 354.977 29.288ZM340.217 14.384C341.177 14.384 341.957 13.964 342.557 13.124C343.181 12.26 343.493 11.204 343.493 9.956C343.493 8.708 343.169 7.664 342.521 6.824C341.873 5.96 341.081 5.528 340.145 5.528C339.185 5.528 338.393 5.96 337.769 6.824C337.169 7.664 336.869 8.708 336.869 9.956C336.869 11.204 337.193 12.26 337.841 13.124C338.489 13.964 339.281 14.384 340.217 14.384ZM355.049 27.272C356.033 27.272 356.825 26.852 357.425 26.012C358.025 25.172 358.325 24.116 358.325 22.844C358.325 21.596 358.001 20.552 357.353 19.712C356.705 18.848 355.913 18.416 354.977 18.416C354.017 18.416 353.225 18.848 352.601 19.712C352.001 20.552 351.701 21.596 351.701 22.844C351.701 24.092 352.025 25.148 352.673 26.012C353.321 26.852 354.113 27.272 355.049 27.272Z" fill="#FF28C3"/>
<path d="M1327.97 247.432C1324.64 247.432 1321.64 246.1 1318.97 243.436L1320.85 241.384C1323.22 243.688 1325.61 244.84 1328.01 244.84C1329.81 244.84 1331.27 244.312 1332.4 243.256C1333.53 242.2 1334.09 240.844 1334.09 239.188C1334.09 237.628 1333.51 236.356 1332.33 235.372C1331.18 234.388 1329.68 233.896 1327.83 233.896C1326.1 233.896 1324.34 234.376 1322.54 235.336L1320.63 234.076L1321.35 221.8H1335.86V224.428H1323.83L1323.29 232.492C1325 231.748 1326.65 231.376 1328.26 231.376C1330.78 231.376 1332.86 232.084 1334.49 233.5C1336.15 234.892 1336.97 236.776 1336.97 239.152C1336.97 241.6 1336.13 243.592 1334.45 245.128C1332.77 246.664 1330.61 247.432 1327.97 247.432ZM1352.57 232.492C1351.49 233.764 1350.13 234.4 1348.47 234.4C1346.81 234.4 1345.45 233.776 1344.37 232.528C1343.31 231.256 1342.78 229.732 1342.78 227.956C1342.78 226.204 1343.32 224.692 1344.4 223.42C1345.48 222.148 1346.86 221.512 1348.54 221.512C1350.2 221.512 1351.55 222.148 1352.61 223.42C1353.67 224.668 1354.19 226.18 1354.19 227.956C1354.19 229.708 1353.65 231.22 1352.57 232.492ZM1345.37 247L1363.88 221.8H1366.43L1347.97 247H1345.37ZM1363.3 247.288C1361.65 247.288 1360.29 246.664 1359.23 245.416C1358.18 244.144 1357.65 242.62 1357.65 240.844C1357.65 239.092 1358.19 237.58 1359.27 236.308C1360.35 235.036 1361.72 234.4 1363.37 234.4C1365.03 234.4 1366.39 235.036 1367.44 236.308C1368.5 237.556 1369.03 239.068 1369.03 240.844C1369.03 242.62 1368.49 244.144 1367.41 245.416C1366.35 246.664 1364.98 247.288 1363.3 247.288ZM1348.54 232.384C1349.5 232.384 1350.28 231.964 1350.88 231.124C1351.51 230.26 1351.82 229.204 1351.82 227.956C1351.82 226.708 1351.49 225.664 1350.85 224.824C1350.2 223.96 1349.41 223.528 1348.47 223.528C1347.51 223.528 1346.72 223.96 1346.09 224.824C1345.49 225.664 1345.19 226.708 1345.19 227.956C1345.19 229.204 1345.52 230.26 1346.17 231.124C1346.81 231.964 1347.61 232.384 1348.54 232.384ZM1363.37 245.272C1364.36 245.272 1365.15 244.852 1365.75 244.012C1366.35 243.172 1366.65 242.116 1366.65 240.844C1366.65 239.596 1366.33 238.552 1365.68 237.712C1365.03 236.848 1364.24 236.416 1363.3 236.416C1362.34 236.416 1361.55 236.848 1360.93 237.712C1360.33 238.552 1360.03 239.596 1360.03 240.844C1360.03 242.092 1360.35 243.148 1361 244.012C1361.65 244.852 1362.44 245.272 1363.37 245.272Z" fill="#28F2FF"/>
<path d="M1303.9 682.652C1301.93 685.172 1299.36 686.432 1296.19 686.432C1293.02 686.432 1290.46 685.184 1288.49 682.688C1286.54 680.168 1285.57 677.072 1285.57 673.4C1285.57 669.776 1286.56 666.704 1288.52 664.184C1290.52 661.64 1293.1 660.368 1296.26 660.368C1299.43 660.368 1301.99 661.628 1303.93 664.148C1305.88 666.644 1306.85 669.728 1306.85 673.4C1306.85 677.024 1305.86 680.108 1303.9 682.652ZM1290.68 680.78C1292.12 682.82 1293.98 683.84 1296.26 683.84C1298.54 683.84 1300.38 682.832 1301.77 680.816C1303.19 678.776 1303.9 676.304 1303.9 673.4C1303.9 670.544 1303.18 668.096 1301.74 666.056C1300.32 663.992 1298.47 662.96 1296.19 662.96C1293.91 662.96 1292.06 663.98 1290.65 666.02C1289.23 668.036 1288.52 670.496 1288.52 673.4C1288.52 676.256 1289.24 678.716 1290.68 680.78ZM1312.94 686V682.22H1316.25V686H1312.94ZM1331.7 686.432C1328.37 686.432 1325.37 685.1 1322.7 682.436L1324.57 680.384C1326.95 682.688 1329.34 683.84 1331.74 683.84C1333.54 683.84 1335 683.312 1336.13 682.256C1337.26 681.2 1337.82 679.844 1337.82 678.188C1337.82 676.628 1337.23 675.356 1336.06 674.372C1334.91 673.388 1333.41 672.896 1331.56 672.896C1329.83 672.896 1328.07 673.376 1326.27 674.336L1324.36 673.076L1325.08 660.8H1339.59V663.428H1327.56L1327.02 671.492C1328.73 670.748 1330.38 670.376 1331.99 670.376C1334.51 670.376 1336.59 671.084 1338.22 672.5C1339.87 673.892 1340.7 675.776 1340.7 678.152C1340.7 680.6 1339.86 682.592 1338.18 684.128C1336.5 685.664 1334.34 686.432 1331.7 686.432ZM1356.3 671.492C1355.22 672.764 1353.85 673.4 1352.2 673.4C1350.54 673.4 1349.17 672.776 1348.09 671.528C1347.04 670.256 1346.51 668.732 1346.51 666.956C1346.51 665.204 1347.05 663.692 1348.13 662.42C1349.21 661.148 1350.59 660.512 1352.27 660.512C1353.93 660.512 1355.28 661.148 1356.34 662.42C1357.39 663.668 1357.92 665.18 1357.92 666.956C1357.92 668.708 1357.38 670.22 1356.3 671.492ZM1349.1 686L1367.61 660.8H1370.16L1351.69 686H1349.1ZM1367.03 686.288C1365.37 686.288 1364.02 685.664 1362.96 684.416C1361.91 683.144 1361.38 681.62 1361.38 679.844C1361.38 678.092 1361.92 676.58 1363 675.308C1364.08 674.036 1365.45 673.4 1367.1 673.4C1368.76 673.4 1370.11 674.036 1371.17 675.308C1372.23 676.556 1372.75 678.068 1372.75 679.844C1372.75 681.62 1372.21 683.144 1371.13 684.416C1370.08 685.664 1368.71 686.288 1367.03 686.288ZM1352.27 671.384C1353.23 671.384 1354.01 670.964 1354.61 670.124C1355.23 669.26 1355.55 668.204 1355.55 666.956C1355.55 665.708 1355.22 664.664 1354.57 663.824C1353.93 662.96 1353.13 662.528 1352.2 662.528C1351.24 662.528 1350.45 662.96 1349.82 663.824C1349.22 664.664 1348.92 665.708 1348.92 666.956C1348.92 668.204 1349.25 669.26 1349.89 670.124C1350.54 670.964 1351.33 671.384 1352.27 671.384ZM1367.1 684.272C1368.09 684.272 1368.88 683.852 1369.48 683.012C1370.08 682.172 1370.38 681.116 1370.38 679.844C1370.38 678.596 1370.05 677.552 1369.41 676.712C1368.76 675.848 1367.97 675.416 1367.03 675.416C1366.07 675.416 1365.28 675.848 1364.65 676.712C1364.05 677.552 1363.75 678.596 1363.75 679.844C1363.75 681.092 1364.08 682.148 1364.73 683.012C1365.37 683.852 1366.17 684.272 1367.1 684.272Z" fill="#3042FF"/>
<path d="M1090.81 29V26.804L1099.95 18.74C1101.92 17.012 1103.29 15.572 1104.06 14.42C1104.82 13.268 1105.21 12.068 1105.21 10.82C1105.21 9.38 1104.72 8.216 1103.73 7.328C1102.75 6.44 1101.55 5.996 1100.13 5.996C1098.76 5.996 1097.55 6.344 1096.5 7.04C1095.46 7.736 1094.42 8.828 1093.36 10.316L1091.28 8.804C1092.5 6.98 1093.8 5.636 1095.16 4.772C1096.53 3.884 1098.26 3.44 1100.35 3.44C1102.6 3.44 1104.46 4.124 1105.93 5.492C1107.42 6.836 1108.16 8.552 1108.16 10.64C1108.16 12.368 1107.69 13.904 1106.76 15.248C1105.82 16.592 1104.16 18.32 1101.79 20.432L1095.06 26.408H1108.41V29H1090.81ZM1115.2 29V25.22H1118.51V29H1115.2ZM1133.96 29.432C1130.63 29.432 1127.63 28.1 1124.96 25.436L1126.83 23.384C1129.21 25.688 1131.6 26.84 1134 26.84C1135.8 26.84 1137.26 26.312 1138.39 25.256C1139.52 24.2 1140.08 22.844 1140.08 21.188C1140.08 19.628 1139.49 18.356 1138.32 17.372C1137.17 16.388 1135.67 15.896 1133.82 15.896C1132.09 15.896 1130.33 16.376 1128.53 17.336L1126.62 16.076L1127.34 3.8H1141.85V6.428H1129.82L1129.28 14.492C1130.99 13.748 1132.64 13.376 1134.25 13.376C1136.77 13.376 1138.85 14.084 1140.48 15.5C1142.13 16.892 1142.96 18.776 1142.96 21.152C1142.96 23.6 1142.12 25.592 1140.44 27.128C1138.76 28.664 1136.6 29.432 1133.96 29.432ZM1158.56 14.492C1157.48 15.764 1156.11 16.4 1154.46 16.4C1152.8 16.4 1151.43 15.776 1150.35 14.528C1149.3 13.256 1148.77 11.732 1148.77 9.956C1148.77 8.204 1149.31 6.692 1150.39 5.42C1151.47 4.148 1152.85 3.512 1154.53 3.512C1156.19 3.512 1157.54 4.148 1158.6 5.42C1159.65 6.668 1160.18 8.18 1160.18 9.956C1160.18 11.708 1159.64 13.22 1158.56 14.492ZM1151.36 29L1169.87 3.8H1172.42L1153.95 29H1151.36ZM1169.29 29.288C1167.63 29.288 1166.28 28.664 1165.22 27.416C1164.17 26.144 1163.64 24.62 1163.64 22.844C1163.64 21.092 1164.18 19.58 1165.26 18.308C1166.34 17.036 1167.71 16.4 1169.36 16.4C1171.02 16.4 1172.37 17.036 1173.43 18.308C1174.49 19.556 1175.01 21.068 1175.01 22.844C1175.01 24.62 1174.47 26.144 1173.39 27.416C1172.34 28.664 1170.97 29.288 1169.29 29.288ZM1154.53 14.384C1155.49 14.384 1156.27 13.964 1156.87 13.124C1157.49 12.26 1157.81 11.204 1157.81 9.956C1157.81 8.708 1157.48 7.664 1156.83 6.824C1156.19 5.96 1155.39 5.528 1154.46 5.528C1153.5 5.528 1152.71 5.96 1152.08 6.824C1151.48 7.664 1151.18 8.708 1151.18 9.956C1151.18 11.204 1151.51 12.26 1152.15 13.124C1152.8 13.964 1153.59 14.384 1154.53 14.384ZM1169.36 27.272C1170.35 27.272 1171.14 26.852 1171.74 26.012C1172.34 25.172 1172.64 24.116 1172.64 22.844C1172.64 21.596 1172.31 20.552 1171.67 19.712C1171.02 18.848 1170.23 18.416 1169.29 18.416C1168.33 18.416 1167.54 18.848 1166.91 19.712C1166.31 20.552 1166.01 21.596 1166.01 22.844C1166.01 24.092 1166.34 25.148 1166.99 26.012C1167.63 26.852 1168.43 27.272 1169.36 27.272Z" fill="#E7FF53"/>
<path d="M88.1292 686V683.804L97.2732 675.74C99.2412 674.012 100.609 672.572 101.377 671.42C102.145 670.268 102.529 669.068 102.529 667.82C102.529 666.38 102.037 665.216 101.053 664.328C100.069 663.44 98.8692 662.996 97.4532 662.996C96.0852 662.996 94.8732 663.344 93.8172 664.04C92.7852 664.736 91.7412 665.828 90.6852 667.316L88.5972 665.804C89.8212 663.98 91.1172 662.636 92.4852 661.772C93.8532 660.884 95.5812 660.44 97.6692 660.44C99.9252 660.44 101.785 661.124 103.249 662.492C104.737 663.836 105.481 665.552 105.481 667.64C105.481 669.368 105.013 670.904 104.077 672.248C103.141 673.592 101.485 675.32 99.1092 677.432L92.3772 683.408H105.733V686H88.1292ZM114.262 686L125.638 663.392H111.778V660.8H128.878V662.924L117.43 686H114.262ZM144.239 671.492C143.159 672.764 141.791 673.4 140.135 673.4C138.479 673.4 137.111 672.776 136.031 671.528C134.975 670.256 134.447 668.732 134.447 666.956C134.447 665.204 134.987 663.692 136.067 662.42C137.147 661.148 138.527 660.512 140.207 660.512C141.863 660.512 143.219 661.148 144.275 662.42C145.331 663.668 145.859 665.18 145.859 666.956C145.859 668.708 145.319 670.22 144.239 671.492ZM137.039 686L155.543 660.8H158.099L139.631 686H137.039ZM154.967 686.288C153.311 686.288 151.955 685.664 150.899 684.416C149.843 683.144 149.315 681.62 149.315 679.844C149.315 678.092 149.855 676.58 150.935 675.308C152.015 674.036 153.383 673.4 155.039 673.4C156.695 673.4 158.051 674.036 159.107 675.308C160.163 676.556 160.691 678.068 160.691 679.844C160.691 681.62 160.151 683.144 159.071 684.416C158.015 685.664 156.647 686.288 154.967 686.288ZM140.207 671.384C141.167 671.384 141.947 670.964 142.547 670.124C143.171 669.26 143.483 668.204 143.483 666.956C143.483 665.708 143.159 664.664 142.511 663.824C141.863 662.96 141.071 662.528 140.135 662.528C139.175 662.528 138.383 662.96 137.759 663.824C137.159 664.664 136.859 665.708 136.859 666.956C136.859 668.204 137.183 669.26 137.831 670.124C138.479 670.964 139.271 671.384 140.207 671.384ZM155.039 684.272C156.023 684.272 156.815 683.852 157.415 683.012C158.015 682.172 158.315 681.116 158.315 679.844C158.315 678.596 157.991 677.552 157.343 676.712C156.695 675.848 155.903 675.416 154.967 675.416C154.007 675.416 153.215 675.848 152.591 676.712C151.991 677.552 151.691 678.596 151.691 679.844C151.691 681.092 152.015 682.148 152.663 683.012C153.311 683.852 154.103 684.272 155.039 684.272Z" fill="#E128FF"/>
<path d="M271.886 845V842.804L281.03 834.74C282.998 833.012 284.366 831.572 285.134 830.42C285.902 829.268 286.286 828.068 286.286 826.82C286.286 825.38 285.794 824.216 284.81 823.328C283.826 822.44 282.626 821.996 281.21 821.996C279.842 821.996 278.63 822.344 277.574 823.04C276.542 823.736 275.498 824.828 274.442 826.316L272.354 824.804C273.578 822.98 274.874 821.636 276.242 820.772C277.61 819.884 279.338 819.44 281.426 819.44C283.682 819.44 285.542 820.124 287.006 821.492C288.494 822.836 289.238 824.552 289.238 826.64C289.238 828.368 288.77 829.904 287.834 831.248C286.898 832.592 285.242 834.32 282.866 836.432L276.134 842.408H289.49V845H271.886ZM304.417 845.432C301.081 845.432 298.081 844.1 295.417 841.436L297.289 839.384C299.665 841.688 302.053 842.84 304.453 842.84C306.253 842.84 307.717 842.312 308.845 841.256C309.973 840.2 310.537 838.844 310.537 837.188C310.537 835.628 309.949 834.356 308.773 833.372C307.621 832.388 306.121 831.896 304.273 831.896C302.545 831.896 300.781 832.376 298.981 833.336L297.073 832.076L297.793 819.8H312.301V822.428H300.277L299.737 830.492C301.441 829.748 303.097 829.376 304.705 829.376C307.225 829.376 309.301 830.084 310.933 831.5C312.589 832.892 313.417 834.776 313.417 837.152C313.417 839.6 312.577 841.592 310.897 843.128C309.217 844.664 307.057 845.432 304.417 845.432ZM320.124 845V841.22H323.436V845H320.124ZM338.884 845.432C335.548 845.432 332.548 844.1 329.884 841.436L331.756 839.384C334.132 841.688 336.52 842.84 338.92 842.84C340.72 842.84 342.184 842.312 343.312 841.256C344.44 840.2 345.004 838.844 345.004 837.188C345.004 835.628 344.416 834.356 343.24 833.372C342.088 832.388 340.588 831.896 338.74 831.896C337.012 831.896 335.248 832.376 333.448 833.336L331.54 832.076L332.26 819.8H346.768V822.428H334.744L334.204 830.492C335.908 829.748 337.564 829.376 339.172 829.376C341.692 829.376 343.768 830.084 345.4 831.5C347.056 832.892 347.884 834.776 347.884 837.152C347.884 839.6 347.044 841.592 345.364 843.128C343.684 844.664 341.524 845.432 338.884 845.432ZM363.483 830.492C362.403 831.764 361.035 832.4 359.379 832.4C357.723 832.4 356.355 831.776 355.275 830.528C354.219 829.256 353.691 827.732 353.691 825.956C353.691 824.204 354.231 822.692 355.311 821.42C356.391 820.148 357.771 819.512 359.451 819.512C361.107 819.512 362.463 820.148 363.519 821.42C364.575 822.668 365.103 824.18 365.103 825.956C365.103 827.708 364.563 829.22 363.483 830.492ZM356.283 845L374.787 819.8H377.343L358.875 845H356.283ZM374.211 845.288C372.555 845.288 371.199 844.664 370.143 843.416C369.087 842.144 368.559 840.62 368.559 838.844C368.559 837.092 369.099 835.58 370.179 834.308C371.259 833.036 372.627 832.4 374.283 832.4C375.939 832.4 377.295 833.036 378.351 834.308C379.407 835.556 379.935 837.068 379.935 838.844C379.935 840.62 379.395 842.144 378.315 843.416C377.259 844.664 375.891 845.288 374.211 845.288ZM359.451 830.384C360.411 830.384 361.191 829.964 361.791 829.124C362.415 828.26 362.727 827.204 362.727 825.956C362.727 824.708 362.403 823.664 361.755 822.824C361.107 821.96 360.315 821.528 359.379 821.528C358.419 821.528 357.627 821.96 357.003 822.824C356.403 823.664 356.103 824.708 356.103 825.956C356.103 827.204 356.427 828.26 357.075 829.124C357.723 829.964 358.515 830.384 359.451 830.384ZM374.283 843.272C375.267 843.272 376.059 842.852 376.659 842.012C377.259 841.172 377.559 840.116 377.559 838.844C377.559 837.596 377.235 836.552 376.587 835.712C375.939 834.848 375.147 834.416 374.211 834.416C373.251 834.416 372.459 834.848 371.835 835.712C371.235 836.552 370.935 837.596 370.935 838.844C370.935 840.092 371.259 841.148 371.907 842.012C372.555 842.852 373.347 843.272 374.283 843.272Z" fill="#60FF28"/>
<path d="M38.0409 487V484.804L47.1849 476.74C49.1529 475.012 50.5209 473.572 51.2889 472.42C52.0569 471.268 52.4409 470.068 52.4409 468.82C52.4409 467.38 51.9489 466.216 50.9649 465.328C49.9809 464.44 48.7809 463.996 47.3649 463.996C45.9969 463.996 44.7849 464.344 43.7289 465.04C42.6969 465.736 41.6529 466.828 40.5969 468.316L38.5089 466.804C39.7329 464.98 41.0289 463.636 42.3969 462.772C43.7649 461.884 45.4929 461.44 47.5809 461.44C49.8369 461.44 51.6969 462.124 53.1609 463.492C54.6489 464.836 55.3929 466.552 55.3929 468.64C55.3929 470.368 54.9249 471.904 53.9889 473.248C53.0529 474.592 51.3969 476.32 49.0209 478.432L42.2889 484.408H55.6449V487H38.0409ZM71.3277 472.492C70.2477 473.764 68.8797 474.4 67.2237 474.4C65.5677 474.4 64.1997 473.776 63.1197 472.528C62.0637 471.256 61.5357 469.732 61.5357 467.956C61.5357 466.204 62.0757 464.692 63.1557 463.42C64.2357 462.148 65.6157 461.512 67.2957 461.512C68.9517 461.512 70.3077 462.148 71.3637 463.42C72.4197 464.668 72.9477 466.18 72.9477 467.956C72.9477 469.708 72.4077 471.22 71.3277 472.492ZM64.1277 487L82.6317 461.8H85.1877L66.7197 487H64.1277ZM82.0557 487.288C80.3997 487.288 79.0437 486.664 77.9877 485.416C76.9317 484.144 76.4037 482.62 76.4037 480.844C76.4037 479.092 76.9437 477.58 78.0237 476.308C79.1037 475.036 80.4717 474.4 82.1277 474.4C83.7837 474.4 85.1397 475.036 86.1957 476.308C87.2517 477.556 87.7797 479.068 87.7797 480.844C87.7797 482.62 87.2397 484.144 86.1597 485.416C85.1037 486.664 83.7357 487.288 82.0557 487.288ZM67.2957 472.384C68.2557 472.384 69.0357 471.964 69.6357 471.124C70.2597 470.26 70.5717 469.204 70.5717 467.956C70.5717 466.708 70.2477 465.664 69.5997 464.824C68.9517 463.96 68.1597 463.528 67.2237 463.528C66.2637 463.528 65.4717 463.96 64.8477 464.824C64.2477 465.664 63.9477 466.708 63.9477 467.956C63.9477 469.204 64.2717 470.26 64.9197 471.124C65.5677 471.964 66.3597 472.384 67.2957 472.384ZM82.1277 485.272C83.1117 485.272 83.9037 484.852 84.5037 484.012C85.1037 483.172 85.4037 482.116 85.4037 480.844C85.4037 479.596 85.0797 478.552 84.4317 477.712C83.7837 476.848 82.9917 476.416 82.0557 476.416C81.0957 476.416 80.3037 476.848 79.6797 477.712C79.0797 478.552 78.7797 479.596 78.7797 480.844C78.7797 482.092 79.1037 483.148 79.7517 484.012C80.3997 484.852 81.1917 485.272 82.1277 485.272Z" fill="#FFD028"/>
<path d="M93.0409 247V244.804L102.185 236.74C104.153 235.012 105.521 233.572 106.289 232.42C107.057 231.268 107.441 230.068 107.441 228.82C107.441 227.38 106.949 226.216 105.965 225.328C104.981 224.44 103.781 223.996 102.365 223.996C100.997 223.996 99.7849 224.344 98.7289 225.04C97.6969 225.736 96.6529 226.828 95.5969 228.316L93.5089 226.804C94.7329 224.98 96.0289 223.636 97.3969 222.772C98.7649 221.884 100.493 221.44 102.581 221.44C104.837 221.44 106.697 222.124 108.161 223.492C109.649 224.836 110.393 226.552 110.393 228.64C110.393 230.368 109.925 231.904 108.989 233.248C108.053 234.592 106.397 236.32 104.021 238.432L97.2889 244.408H110.645V247H93.0409ZM126.328 232.492C125.248 233.764 123.88 234.4 122.224 234.4C120.568 234.4 119.2 233.776 118.12 232.528C117.064 231.256 116.536 229.732 116.536 227.956C116.536 226.204 117.076 224.692 118.156 223.42C119.236 222.148 120.616 221.512 122.296 221.512C123.952 221.512 125.308 222.148 126.364 223.42C127.42 224.668 127.948 226.18 127.948 227.956C127.948 229.708 127.408 231.22 126.328 232.492ZM119.128 247L137.632 221.8H140.188L121.72 247H119.128ZM137.056 247.288C135.4 247.288 134.044 246.664 132.988 245.416C131.932 244.144 131.404 242.62 131.404 240.844C131.404 239.092 131.944 237.58 133.024 236.308C134.104 235.036 135.472 234.4 137.128 234.4C138.784 234.4 140.14 235.036 141.196 236.308C142.252 237.556 142.78 239.068 142.78 240.844C142.78 242.62 142.24 244.144 141.16 245.416C140.104 246.664 138.736 247.288 137.056 247.288ZM122.296 232.384C123.256 232.384 124.036 231.964 124.636 231.124C125.26 230.26 125.572 229.204 125.572 227.956C125.572 226.708 125.248 225.664 124.6 224.824C123.952 223.96 123.16 223.528 122.224 223.528C121.264 223.528 120.472 223.96 119.848 224.824C119.248 225.664 118.948 226.708 118.948 227.956C118.948 229.204 119.272 230.26 119.92 231.124C120.568 231.964 121.36 232.384 122.296 232.384ZM137.128 245.272C138.112 245.272 138.904 244.852 139.504 244.012C140.104 243.172 140.404 242.116 140.404 240.844C140.404 239.596 140.08 238.552 139.432 237.712C138.784 236.848 137.992 236.416 137.056 236.416C136.096 236.416 135.304 236.848 134.68 237.712C134.08 238.552 133.78 239.596 133.78 240.844C133.78 242.092 134.104 243.148 134.752 244.012C135.4 244.852 136.192 245.272 137.128 245.272Z" fill="#5AAB28"/>
<circle opacity="0.1" cx="718.5" cy="467.5" r="252.5" stroke="white" stroke-width="172" stroke-dasharray="1 30"/>
<g filter="url(#filter0_i_1469_80)">
<path d="M1057 467.5C1057 654.448 905.448 806 718.5 806C531.552 806 380 654.448 380 467.5C380 280.552 531.552 129 718.5 129C905.448 129 1057 280.552 1057 467.5ZM426.895 467.5C426.895 628.549 557.451 759.105 718.5 759.105C879.549 759.105 1010.1 628.549 1010.1 467.5C1010.1 306.451 879.549 175.895 718.5 175.895C557.451 175.895 426.895 306.451 426.895 467.5Z" fill="#253CFB"/>
<path d="M1057 467.5C1057 654.448 905.448 806 718.5 806C531.552 806 380 654.448 380 467.5C380 280.552 531.552 129 718.5 129C905.448 129 1057 280.552 1057 467.5ZM426.895 467.5C426.895 628.549 557.451 759.105 718.5 759.105C879.549 759.105 1010.1 628.549 1010.1 467.5C1010.1 306.451 879.549 175.895 718.5 175.895C557.451 175.895 426.895 306.451 426.895 467.5Z" fill="url(#paint0_radial_1469_80)"/>
<path d="M1057 467.5C1057 654.448 905.448 806 718.5 806C531.552 806 380 654.448 380 467.5C380 280.552 531.552 129 718.5 129C905.448 129 1057 280.552 1057 467.5ZM426.895 467.5C426.895 628.549 557.451 759.105 718.5 759.105C879.549 759.105 1010.1 628.549 1010.1 467.5C1010.1 306.451 879.549 175.895 718.5 175.895C557.451 175.895 426.895 306.451 426.895 467.5Z" fill="url(#paint1_radial_1469_80)"/>
<path d="M1057 467.5C1057 654.448 905.448 806 718.5 806C531.552 806 380 654.448 380 467.5C380 280.552 531.552 129 718.5 129C905.448 129 1057 280.552 1057 467.5ZM426.895 467.5C426.895 628.549 557.451 759.105 718.5 759.105C879.549 759.105 1010.1 628.549 1010.1 467.5C1010.1 306.451 879.549 175.895 718.5 175.895C557.451 175.895 426.895 306.451 426.895 467.5Z" fill="url(#paint2_radial_1469_80)"/>
</g>
<path d="M1259.23 290V274.6H1264.99C1266.75 274.6 1268.15 275.04 1269.19 275.92C1270.24 276.8 1270.76 278.003 1270.76 279.528C1270.76 281.127 1270.18 282.366 1269.02 283.246C1267.87 284.126 1266.44 284.566 1264.71 284.566H1260.97V290H1259.23ZM1260.97 282.982H1264.77C1266.05 282.982 1267.07 282.674 1267.83 282.058C1268.61 281.427 1269 280.591 1269 279.55C1269 278.479 1268.62 277.658 1267.87 277.086C1267.14 276.499 1266.14 276.206 1264.86 276.206H1260.97V282.982ZM1275.02 290V274.6H1281.65C1283.54 274.6 1285 275.113 1286.02 276.14C1286.82 276.932 1287.21 277.959 1287.21 279.22C1287.21 280.452 1286.83 281.449 1286.07 282.212C1285.31 282.975 1284.29 283.473 1283.03 283.708L1287.76 290H1285.63L1281.16 284.016H1276.76V290H1275.02ZM1276.76 282.454H1281.49C1282.67 282.454 1283.62 282.168 1284.35 281.596C1285.09 281.024 1285.45 280.239 1285.45 279.242C1285.45 278.289 1285.1 277.548 1284.4 277.02C1283.71 276.477 1282.75 276.206 1281.51 276.206H1276.76V282.454ZM1292.18 290V274.6H1293.91V290H1292.18ZM1304.83 290.11L1298.2 274.6H1300.14L1305.62 287.866L1311.12 274.6H1312.99L1306.37 290.11H1304.83ZM1313.61 290L1320.63 274.49H1322.26L1329.28 290H1327.41L1325.6 285.93H1317.22L1315.4 290H1313.61ZM1317.9 284.368H1324.92L1321.42 276.514L1317.9 284.368ZM1335.51 290V276.206H1330.34V274.6H1342.44V276.206H1337.27V290H1335.51ZM1346.8 290V274.6H1357.94V276.184H1348.54V281.442H1356.95V283.026H1348.54V288.416H1358.05V290H1346.8ZM1375.62 290.22C1373.26 290.22 1371.16 289.399 1369.33 287.756L1370.4 286.48C1371.22 287.228 1372.05 287.778 1372.87 288.13C1373.7 288.482 1374.64 288.658 1375.68 288.658C1376.71 288.658 1377.54 288.416 1378.17 287.932C1378.8 287.433 1379.12 286.788 1379.12 285.996C1379.12 285.248 1378.84 284.654 1378.28 284.214C1377.72 283.774 1376.67 283.393 1375.11 283.07C1373.28 282.674 1371.96 282.139 1371.15 281.464C1370.34 280.789 1369.94 279.829 1369.94 278.582C1369.94 277.365 1370.42 276.36 1371.37 275.568C1372.32 274.776 1373.53 274.38 1375 274.38C1377.04 274.38 1378.84 275.011 1380.41 276.272L1379.4 277.614C1378.04 276.499 1376.56 275.942 1374.96 275.942C1373.97 275.942 1373.18 276.184 1372.58 276.668C1371.98 277.137 1371.68 277.739 1371.68 278.472C1371.68 279.235 1371.97 279.836 1372.54 280.276C1373.12 280.716 1374.23 281.112 1375.86 281.464C1377.6 281.845 1378.87 282.381 1379.67 283.07C1380.47 283.745 1380.88 284.676 1380.88 285.864C1380.88 287.169 1380.38 288.225 1379.4 289.032C1378.42 289.824 1377.16 290.22 1375.62 290.22ZM1383.87 290L1390.89 274.49H1392.51L1399.53 290H1397.66L1395.86 285.93H1387.48L1385.65 290H1383.87ZM1388.16 284.368H1395.18L1391.68 276.514L1388.16 284.368ZM1403.67 290V274.6H1405.41V288.394H1414.07V290H1403.67ZM1418.39 290V274.6H1429.52V276.184H1420.13V281.442H1428.53V283.026H1420.13V288.416H1429.63V290H1418.39Z" fill="white"/>
<path d="M1352.83 486V480.024H1339.55L1338.83 477.972L1353.08 460.62H1355.57V477.648H1359.49V480.024H1355.57V486H1352.83ZM1342.25 477.648H1352.83V464.652L1342.25 477.648ZM1366 486V482.22H1369.31V486H1366ZM1384.76 486.432C1381.43 486.432 1378.43 485.1 1375.76 482.436L1377.64 480.384C1380.01 482.688 1382.4 483.84 1384.8 483.84C1386.6 483.84 1388.06 483.312 1389.19 482.256C1390.32 481.2 1390.88 479.844 1390.88 478.188C1390.88 476.628 1390.3 475.356 1389.12 474.372C1387.97 473.388 1386.47 472.896 1384.62 472.896C1382.89 472.896 1381.13 473.376 1379.33 474.336L1377.42 473.076L1378.14 460.8H1392.65V463.428H1380.62L1380.08 471.492C1381.79 470.748 1383.44 470.376 1385.05 470.376C1387.57 470.376 1389.65 471.084 1391.28 472.5C1392.94 473.892 1393.76 475.776 1393.76 478.152C1393.76 480.6 1392.92 482.592 1391.24 484.128C1389.56 485.664 1387.4 486.432 1384.76 486.432ZM1409.36 471.492C1408.28 472.764 1406.91 473.4 1405.26 473.4C1403.6 473.4 1402.23 472.776 1401.15 471.528C1400.1 470.256 1399.57 468.732 1399.57 466.956C1399.57 465.204 1400.11 463.692 1401.19 462.42C1402.27 461.148 1403.65 460.512 1405.33 460.512C1406.99 460.512 1408.34 461.148 1409.4 462.42C1410.45 463.668 1410.98 465.18 1410.98 466.956C1410.98 468.708 1410.44 470.22 1409.36 471.492ZM1402.16 486L1420.67 460.8H1423.22L1404.75 486H1402.16ZM1420.09 486.288C1418.43 486.288 1417.08 485.664 1416.02 484.416C1414.97 483.144 1414.44 481.62 1414.44 479.844C1414.44 478.092 1414.98 476.58 1416.06 475.308C1417.14 474.036 1418.51 473.4 1420.16 473.4C1421.82 473.4 1423.17 474.036 1424.23 475.308C1425.29 476.556 1425.81 478.068 1425.81 479.844C1425.81 481.62 1425.27 483.144 1424.19 484.416C1423.14 485.664 1421.77 486.288 1420.09 486.288ZM1405.33 471.384C1406.29 471.384 1407.07 470.964 1407.67 470.124C1408.29 469.26 1408.61 468.204 1408.61 466.956C1408.61 465.708 1408.28 464.664 1407.63 463.824C1406.99 462.96 1406.19 462.528 1405.26 462.528C1404.3 462.528 1403.51 462.96 1402.88 463.824C1402.28 464.664 1401.98 465.708 1401.98 466.956C1401.98 468.204 1402.31 469.26 1402.95 470.124C1403.6 470.964 1404.39 471.384 1405.33 471.384ZM1420.16 484.272C1421.15 484.272 1421.94 483.852 1422.54 483.012C1423.14 482.172 1423.44 481.116 1423.44 479.844C1423.44 478.596 1423.11 477.552 1422.47 476.712C1421.82 475.848 1421.03 475.416 1420.09 475.416C1419.13 475.416 1418.34 475.848 1417.71 476.712C1417.11 477.552 1416.81 478.596 1416.81 479.844C1416.81 481.092 1417.14 482.148 1417.79 483.012C1418.43 483.852 1419.23 484.272 1420.16 484.272Z" fill="#FF5656"/>
<path d="M1304.37 529V513.6H1310.13C1311.89 513.6 1313.29 514.04 1314.34 514.92C1315.38 515.8 1315.9 517.003 1315.9 518.528C1315.9 520.127 1315.32 521.366 1314.16 522.246C1313.02 523.126 1311.58 523.566 1309.85 523.566H1306.11V529H1304.37ZM1306.11 521.982H1309.91C1311.19 521.982 1312.21 521.674 1312.97 521.058C1313.75 520.427 1314.14 519.591 1314.14 518.55C1314.14 517.479 1313.76 516.658 1313.02 516.086C1312.28 515.499 1311.28 515.206 1310 515.206H1306.11V521.982ZM1326.32 529.242C1324.37 529.242 1322.82 528.663 1321.66 527.504C1320.5 526.331 1319.92 524.681 1319.92 522.554V513.6H1321.66V522.444C1321.66 524.101 1322.07 525.385 1322.89 526.294C1323.73 527.189 1324.89 527.636 1326.37 527.636C1327.82 527.636 1328.96 527.203 1329.78 526.338C1330.6 525.473 1331.01 524.211 1331.01 522.554V513.6H1332.75V522.422C1332.75 524.622 1332.17 526.309 1331.01 527.482C1329.85 528.655 1328.29 529.242 1326.32 529.242ZM1337.96 529V513.6H1344.51C1346.32 513.6 1347.66 514.055 1348.54 514.964C1349.2 515.653 1349.53 516.489 1349.53 517.472C1349.53 519.144 1348.72 520.332 1347.09 521.036C1349.29 521.696 1350.39 522.95 1350.39 524.798C1350.39 526.103 1349.88 527.13 1348.87 527.878C1347.86 528.626 1346.5 529 1344.8 529H1337.96ZM1339.67 520.464H1344.23C1345.3 520.464 1346.16 520.222 1346.8 519.738C1347.45 519.254 1347.77 518.565 1347.77 517.67C1347.77 516.893 1347.47 516.284 1346.87 515.844C1346.28 515.389 1345.45 515.162 1344.36 515.162H1339.67V520.464ZM1339.67 527.438H1344.84C1346.02 527.438 1346.94 527.196 1347.62 526.712C1348.29 526.213 1348.63 525.524 1348.63 524.644C1348.63 523.793 1348.28 523.141 1347.57 522.686C1346.88 522.231 1345.87 522.004 1344.54 522.004H1339.67V527.438ZM1354.94 529V513.6H1356.67V527.394H1365.34V529H1354.94ZM1369.81 529V513.6H1371.55V529H1369.81ZM1384.2 529.264C1381.98 529.264 1380.14 528.501 1378.68 526.976C1377.21 525.436 1376.48 523.544 1376.48 521.3C1376.48 519.085 1377.22 517.208 1378.7 515.668C1380.18 514.113 1382.04 513.336 1384.26 513.336C1385.56 513.336 1386.66 513.549 1387.56 513.974C1388.47 514.385 1389.36 515.001 1390.23 515.822L1389.08 517.054C1387.6 515.646 1385.99 514.942 1384.24 514.942C1382.54 514.942 1381.12 515.551 1379.97 516.768C1378.85 517.985 1378.28 519.496 1378.28 521.3C1378.28 523.089 1378.85 524.6 1380 525.832C1381.14 527.049 1382.56 527.658 1384.24 527.658C1385.24 527.658 1386.12 527.475 1386.88 527.108C1387.65 526.741 1388.42 526.184 1389.21 525.436L1390.36 526.646C1389.49 527.511 1388.58 528.164 1387.63 528.604C1386.68 529.044 1385.53 529.264 1384.2 529.264ZM1407.48 529.22C1405.12 529.22 1403.02 528.399 1401.18 526.756L1402.26 525.48C1403.08 526.228 1403.91 526.778 1404.73 527.13C1405.56 527.482 1406.5 527.658 1407.54 527.658C1408.57 527.658 1409.4 527.416 1410.03 526.932C1410.66 526.433 1410.97 525.788 1410.97 524.996C1410.97 524.248 1410.7 523.654 1410.14 523.214C1409.58 522.774 1408.53 522.393 1406.97 522.07C1405.14 521.674 1403.82 521.139 1403.01 520.464C1402.2 519.789 1401.8 518.829 1401.8 517.582C1401.8 516.365 1402.28 515.36 1403.23 514.568C1404.18 513.776 1405.39 513.38 1406.86 513.38C1408.9 513.38 1410.7 514.011 1412.27 515.272L1411.26 516.614C1409.9 515.499 1408.42 514.942 1406.82 514.942C1405.83 514.942 1405.04 515.184 1404.44 515.668C1403.84 516.137 1403.54 516.739 1403.54 517.472C1403.54 518.235 1403.82 518.836 1404.4 519.276C1404.98 519.716 1406.09 520.112 1407.72 520.464C1409.46 520.845 1410.73 521.381 1411.52 522.07C1412.33 522.745 1412.73 523.676 1412.73 524.864C1412.73 526.169 1412.24 527.225 1411.26 528.032C1410.28 528.824 1409.02 529.22 1407.48 529.22ZM1415.73 529L1422.74 513.49H1424.37L1431.39 529H1429.52L1427.72 524.93H1419.33L1417.51 529H1415.73ZM1420.02 523.368H1427.03L1423.54 515.514L1420.02 523.368ZM1435.53 529V513.6H1437.27V527.394H1445.93V529H1435.53ZM1450.25 529V513.6H1461.38V515.184H1451.99V520.442H1460.39V522.026H1451.99V527.416H1461.49V529H1450.25Z" fill="white"/>
<path d="M39.1143 290.264C36.8996 290.264 35.059 289.501 33.5923 287.976C32.1256 286.436 31.3923 284.544 31.3923 282.3C31.3923 280.085 32.133 278.208 33.6143 276.668C35.0956 275.113 36.951 274.336 39.1803 274.336C40.471 274.336 41.571 274.549 42.4803 274.974C43.3896 275.385 44.277 276.001 45.1423 276.822L43.9983 278.054C42.517 276.646 40.9036 275.942 39.1583 275.942C37.457 275.942 36.0343 276.551 34.8903 277.768C33.761 278.985 33.1963 280.496 33.1963 282.3C33.1963 284.089 33.7683 285.6 34.9123 286.832C36.0563 288.049 37.4716 288.658 39.1583 288.658C40.1556 288.658 41.0356 288.475 41.7983 288.108C42.561 287.741 43.3383 287.184 44.1303 286.436L45.2743 287.646C44.409 288.511 43.4996 289.164 42.5463 289.604C41.593 290.044 40.449 290.264 39.1143 290.264ZM61.7908 287.932C60.3095 289.487 58.4248 290.264 56.1368 290.264C53.8488 290.264 51.9715 289.487 50.5048 287.932C49.0381 286.377 48.3048 284.5 48.3048 282.3C48.3048 280.115 49.0455 278.245 50.5268 276.69C52.0081 275.121 53.8928 274.336 56.1808 274.336C58.4688 274.336 60.3461 275.113 61.8128 276.668C63.2795 278.223 64.0128 280.1 64.0128 282.3C64.0128 284.485 63.2721 286.363 61.7908 287.932ZM51.8248 286.81C52.9835 288.042 54.4355 288.658 56.1808 288.658C57.9261 288.658 59.3635 288.049 60.4928 286.832C61.6368 285.6 62.2088 284.089 62.2088 282.3C62.2088 280.525 61.6295 279.022 60.4708 277.79C59.3268 276.558 57.8821 275.942 56.1368 275.942C54.3915 275.942 52.9468 276.558 51.8028 277.79C50.6735 279.007 50.1088 280.511 50.1088 282.3C50.1088 284.075 50.6808 285.578 51.8248 286.81ZM68.7782 290V274.6H70.5382L76.1482 283.004L81.7582 274.6H83.5182V290H81.7802V277.526L76.1702 285.776H76.0822L70.4722 277.548V290H68.7782ZM88.9778 290V274.6H90.7378L96.3478 283.004L101.958 274.6H103.718V290H101.98V277.526L96.3698 285.776H96.2818L90.6718 277.548V290H88.9778ZM115.337 290.242C113.387 290.242 111.832 289.663 110.673 288.504C109.515 287.331 108.935 285.681 108.935 283.554V274.6H110.673V283.444C110.673 285.101 111.084 286.385 111.905 287.294C112.741 288.189 113.9 288.636 115.381 288.636C116.833 288.636 117.97 288.203 118.791 287.338C119.613 286.473 120.023 285.211 120.023 283.554V274.6H121.761V283.422C121.761 285.622 121.182 287.309 120.023 288.482C118.865 289.655 117.303 290.242 115.337 290.242ZM126.971 290V274.6H128.599L138.301 286.942V274.6H139.995V290H138.609L128.665 277.372V290H126.971ZM145.606 290V274.6H147.344V290H145.606ZM157.024 290V276.206H151.854V274.6H163.954V276.206H158.784V290H157.024ZM173.138 290V283.906L166.736 274.6H168.848L174.04 282.3L179.276 274.6H181.3L174.898 283.884V290H173.138ZM203.973 290.308L201.553 287.822C200.072 289.421 198.393 290.22 196.515 290.22C195.107 290.22 193.949 289.817 193.039 289.01C192.13 288.203 191.675 287.155 191.675 285.864C191.675 283.869 192.915 282.388 195.393 281.42C194.851 280.789 194.455 280.217 194.205 279.704C193.971 279.176 193.853 278.604 193.853 277.988C193.853 276.961 194.227 276.096 194.975 275.392C195.738 274.688 196.721 274.336 197.923 274.336C198.994 274.336 199.881 274.681 200.585 275.37C201.304 276.045 201.663 276.873 201.663 277.856C201.663 279.675 200.453 281.009 198.033 281.86L201.553 285.446C202.213 284.493 202.829 283.349 203.401 282.014L204.831 282.674C204.054 284.331 203.313 285.622 202.609 286.546L205.293 289.296L203.973 290.308ZM197.065 280.87C199.045 280.195 200.035 279.205 200.035 277.9C200.035 277.284 199.83 276.778 199.419 276.382C199.009 275.971 198.488 275.766 197.857 275.766C197.168 275.766 196.603 275.979 196.163 276.404C195.738 276.829 195.525 277.372 195.525 278.032C195.525 278.487 195.635 278.919 195.855 279.33C196.075 279.726 196.479 280.239 197.065 280.87ZM196.647 288.746C197.997 288.746 199.28 288.079 200.497 286.744L196.383 282.498C195.401 282.865 194.66 283.341 194.161 283.928C193.677 284.5 193.435 285.138 193.435 285.842C193.435 286.678 193.736 287.375 194.337 287.932C194.939 288.475 195.709 288.746 196.647 288.746ZM55.384 312L62.402 296.49H64.03L71.048 312H69.178L67.374 307.93H58.992L57.166 312H55.384ZM59.674 306.368H66.692L63.194 298.514L59.674 306.368ZM75.3388 312V296.6H77.0768V312H75.3388ZM82.6872 312V296.6H89.3092C91.2012 296.6 92.6605 297.113 93.6872 298.14C94.4792 298.932 94.8752 299.959 94.8752 301.22C94.8752 302.452 94.4938 303.449 93.7312 304.212C92.9685 304.975 91.9565 305.473 90.6952 305.708L95.4252 312H93.2912L88.8252 306.016H84.4252V312H82.6872ZM84.4252 304.454H89.1552C90.3285 304.454 91.2818 304.168 92.0152 303.596C92.7485 303.024 93.1152 302.239 93.1152 301.242C93.1152 300.289 92.7632 299.548 92.0592 299.02C91.3698 298.477 90.4092 298.206 89.1772 298.206H84.4252V304.454ZM99.6856 312V296.6H105.032C107.437 296.6 109.402 297.333 110.928 298.8C112.453 300.252 113.216 302.085 113.216 304.3C113.216 306.5 112.446 308.333 110.906 309.8C109.38 311.267 107.422 312 105.032 312H99.6856ZM101.424 310.394H105.032C106.953 310.394 108.493 309.822 109.652 308.678C110.825 307.519 111.412 306.06 111.412 304.3C111.412 302.555 110.825 301.103 109.652 299.944C108.478 298.785 106.938 298.206 105.032 298.206H101.424V310.394ZM117.995 312V296.6H124.617C126.509 296.6 127.968 297.113 128.995 298.14C129.787 298.932 130.183 299.959 130.183 301.22C130.183 302.452 129.801 303.449 129.039 304.212C128.276 304.975 127.264 305.473 126.003 305.708L130.733 312H128.599L124.133 306.016H119.733V312H117.995ZM119.733 304.454H124.463C125.636 304.454 126.589 304.168 127.323 303.596C128.056 303.024 128.423 302.239 128.423 301.242C128.423 300.289 128.071 299.548 127.367 299.02C126.677 298.477 125.717 298.206 124.485 298.206H119.733V304.454ZM147.797 309.932C146.316 311.487 144.431 312.264 142.143 312.264C139.855 312.264 137.978 311.487 136.511 309.932C135.044 308.377 134.311 306.5 134.311 304.3C134.311 302.115 135.052 300.245 136.533 298.69C138.014 297.121 139.899 296.336 142.187 296.336C144.475 296.336 146.352 297.113 147.819 298.668C149.286 300.223 150.019 302.1 150.019 304.3C150.019 306.485 149.278 308.363 147.797 309.932ZM137.831 308.81C138.99 310.042 140.442 310.658 142.187 310.658C143.932 310.658 145.37 310.049 146.499 308.832C147.643 307.6 148.215 306.089 148.215 304.3C148.215 302.525 147.636 301.022 146.477 299.79C145.333 298.558 143.888 297.942 142.143 297.942C140.398 297.942 138.953 298.558 137.809 299.79C136.68 301.007 136.115 302.511 136.115 304.3C136.115 306.075 136.687 307.578 137.831 308.81ZM154.784 312V296.6H160.548C162.308 296.6 163.709 297.04 164.75 297.92C165.792 298.8 166.312 300.003 166.312 301.528C166.312 303.127 165.733 304.366 164.574 305.246C163.43 306.126 161.993 306.566 160.262 306.566H156.522V312H154.784ZM156.522 304.982H160.328C161.604 304.982 162.624 304.674 163.386 304.058C164.164 303.427 164.552 302.591 164.552 301.55C164.552 300.479 164.178 299.658 163.43 299.086C162.697 298.499 161.692 298.206 160.416 298.206H156.522V304.982ZM175.86 312.22C173.498 312.22 171.401 311.399 169.568 309.756L170.646 308.48C171.467 309.228 172.288 309.778 173.11 310.13C173.946 310.482 174.884 310.658 175.926 310.658C176.952 310.658 177.781 310.416 178.412 309.932C179.042 309.433 179.358 308.788 179.358 307.996C179.358 307.248 179.079 306.654 178.522 306.214C177.964 305.774 176.908 305.393 175.354 305.07C173.52 304.674 172.2 304.139 171.394 303.464C170.587 302.789 170.184 301.829 170.184 300.582C170.184 299.365 170.66 298.36 171.614 297.568C172.567 296.776 173.777 296.38 175.244 296.38C177.282 296.38 179.086 297.011 180.656 298.272L179.644 299.614C178.28 298.499 176.798 297.942 175.2 297.942C174.217 297.942 173.425 298.184 172.824 298.668C172.222 299.137 171.922 299.739 171.922 300.472C171.922 301.235 172.208 301.836 172.78 302.276C173.366 302.716 174.474 303.112 176.102 303.464C177.847 303.845 179.116 304.381 179.908 305.07C180.714 305.745 181.118 306.676 181.118 307.864C181.118 309.169 180.626 310.225 179.644 311.032C178.661 311.824 177.4 312.22 175.86 312.22Z" fill="white"/>
<path d="M0.888861 529L7.90686 513.49H9.53486L16.5529 529H14.6829L12.8789 524.93H4.49686L2.67086 529H0.888861ZM5.17886 523.368H12.1969L8.69886 515.514L5.17886 523.368ZM20.6897 529V513.6H26.0357C28.4411 513.6 30.4064 514.333 31.9317 515.8C33.4571 517.252 34.2197 519.085 34.2197 521.3C34.2197 523.5 33.4497 525.333 31.9097 526.8C30.3844 528.267 28.4264 529 26.0357 529H20.6897ZM22.4277 527.394H26.0357C27.9571 527.394 29.4971 526.822 30.6557 525.678C31.8291 524.519 32.4157 523.06 32.4157 521.3C32.4157 519.555 31.8291 518.103 30.6557 516.944C29.4824 515.785 27.9424 515.206 26.0357 515.206H22.4277V527.394ZM43.3124 529.11L36.6904 513.6H38.6264L44.1044 526.866L49.6044 513.6H51.4744L44.8524 529.11H43.3124ZM55.7644 529V513.6H57.5024V529H55.7644ZM68.3928 529.22C66.0314 529.22 63.9341 528.399 62.1008 526.756L63.1788 525.48C64.0001 526.228 64.8214 526.778 65.6428 527.13C66.4788 527.482 67.4174 527.658 68.4588 527.658C69.4854 527.658 70.3141 527.416 70.9448 526.932C71.5754 526.433 71.8908 525.788 71.8908 524.996C71.8908 524.248 71.6121 523.654 71.0548 523.214C70.4974 522.774 69.4414 522.393 67.8868 522.07C66.0534 521.674 64.7334 521.139 63.9268 520.464C63.1201 519.789 62.7168 518.829 62.7168 517.582C62.7168 516.365 63.1934 515.36 64.1468 514.568C65.1001 513.776 66.3101 513.38 67.7768 513.38C69.8154 513.38 71.6194 514.011 73.1888 515.272L72.1768 516.614C70.8128 515.499 69.3314 514.942 67.7328 514.942C66.7501 514.942 65.9581 515.184 65.3568 515.668C64.7554 516.137 64.4548 516.739 64.4548 517.472C64.4548 518.235 64.7408 518.836 65.3128 519.276C65.8994 519.716 67.0068 520.112 68.6348 520.464C70.3801 520.845 71.6488 521.381 72.4408 522.07C73.2474 522.745 73.6508 523.676 73.6508 524.864C73.6508 526.169 73.1594 527.225 72.1768 528.032C71.1941 528.824 69.9328 529.22 68.3928 529.22ZM91.089 526.932C89.6077 528.487 87.723 529.264 85.435 529.264C83.147 529.264 81.2697 528.487 79.803 526.932C78.3364 525.377 77.603 523.5 77.603 521.3C77.603 519.115 78.3437 517.245 79.825 515.69C81.3064 514.121 83.191 513.336 85.479 513.336C87.767 513.336 89.6444 514.113 91.111 515.668C92.5777 517.223 93.311 519.1 93.311 521.3C93.311 523.485 92.5704 525.363 91.089 526.932ZM81.123 525.81C82.2817 527.042 83.7337 527.658 85.479 527.658C87.2244 527.658 88.6617 527.049 89.791 525.832C90.935 524.6 91.507 523.089 91.507 521.3C91.507 519.525 90.9277 518.022 89.769 516.79C88.625 515.558 87.1804 514.942 85.435 514.942C83.6897 514.942 82.245 515.558 81.101 516.79C79.9717 518.007 79.407 519.511 79.407 521.3C79.407 523.075 79.979 524.578 81.123 525.81ZM98.0764 529V513.6H104.698C106.59 513.6 108.05 514.113 109.076 515.14C109.868 515.932 110.264 516.959 110.264 518.22C110.264 519.452 109.883 520.449 109.12 521.212C108.358 521.975 107.346 522.473 106.084 522.708L110.814 529H108.68L104.214 523.016H99.8144V529H98.0764ZM99.8144 521.454H104.544C105.718 521.454 106.671 521.168 107.404 520.596C108.138 520.024 108.504 519.239 108.504 518.242C108.504 517.289 108.152 516.548 107.448 516.02C106.759 515.477 105.798 515.206 104.566 515.206H99.8144V521.454ZM120.355 529.22C117.994 529.22 115.896 528.399 114.063 526.756L115.141 525.48C115.962 526.228 116.784 526.778 117.605 527.13C118.441 527.482 119.38 527.658 120.421 527.658C121.448 527.658 122.276 527.416 122.907 526.932C123.538 526.433 123.853 525.788 123.853 524.996C123.853 524.248 123.574 523.654 123.017 523.214C122.46 522.774 121.404 522.393 119.849 522.07C118.016 521.674 116.696 521.139 115.889 520.464C115.082 519.789 114.679 518.829 114.679 517.582C114.679 516.365 115.156 515.36 116.109 514.568C117.062 513.776 118.272 513.38 119.739 513.38C121.778 513.38 123.582 514.011 125.151 515.272L124.139 516.614C122.775 515.499 121.294 514.942 119.695 514.942C118.712 514.942 117.92 515.184 117.319 515.668C116.718 516.137 116.417 516.739 116.417 517.472C116.417 518.235 116.703 518.836 117.275 519.276C117.862 519.716 118.969 520.112 120.597 520.464C122.342 520.845 123.611 521.381 124.403 522.07C125.21 522.745 125.613 523.676 125.613 524.864C125.613 526.169 125.122 527.225 124.139 528.032C123.156 528.824 121.895 529.22 120.355 529.22Z" fill="white"/>
<path d="M1218.38 728V712.6H1220.12V726.394H1228.78V728H1218.38ZM1231.78 728L1238.8 712.49H1240.43L1247.44 728H1245.57L1243.77 723.93H1235.39L1233.56 728H1231.78ZM1236.07 722.368H1243.09L1239.59 714.514L1236.07 722.368ZM1257.18 728.242C1255.23 728.242 1253.68 727.663 1252.52 726.504C1251.36 725.331 1250.78 723.681 1250.78 721.554V712.6H1252.52V721.444C1252.52 723.101 1252.93 724.385 1253.75 725.294C1254.59 726.189 1255.74 726.636 1257.23 726.636C1258.68 726.636 1259.81 726.203 1260.64 725.338C1261.46 724.473 1261.87 723.211 1261.87 721.554V712.6H1263.61V721.422C1263.61 723.622 1263.03 725.309 1261.87 726.482C1260.71 727.655 1259.15 728.242 1257.18 728.242ZM1268.82 728V712.6H1270.44L1280.15 724.942V712.6H1281.84V728H1280.45L1270.51 715.372V728H1268.82ZM1294.34 728.264C1292.12 728.264 1290.28 727.501 1288.81 725.976C1287.35 724.436 1286.61 722.544 1286.61 720.3C1286.61 718.085 1287.35 716.208 1288.84 714.668C1290.32 713.113 1292.17 712.336 1294.4 712.336C1295.69 712.336 1296.79 712.549 1297.7 712.974C1298.61 713.385 1299.5 714.001 1300.36 714.822L1299.22 716.054C1297.74 714.646 1296.13 713.942 1294.38 713.942C1292.68 713.942 1291.26 714.551 1290.11 715.768C1288.98 716.985 1288.42 718.496 1288.42 720.3C1288.42 722.089 1288.99 723.6 1290.13 724.832C1291.28 726.049 1292.69 726.658 1294.38 726.658C1295.38 726.658 1296.26 726.475 1297.02 726.108C1297.78 725.741 1298.56 725.184 1299.35 724.436L1300.5 725.646C1299.63 726.511 1298.72 727.164 1297.77 727.604C1296.81 728.044 1295.67 728.264 1294.34 728.264ZM1304.64 728V712.6H1306.38V719.442H1315.26V712.6H1317V728H1315.26V721.07H1306.38V728H1304.64ZM1322.45 728V712.6H1328.22C1329.98 712.6 1331.38 713.04 1332.42 713.92C1333.46 714.8 1333.98 716.003 1333.98 717.528C1333.98 719.127 1333.4 720.366 1332.24 721.246C1331.1 722.126 1329.66 722.566 1327.93 722.566H1324.19V728H1322.45ZM1324.19 720.982H1328C1329.27 720.982 1330.29 720.674 1331.06 720.058C1331.83 719.427 1332.22 718.591 1332.22 717.55C1332.22 716.479 1331.85 715.658 1331.1 715.086C1330.37 714.499 1329.36 714.206 1328.09 714.206H1324.19V720.982ZM1335.38 728L1342.4 712.49H1344.03L1351.05 728H1349.18L1347.37 723.93H1338.99L1337.16 728H1335.38ZM1339.67 722.368H1346.69L1343.19 714.514L1339.67 722.368ZM1355.18 728V712.6H1360.53C1362.93 712.6 1364.9 713.333 1366.42 714.8C1367.95 716.252 1368.71 718.085 1368.71 720.3C1368.71 722.5 1367.94 724.333 1366.4 725.8C1364.88 727.267 1362.92 728 1360.53 728H1355.18ZM1356.92 726.394H1360.53C1362.45 726.394 1363.99 725.822 1365.15 724.678C1366.32 723.519 1366.91 722.06 1366.91 720.3C1366.91 718.555 1366.32 717.103 1365.15 715.944C1363.98 714.785 1362.44 714.206 1360.53 714.206H1356.92V726.394ZM1386.47 728.22C1384.11 728.22 1382.01 727.399 1380.18 725.756L1381.25 724.48C1382.07 725.228 1382.9 725.778 1383.72 726.13C1384.55 726.482 1385.49 726.658 1386.53 726.658C1387.56 726.658 1388.39 726.416 1389.02 725.932C1389.65 725.433 1389.97 724.788 1389.97 723.996C1389.97 723.248 1389.69 722.654 1389.13 722.214C1388.57 721.774 1387.52 721.393 1385.96 721.07C1384.13 720.674 1382.81 720.139 1382 719.464C1381.19 718.789 1380.79 717.829 1380.79 716.582C1380.79 715.365 1381.27 714.36 1382.22 713.568C1383.17 712.776 1384.38 712.38 1385.85 712.38C1387.89 712.38 1389.69 713.011 1391.26 714.272L1390.25 715.614C1388.89 714.499 1387.41 713.942 1385.81 713.942C1384.82 713.942 1384.03 714.184 1383.43 714.668C1382.83 715.137 1382.53 715.739 1382.53 716.472C1382.53 717.235 1382.82 717.836 1383.39 718.276C1383.97 718.716 1385.08 719.112 1386.71 719.464C1388.45 719.845 1389.72 720.381 1390.52 721.07C1391.32 721.745 1391.73 722.676 1391.73 723.864C1391.73 725.169 1391.23 726.225 1390.25 727.032C1389.27 727.824 1388.01 728.22 1386.47 728.22ZM1394.72 728L1401.74 712.49H1403.36L1410.38 728H1408.51L1406.71 723.93H1398.33L1396.5 728H1394.72ZM1399.01 722.368H1406.03L1402.53 714.514L1399.01 722.368ZM1414.52 728V712.6H1416.26V726.394H1424.92V728H1414.52ZM1429.24 728V712.6H1440.37V714.184H1430.98V719.442H1439.38V721.026H1430.98V726.416H1440.48V728H1429.24Z" fill="white"/>
<path d="M1058.89 71.22C1056.53 71.22 1054.44 70.3987 1052.6 68.756L1053.68 67.48C1054.5 68.228 1055.32 68.778 1056.14 69.13C1056.98 69.482 1057.92 69.658 1058.96 69.658C1059.99 69.658 1060.82 69.416 1061.45 68.932C1062.08 68.4333 1062.39 67.788 1062.39 66.996C1062.39 66.248 1062.11 65.654 1061.56 65.214C1061 64.774 1059.94 64.3927 1058.39 64.07C1056.56 63.674 1055.24 63.1387 1054.43 62.464C1053.62 61.7893 1053.22 60.8287 1053.22 59.582C1053.22 58.3647 1053.7 57.36 1054.65 56.568C1055.6 55.776 1056.81 55.38 1058.28 55.38C1060.32 55.38 1062.12 56.0107 1063.69 57.272L1062.68 58.614C1061.31 57.4993 1059.83 56.942 1058.23 56.942C1057.25 56.942 1056.46 57.184 1055.86 57.668C1055.26 58.1373 1054.96 58.7387 1054.96 59.472C1054.96 60.2347 1055.24 60.836 1055.81 61.276C1056.4 61.716 1057.51 62.112 1059.14 62.464C1060.88 62.8453 1062.15 63.3807 1062.94 64.07C1063.75 64.7447 1064.15 65.676 1064.15 66.864C1064.15 68.1693 1063.66 69.2253 1062.68 70.032C1061.7 70.824 1060.43 71.22 1058.89 71.22ZM1068.79 71V55.6H1079.92V57.184H1070.52V62.442H1078.93V64.026H1070.52V69.416H1080.03V71H1068.79ZM1084.63 71V55.6H1095.76V57.184H1086.36V62.442H1094.77V64.026H1086.36V69.416H1095.87V71H1084.63ZM1100.46 71V55.6H1105.81C1108.21 55.6 1110.18 56.3333 1111.71 57.8C1113.23 59.252 1113.99 61.0853 1113.99 63.3C1113.99 65.5 1113.22 67.3333 1111.68 68.8C1110.16 70.2667 1108.2 71 1105.81 71H1100.46ZM1102.2 69.394H1105.81C1107.73 69.394 1109.27 68.822 1110.43 67.678C1111.6 66.5193 1112.19 65.06 1112.19 63.3C1112.19 61.5547 1111.6 60.1027 1110.43 58.944C1109.26 57.7853 1107.72 57.206 1105.81 57.206H1102.2V69.394ZM1126.47 71V55.6H1133.09C1134.98 55.6 1136.44 56.1133 1137.47 57.14C1138.26 57.932 1138.66 58.9587 1138.66 60.22C1138.66 61.452 1138.27 62.4493 1137.51 63.212C1136.75 63.9747 1135.74 64.4733 1134.48 64.708L1139.21 71H1137.07L1132.61 65.016H1128.21V71H1126.47ZM1128.21 63.454H1132.94C1134.11 63.454 1135.06 63.168 1135.8 62.596C1136.53 62.024 1136.9 61.2393 1136.9 60.242C1136.9 59.2887 1136.54 58.548 1135.84 58.02C1135.15 57.4773 1134.19 57.206 1132.96 57.206H1128.21V63.454ZM1156.27 68.932C1154.79 70.4867 1152.9 71.264 1150.62 71.264C1148.33 71.264 1146.45 70.4867 1144.98 68.932C1143.52 67.3773 1142.78 65.5 1142.78 63.3C1142.78 61.1147 1143.53 59.2447 1145.01 57.69C1146.49 56.1207 1148.37 55.336 1150.66 55.336C1152.95 55.336 1154.83 56.1133 1156.29 57.668C1157.76 59.2227 1158.49 61.1 1158.49 63.3C1158.49 65.4853 1157.75 67.3627 1156.27 68.932ZM1146.3 67.81C1147.46 69.042 1148.92 69.658 1150.66 69.658C1152.41 69.658 1153.84 69.0493 1154.97 67.832C1156.12 66.6 1156.69 65.0893 1156.69 63.3C1156.69 61.5253 1156.11 60.022 1154.95 58.79C1153.81 57.558 1152.36 56.942 1150.62 56.942C1148.87 56.942 1147.43 57.558 1146.28 58.79C1145.15 60.0073 1144.59 61.5107 1144.59 63.3C1144.59 65.0747 1145.16 66.578 1146.3 67.81ZM1169.42 71.242C1167.47 71.242 1165.91 70.6627 1164.75 69.504C1163.6 68.3307 1163.02 66.6807 1163.02 64.554V55.6H1164.75V64.444C1164.75 66.1013 1165.16 67.3847 1165.99 68.294C1166.82 69.1887 1167.98 69.636 1169.46 69.636C1170.91 69.636 1172.05 69.2033 1172.87 68.338C1173.69 67.4727 1174.1 66.2113 1174.1 64.554V55.6H1175.84V64.422C1175.84 66.622 1175.26 68.3087 1174.1 69.482C1172.95 70.6553 1171.38 71.242 1169.42 71.242ZM1181.05 71V55.6H1182.68L1192.38 67.942V55.6H1194.08V71H1192.69L1182.75 58.372V71H1181.05ZM1199.53 71V55.6H1204.88C1207.28 55.6 1209.25 56.3333 1210.77 57.8C1212.3 59.252 1213.06 61.0853 1213.06 63.3C1213.06 65.5 1212.29 67.3333 1210.75 68.8C1209.23 70.2667 1207.27 71 1204.88 71H1199.53ZM1201.27 69.394H1204.88C1206.8 69.394 1208.34 68.822 1209.5 67.678C1210.67 66.5193 1211.26 65.06 1211.26 63.3C1211.26 61.5547 1210.67 60.1027 1209.5 58.944C1208.32 57.7853 1206.78 57.206 1204.88 57.206H1201.27V69.394Z" fill="white"/>
<path d="M296.356 71V57.206H291.186V55.6H303.286V57.206H298.116V71H296.356ZM307.651 71V55.6H318.783V57.184H309.389V62.442H317.793V64.026H309.389V69.416H318.893V71H307.651ZM322.17 71L329.188 55.49H330.816L337.834 71H335.964L334.16 66.93H325.778L323.952 71H322.17ZM326.46 65.368H333.478L329.98 57.514L326.46 65.368ZM341.971 71V55.6H343.731L349.341 64.004L354.951 55.6H356.711V71H354.973V58.526L349.363 66.776H349.275L343.665 58.548V71H341.971Z" fill="white"/>
<path d="M102.393 728V712.6H107.739C110.145 712.6 112.11 713.333 113.635 714.8C115.161 716.252 115.923 718.085 115.923 720.3C115.923 722.5 115.153 724.333 113.613 725.8C112.088 727.267 110.13 728 107.739 728H102.393ZM104.131 726.394H107.739C109.661 726.394 111.201 725.822 112.359 724.678C113.533 723.519 114.119 722.06 114.119 720.3C114.119 718.555 113.533 717.103 112.359 715.944C111.186 714.785 109.646 714.206 107.739 714.206H104.131V726.394ZM118.373 728L125.391 712.49H127.019L134.037 728H132.167L130.363 723.93H121.981L120.155 728H118.373ZM122.663 722.368H129.681L126.183 714.514L122.663 722.368ZM150.075 725.932C148.594 727.487 146.709 728.264 144.421 728.264C142.133 728.264 140.256 727.487 138.789 725.932C137.322 724.377 136.589 722.5 136.589 720.3C136.589 718.115 137.33 716.245 138.811 714.69C140.292 713.121 142.177 712.336 144.465 712.336C146.753 712.336 148.63 713.113 150.097 714.668C151.564 716.223 152.297 718.1 152.297 720.3C152.297 722.485 151.556 724.363 150.075 725.932ZM140.109 724.81C141.268 726.042 142.72 726.658 144.465 726.658C146.21 726.658 147.648 726.049 148.777 724.832C149.921 723.6 150.493 722.089 150.493 720.3C150.493 718.525 149.914 717.022 148.755 715.79C147.611 714.558 146.166 713.942 144.421 713.942C142.676 713.942 141.231 714.558 140.087 715.79C138.958 717.007 138.393 718.511 138.393 720.3C138.393 722.075 138.965 723.578 140.109 724.81Z" fill="white"/>
<path d="M249.368 887V873.206H244.198V871.6H256.298V873.206H251.128V887H249.368ZM260.664 887V871.6H267.286C269.178 871.6 270.637 872.113 271.664 873.14C272.456 873.932 272.852 874.959 272.852 876.22C272.852 877.452 272.471 878.449 271.708 879.212C270.945 879.975 269.933 880.473 268.672 880.708L273.402 887H271.268L266.802 881.016H262.402V887H260.664ZM262.402 879.454H267.132C268.305 879.454 269.259 879.168 269.992 878.596C270.725 878.024 271.092 877.239 271.092 876.242C271.092 875.289 270.74 874.548 270.036 874.02C269.347 873.477 268.386 873.206 267.154 873.206H262.402V879.454ZM277.662 887V871.6H288.794V873.184H279.4V878.442H287.804V880.026H279.4V885.416H288.904V887H277.662ZM292.181 887L299.199 871.49H300.827L307.845 887H305.975L304.171 882.93H295.789L293.963 887H292.181ZM296.471 881.368H303.489L299.991 873.514L296.471 881.368ZM316.961 887.22C314.599 887.22 312.502 886.399 310.669 884.756L311.747 883.48C312.568 884.228 313.389 884.778 314.211 885.13C315.047 885.482 315.985 885.658 317.027 885.658C318.053 885.658 318.882 885.416 319.513 884.932C320.143 884.433 320.459 883.788 320.459 882.996C320.459 882.248 320.18 881.654 319.623 881.214C319.065 880.774 318.009 880.393 316.455 880.07C314.621 879.674 313.301 879.139 312.495 878.464C311.688 877.789 311.285 876.829 311.285 875.582C311.285 874.365 311.761 873.36 312.715 872.568C313.668 871.776 314.878 871.38 316.345 871.38C318.383 871.38 320.187 872.011 321.757 873.272L320.745 874.614C319.381 873.499 317.899 872.942 316.301 872.942C315.318 872.942 314.526 873.184 313.925 873.668C313.323 874.137 313.023 874.739 313.023 875.472C313.023 876.235 313.309 876.836 313.881 877.276C314.467 877.716 315.575 878.112 317.203 878.464C318.948 878.845 320.217 879.381 321.009 880.07C321.815 880.745 322.219 881.676 322.219 882.864C322.219 884.169 321.727 885.225 320.745 886.032C319.762 886.824 318.501 887.22 316.961 887.22ZM333.013 887.242C331.062 887.242 329.508 886.663 328.349 885.504C327.19 884.331 326.611 882.681 326.611 880.554V871.6H328.349V880.444C328.349 882.101 328.76 883.385 329.581 884.294C330.417 885.189 331.576 885.636 333.057 885.636C334.509 885.636 335.646 885.203 336.467 884.338C337.288 883.473 337.699 882.211 337.699 880.554V871.6H339.437V880.422C339.437 882.622 338.858 884.309 337.699 885.482C336.54 886.655 334.978 887.242 333.013 887.242ZM344.646 887V871.6H351.268C353.16 871.6 354.62 872.113 355.646 873.14C356.438 873.932 356.834 874.959 356.834 876.22C356.834 877.452 356.453 878.449 355.69 879.212C354.928 879.975 353.916 880.473 352.654 880.708L357.384 887H355.25L350.784 881.016H346.384V887H344.646ZM346.384 879.454H351.114C352.288 879.454 353.241 879.168 353.974 878.596C354.708 878.024 355.074 877.239 355.074 876.242C355.074 875.289 354.722 874.548 354.018 874.02C353.329 873.477 352.368 873.206 351.136 873.206H346.384V879.454ZM361.799 887V871.6H363.537V887H361.799ZM369.147 887V871.6H380.279V873.184H370.885V878.442H379.289V880.026H370.885V885.416H380.389V887H369.147ZM390.265 887.22C387.904 887.22 385.807 886.399 383.973 884.756L385.051 883.48C385.873 884.228 386.694 884.778 387.515 885.13C388.351 885.482 389.29 885.658 390.331 885.658C391.358 885.658 392.187 885.416 392.817 884.932C393.448 884.433 393.763 883.788 393.763 882.996C393.763 882.248 393.485 881.654 392.927 881.214C392.37 880.774 391.314 880.393 389.759 880.07C387.926 879.674 386.606 879.139 385.799 878.464C384.993 877.789 384.589 876.829 384.589 875.582C384.589 874.365 385.066 873.36 386.019 872.568C386.973 871.776 388.183 871.38 389.649 871.38C391.688 871.38 393.492 872.011 395.061 873.272L394.049 874.614C392.685 873.499 391.204 872.942 389.605 872.942C388.623 872.942 387.831 873.184 387.229 873.668C386.628 874.137 386.327 874.739 386.327 875.472C386.327 876.235 386.613 876.836 387.185 877.276C387.772 877.716 388.879 878.112 390.507 878.464C392.253 878.845 393.521 879.381 394.313 880.07C395.12 880.745 395.523 881.676 395.523 882.864C395.523 884.169 395.032 885.225 394.049 886.032C393.067 886.824 391.805 887.22 390.265 887.22Z" fill="white"/>
<path d="M57.5397 758V742.6H68.6717V744.184H59.2777V749.442H67.6817V751.026H59.2777V756.416H68.7817V758H57.5397ZM80.418 758.264C78.2033 758.264 76.3627 757.501 74.896 755.976C73.4293 754.436 72.696 752.544 72.696 750.3C72.696 748.085 73.4367 746.208 74.918 744.668C76.3993 743.113 78.2547 742.336 80.484 742.336C81.7747 742.336 82.8747 742.549 83.784 742.974C84.6933 743.385 85.5807 744.001 86.446 744.822L85.302 746.054C83.8207 744.646 82.2073 743.942 80.462 743.942C78.7607 743.942 77.338 744.551 76.194 745.768C75.0647 746.985 74.5 748.496 74.5 750.3C74.5 752.089 75.072 753.6 76.216 754.832C77.36 756.049 78.7753 756.658 80.462 756.658C81.4593 756.658 82.3393 756.475 83.102 756.108C83.8647 755.741 84.642 755.184 85.434 754.436L86.578 755.646C85.7127 756.511 84.8033 757.164 83.85 757.604C82.8967 758.044 81.7527 758.264 80.418 758.264ZM103.095 755.932C101.613 757.487 99.7285 758.264 97.4405 758.264C95.1525 758.264 93.2752 757.487 91.8085 755.932C90.3418 754.377 89.6085 752.5 89.6085 750.3C89.6085 748.115 90.3492 746.245 91.8305 744.69C93.3118 743.121 95.1965 742.336 97.4845 742.336C99.7725 742.336 101.65 743.113 103.117 744.668C104.583 746.223 105.317 748.1 105.317 750.3C105.317 752.485 104.576 754.363 103.095 755.932ZM93.1285 754.81C94.2872 756.042 95.7392 756.658 97.4845 756.658C99.2298 756.658 100.667 756.049 101.797 754.832C102.941 753.6 103.513 752.089 103.513 750.3C103.513 748.525 102.933 747.022 101.775 745.79C100.631 744.558 99.1858 743.942 97.4405 743.942C95.6952 743.942 94.2505 744.558 93.1065 745.79C91.9772 747.007 91.4125 748.511 91.4125 750.3C91.4125 752.075 91.9845 753.578 93.1285 754.81ZM115.362 758.22C113.001 758.22 110.903 757.399 109.07 755.756L110.148 754.48C110.969 755.228 111.791 755.778 112.612 756.13C113.448 756.482 114.387 756.658 115.428 756.658C116.455 756.658 117.283 756.416 117.914 755.932C118.545 755.433 118.86 754.788 118.86 753.996C118.86 753.248 118.581 752.654 118.024 752.214C117.467 751.774 116.411 751.393 114.856 751.07C113.023 750.674 111.703 750.139 110.896 749.464C110.089 748.789 109.686 747.829 109.686 746.582C109.686 745.365 110.163 744.36 111.116 743.568C112.069 742.776 113.279 742.38 114.746 742.38C116.785 742.38 118.589 743.011 120.158 744.272L119.146 745.614C117.782 744.499 116.301 743.942 114.702 743.942C113.719 743.942 112.927 744.184 112.326 744.668C111.725 745.137 111.424 745.739 111.424 746.472C111.424 747.235 111.71 747.836 112.282 748.276C112.869 748.716 113.976 749.112 115.604 749.464C117.349 749.845 118.618 750.381 119.41 751.07C120.217 751.745 120.62 752.676 120.62 753.864C120.62 755.169 120.129 756.225 119.146 757.032C118.163 757.824 116.902 758.22 115.362 758.22ZM129.406 758V751.906L123.004 742.6H125.116L130.308 750.3L135.544 742.6H137.568L131.166 751.884V758H129.406ZM145.943 758.22C143.581 758.22 141.484 757.399 139.651 755.756L140.729 754.48C141.55 755.228 142.371 755.778 143.193 756.13C144.029 756.482 144.967 756.658 146.009 756.658C147.035 756.658 147.864 756.416 148.495 755.932C149.125 755.433 149.441 754.788 149.441 753.996C149.441 753.248 149.162 752.654 148.605 752.214C148.047 751.774 146.991 751.393 145.437 751.07C143.603 750.674 142.283 750.139 141.477 749.464C140.67 748.789 140.267 747.829 140.267 746.582C140.267 745.365 140.743 744.36 141.697 743.568C142.65 742.776 143.86 742.38 145.327 742.38C147.365 742.38 149.169 743.011 150.739 744.272L149.727 745.614C148.363 744.499 146.881 743.942 145.283 743.942C144.3 743.942 143.508 744.184 142.907 744.668C142.305 745.137 142.005 745.739 142.005 746.472C142.005 747.235 142.291 747.836 142.863 748.276C143.449 748.716 144.557 749.112 146.185 749.464C147.93 749.845 149.199 750.381 149.991 751.07C150.797 751.745 151.201 752.676 151.201 753.864C151.201 755.169 150.709 756.225 149.727 757.032C148.744 757.824 147.483 758.22 145.943 758.22ZM159.583 758V744.206H154.413V742.6H166.513V744.206H161.343V758H159.583ZM170.878 758V742.6H182.01V744.184H172.616V749.442H181.02V751.026H172.616V756.416H182.12V758H170.878ZM186.717 758V742.6H188.477L194.087 751.004L199.697 742.6H201.457V758H199.719V745.526L194.109 753.776H194.021L188.411 745.548V758H186.717Z" fill="white"/>
<line x1="952.804" y1="359.54" x2="1241.8" y2="236.54" stroke="#28F2FF"/>
<path d="M639.977 217.409C778.059 173.238 925.804 249.368 969.975 387.45C1014.15 525.532 938.016 673.277 799.934 717.448C661.852 761.618 514.107 685.488 469.936 547.406C425.765 409.324 501.895 261.579 639.977 217.409ZM795.991 705.124C927.267 663.13 999.645 522.668 957.651 391.392C915.658 260.116 775.195 187.739 643.919 229.732C512.644 271.726 440.266 412.188 482.26 543.464C524.253 674.74 664.716 747.117 795.991 705.124Z" fill="#5AAB28"/>
<path d="M475.075 372.877C457.534 418.307 452.977 467.72 461.912 515.591C470.847 563.463 492.922 607.905 525.67 643.948C558.417 679.991 600.545 706.214 647.343 719.685C694.141 733.156 743.763 733.343 790.661 720.226C837.56 707.109 879.884 681.205 912.903 645.41C945.921 609.615 968.332 565.341 977.628 517.538C986.924 469.736 982.74 420.289 965.543 374.729C948.345 329.168 918.813 289.29 880.249 259.553L872.348 269.799C909.012 298.071 937.088 335.983 953.437 379.298C969.787 422.613 973.765 469.622 964.927 515.068C956.089 560.514 934.783 602.606 903.392 636.637C872.001 670.667 831.763 695.295 787.176 707.766C742.59 720.236 695.413 720.058 650.922 707.251C606.431 694.444 566.379 669.514 535.246 635.247C504.113 600.98 483.126 558.729 474.631 513.217C466.136 467.705 470.469 420.728 487.145 377.538L475.075 372.877Z" fill="#E7FF53"/>
<path d="M969.727 386.686C961.179 360.243 948.486 335.325 932.123 312.863L921.665 320.482C937.222 341.837 949.289 365.526 957.415 390.665L969.727 386.686Z" fill="#54FFF5" fill-opacity="0.71"/>
<path d="M982.262 457.418C981.324 432.835 976.935 408.506 969.224 385.145L956.937 389.201C964.268 411.41 968.441 434.54 969.333 457.911L982.262 457.418Z" fill="#FF5656"/>
<path d="M959.928 573.816C974.58 540.765 982.248 505.043 982.449 468.89L969.51 468.818C969.319 503.189 962.029 537.15 948.099 568.572L959.928 573.816Z" fill="#E69801"/>
<path d="M982.449 469.213C982.477 465.074 982.407 460.934 982.239 456.797L969.324 457.321C969.483 461.254 969.55 465.19 969.523 469.125L982.449 469.213Z" fill="#3042FF"/>
<path d="M491.719 337.757C473.3 370.176 462 406.146 458.569 443.273C455.138 480.4 459.656 517.832 471.821 553.076C483.987 588.321 503.521 620.57 529.123 647.675C554.725 674.781 585.808 696.121 620.302 710.276L625.214 698.306C592.42 684.849 562.869 664.56 538.529 638.791C514.189 613.021 495.618 582.362 484.052 548.855C472.486 515.347 468.191 479.76 471.453 444.464C474.715 409.167 485.458 374.969 502.969 344.149L491.719 337.757Z" fill="#E128FF"/>
<path d="M491.719 337.757C473.3 370.176 462 406.146 458.569 443.273C455.138 480.4 459.656 517.832 471.821 553.076C483.987 588.321 503.521 620.57 529.123 647.675C554.725 674.781 585.808 696.121 620.302 710.276L625.214 698.306C592.42 684.849 562.869 664.56 538.529 638.791C514.189 613.021 495.618 582.362 484.052 548.855C472.486 515.347 468.191 479.76 471.453 444.464C474.715 409.167 485.458 374.969 502.969 344.149L491.719 337.757Z" fill="#E128FF"/>
<path d="M509.229 310.898C502.68 319.715 496.69 328.935 491.295 338.503L502.566 344.858C507.695 335.761 513.389 326.996 519.616 318.613L509.229 310.898Z" fill="#E128FF"/>
<path d="M509.229 310.898C502.68 319.715 496.69 328.935 491.295 338.503L502.566 344.858C507.695 335.761 513.389 326.996 519.616 318.613L509.229 310.898Z" fill="#3175F8"/>
<path d="M509.229 310.898C502.68 319.715 496.69 328.935 491.295 338.503L502.566 344.858C507.695 335.761 513.389 326.996 519.616 318.613L509.229 310.898Z" fill="#FFD028"/>
<path d="M899.939 276.347C874.846 252.711 845.344 234.249 813.116 222.015C780.888 209.781 746.566 204.014 712.109 205.044C677.652 206.074 643.736 213.881 612.297 228.019C580.857 242.157 552.51 262.349 528.874 287.442L538.293 296.313C560.764 272.457 587.713 253.261 617.603 239.82C647.493 226.379 679.737 218.957 712.496 217.977C745.254 216.998 777.884 222.48 808.524 234.111C839.163 245.743 867.212 263.295 891.068 285.766L899.939 276.347Z" fill="#E128FF"/>
<path d="M899.939 276.347C874.846 252.711 845.344 234.249 813.116 222.015C780.888 209.781 746.566 204.014 712.109 205.044C677.652 206.074 643.736 213.881 612.297 228.019C580.857 242.157 552.51 262.349 528.874 287.442L538.293 296.313C560.764 272.457 587.713 253.261 617.603 239.82C647.493 226.379 679.737 218.957 712.496 217.977C745.254 216.998 777.884 222.48 808.524 234.111C839.163 245.743 867.212 263.295 891.068 285.766L899.939 276.347Z" fill="#3175F8"/>
<path d="M899.939 276.347C874.846 252.711 845.344 234.249 813.116 222.015C780.888 209.781 746.566 204.014 712.109 205.044C677.652 206.074 643.736 213.881 612.297 228.019C580.857 242.157 552.51 262.349 528.874 287.442L538.293 296.313C560.764 272.457 587.713 253.261 617.603 239.82C647.493 226.379 679.737 218.957 712.496 217.977C745.254 216.998 777.884 222.48 808.524 234.111C839.163 245.743 867.212 263.295 891.068 285.766L899.939 276.347Z" fill="#FF28C3"/>
<path d="M618.075 709.35C649.844 722.729 683.938 729.72 718.41 729.923C752.881 730.126 787.055 723.537 818.98 710.533C850.905 697.529 879.956 678.364 904.475 654.133C928.993 629.902 948.499 601.078 961.878 569.308L949.767 564.208C937.057 594.387 918.528 621.768 895.237 644.786C871.946 667.804 844.349 686.01 814.022 698.363C783.696 710.716 751.233 716.974 718.487 716.781C685.741 716.589 653.354 709.948 623.175 697.239L618.075 709.35Z" fill="#E128FF"/>
<path d="M618.075 709.35C649.844 722.729 683.938 729.72 718.41 729.923C752.881 730.126 787.055 723.537 818.98 710.533C850.905 697.529 879.956 678.364 904.475 654.133C928.993 629.902 948.499 601.078 961.878 569.308L949.767 564.208C937.057 594.387 918.528 621.768 895.237 644.786C871.946 667.804 844.349 686.01 814.022 698.363C783.696 710.716 751.233 716.974 718.487 716.781C685.741 716.589 653.354 709.948 623.175 697.239L618.075 709.35Z" fill="#60FF28"/>
<line x1="171" y1="236.5" x2="222" y2="236.5" stroke="#5AAB28"/>
<line x1="389" y1="16.5" x2="440" y2="16.5" stroke="#FF28C3"/>
<line x1="221.105" y1="236.511" x2="525.105" y2="301.511" stroke="#5AAB28"/>
<line x1="439.364" y1="16.657" x2="636.364" y2="225.657" stroke="#FF28C3"/>
<line x1="1291" y1="236.5" x2="1241" y2="236.5" stroke="#28F2FF"/>
<line x1="1063" y1="19.5" x2="1013" y2="19.5" stroke="#E7FF53"/>
<line x1="911.53" y1="296.829" x2="1012.53" y2="18.8293" stroke="#E7FF53"/>
<line x1="1257" y1="676.5" x2="1207" y2="676.5" stroke="#3042FF"/>
<line x1="978.343" y1="460.636" x2="1207.49" y2="676.679" stroke="#3042FF"/>
<path d="M1150.42 845.432C1147.4 845.432 1145.01 844.436 1143.26 842.444C1141.51 840.452 1140.63 837.32 1140.63 833.048C1140.63 829.112 1141.57 825.848 1143.44 823.256C1145.33 820.664 1147.89 819.368 1151.11 819.368C1153.72 819.368 1156.21 820.328 1158.56 822.248L1156.9 824.444C1154.93 822.788 1152.95 821.96 1150.96 821.96C1148.73 821.96 1146.94 822.98 1145.6 825.02C1144.25 827.06 1143.58 829.712 1143.58 832.976V833.084C1145.33 830.516 1147.72 829.232 1150.75 829.232C1153.17 829.232 1155.22 829.952 1156.9 831.392C1158.61 832.832 1159.46 834.716 1159.46 837.044C1159.46 839.468 1158.59 841.472 1156.87 843.056C1155.14 844.64 1152.99 845.432 1150.42 845.432ZM1150.46 842.912C1152.28 842.912 1153.75 842.36 1154.85 841.256C1155.98 840.152 1156.54 838.76 1156.54 837.08C1156.54 835.52 1155.97 834.236 1154.81 833.228C1153.66 832.196 1152.19 831.68 1150.39 831.68C1148.56 831.68 1147.05 832.244 1145.85 833.372C1144.67 834.476 1144.09 835.772 1144.09 837.26C1144.09 838.868 1144.69 840.212 1145.89 841.292C1147.09 842.372 1148.61 842.912 1150.46 842.912ZM1175.21 830.492C1174.13 831.764 1172.76 832.4 1171.1 832.4C1169.45 832.4 1168.08 831.776 1167 830.528C1165.94 829.256 1165.41 827.732 1165.41 825.956C1165.41 824.204 1165.95 822.692 1167.03 821.42C1168.11 820.148 1169.49 819.512 1171.17 819.512C1172.83 819.512 1174.19 820.148 1175.24 821.42C1176.3 822.668 1176.83 824.18 1176.83 825.956C1176.83 827.708 1176.29 829.22 1175.21 830.492ZM1168.01 845L1186.51 819.8H1189.07L1170.6 845H1168.01ZM1185.93 845.288C1184.28 845.288 1182.92 844.664 1181.87 843.416C1180.81 842.144 1180.28 840.62 1180.28 838.844C1180.28 837.092 1180.82 835.58 1181.9 834.308C1182.98 833.036 1184.35 832.4 1186.01 832.4C1187.66 832.4 1189.02 833.036 1190.07 834.308C1191.13 835.556 1191.66 837.068 1191.66 838.844C1191.66 840.62 1191.12 842.144 1190.04 843.416C1188.98 844.664 1187.61 845.288 1185.93 845.288ZM1171.17 830.384C1172.13 830.384 1172.91 829.964 1173.51 829.124C1174.14 828.26 1174.45 827.204 1174.45 825.956C1174.45 824.708 1174.13 823.664 1173.48 822.824C1172.83 821.96 1172.04 821.528 1171.1 821.528C1170.14 821.528 1169.35 821.96 1168.73 822.824C1168.13 823.664 1167.83 824.708 1167.83 825.956C1167.83 827.204 1168.15 828.26 1168.8 829.124C1169.45 829.964 1170.24 830.384 1171.17 830.384ZM1186.01 843.272C1186.99 843.272 1187.78 842.852 1188.38 842.012C1188.98 841.172 1189.28 840.116 1189.28 838.844C1189.28 837.596 1188.96 836.552 1188.31 835.712C1187.66 834.848 1186.87 834.416 1185.93 834.416C1184.97 834.416 1184.18 834.848 1183.56 835.712C1182.96 836.552 1182.66 837.596 1182.66 838.844C1182.66 840.092 1182.98 841.148 1183.63 842.012C1184.28 842.852 1185.07 843.272 1186.01 843.272Z" fill="#E69801"/>
<path d="M1077.29 887V871.6H1083.06C1084.82 871.6 1086.22 872.04 1087.26 872.92C1088.3 873.8 1088.82 875.003 1088.82 876.528C1088.82 878.127 1088.24 879.366 1087.08 880.246C1085.94 881.126 1084.5 881.566 1082.77 881.566H1079.03V887H1077.29ZM1079.03 879.982H1082.84C1084.11 879.982 1085.13 879.674 1085.9 879.058C1086.67 878.427 1087.06 877.591 1087.06 876.55C1087.06 875.479 1086.69 874.658 1085.94 874.086C1085.21 873.499 1084.2 873.206 1082.93 873.206H1079.03V879.982ZM1090.22 887L1097.24 871.49H1098.87L1105.89 887H1104.02L1102.21 882.93H1093.83L1092 887H1090.22ZM1094.51 881.368H1101.53L1098.03 873.514L1094.51 881.368ZM1110.02 887V871.6H1116.65C1118.54 871.6 1120 872.113 1121.02 873.14C1121.82 873.932 1122.21 874.959 1122.21 876.22C1122.21 877.452 1121.83 878.449 1121.07 879.212C1120.3 879.975 1119.29 880.473 1118.03 880.708L1122.76 887H1120.63L1116.16 881.016H1111.76V887H1110.02ZM1111.76 879.454H1116.49C1117.66 879.454 1118.62 879.168 1119.35 878.596C1120.08 878.024 1120.45 877.239 1120.45 876.242C1120.45 875.289 1120.1 874.548 1119.4 874.02C1118.71 873.477 1117.75 873.206 1116.51 873.206H1111.76V879.454ZM1131.09 887V873.206H1125.92V871.6H1138.02V873.206H1132.85V887H1131.09ZM1142.39 887V871.6H1144.02L1153.72 883.942V871.6H1155.41V887H1154.03L1144.08 874.372V887H1142.39ZM1160.87 887V871.6H1172V873.184H1162.61V878.442H1171.01V880.026H1162.61V885.416H1172.11V887H1160.87ZM1176.71 887V871.6H1183.33C1185.22 871.6 1186.68 872.113 1187.71 873.14C1188.5 873.932 1188.89 874.959 1188.89 876.22C1188.89 877.452 1188.51 878.449 1187.75 879.212C1186.99 879.975 1185.98 880.473 1184.71 880.708L1189.44 887H1187.31L1182.84 881.016H1178.44V887H1176.71ZM1178.44 879.454H1183.17C1184.35 879.454 1185.3 879.168 1186.03 878.596C1186.77 878.024 1187.13 877.239 1187.13 876.242C1187.13 875.289 1186.78 874.548 1186.08 874.02C1185.39 873.477 1184.43 873.206 1183.2 873.206H1178.44V879.454ZM1198.98 887.22C1196.62 887.22 1194.53 886.399 1192.69 884.756L1193.77 883.48C1194.59 884.228 1195.41 884.778 1196.23 885.13C1197.07 885.482 1198.01 885.658 1199.05 885.658C1200.08 885.658 1200.91 885.416 1201.54 884.932C1202.17 884.433 1202.48 883.788 1202.48 882.996C1202.48 882.248 1202.2 881.654 1201.65 881.214C1201.09 880.774 1200.03 880.393 1198.48 880.07C1196.65 879.674 1195.33 879.139 1194.52 878.464C1193.71 877.789 1193.31 876.829 1193.31 875.582C1193.31 874.365 1193.79 873.36 1194.74 872.568C1195.69 871.776 1196.9 871.38 1198.37 871.38C1200.41 871.38 1202.21 872.011 1203.78 873.272L1202.77 874.614C1201.4 873.499 1199.92 872.942 1198.32 872.942C1197.34 872.942 1196.55 873.184 1195.95 873.668C1195.35 874.137 1195.05 874.739 1195.05 875.472C1195.05 876.235 1195.33 876.836 1195.9 877.276C1196.49 877.716 1197.6 878.112 1199.23 878.464C1200.97 878.845 1202.24 879.381 1203.03 880.07C1203.84 880.745 1204.24 881.676 1204.24 882.864C1204.24 884.169 1203.75 885.225 1202.77 886.032C1201.79 886.824 1200.52 887.22 1198.98 887.22ZM1208.88 887V871.6H1210.62V878.442H1219.5V871.6H1221.24V887H1219.5V880.07H1210.62V887H1208.88ZM1226.85 887V871.6H1228.58V887H1226.85ZM1234.19 887V871.6H1239.96C1241.72 871.6 1243.12 872.04 1244.16 872.92C1245.2 873.8 1245.72 875.003 1245.72 876.528C1245.72 878.127 1245.14 879.366 1243.98 880.246C1242.84 881.126 1241.4 881.566 1239.67 881.566H1235.93V887H1234.19ZM1235.93 879.982H1239.74C1241.01 879.982 1242.03 879.674 1242.8 879.058C1243.57 878.427 1243.96 877.591 1243.96 876.55C1243.96 875.479 1243.59 874.658 1242.84 874.086C1242.11 873.499 1241.1 873.206 1239.83 873.206H1235.93V879.982ZM1255.27 887.22C1252.91 887.22 1250.81 886.399 1248.98 884.756L1250.06 883.48C1250.88 884.228 1251.7 884.778 1252.52 885.13C1253.36 885.482 1254.29 885.658 1255.34 885.658C1256.36 885.658 1257.19 885.416 1257.82 884.932C1258.45 884.433 1258.77 883.788 1258.77 882.996C1258.77 882.248 1258.49 881.654 1257.93 881.214C1257.37 880.774 1256.32 880.393 1254.76 880.07C1252.93 879.674 1251.61 879.139 1250.8 878.464C1250 877.789 1249.59 876.829 1249.59 875.582C1249.59 874.365 1250.07 873.36 1251.02 872.568C1251.98 871.776 1253.19 871.38 1254.65 871.38C1256.69 871.38 1258.5 872.011 1260.07 873.272L1259.05 874.614C1257.69 873.499 1256.21 872.942 1254.61 872.942C1253.63 872.942 1252.84 873.184 1252.23 873.668C1251.63 874.137 1251.33 874.739 1251.33 875.472C1251.33 876.235 1251.62 876.836 1252.19 877.276C1252.78 877.716 1253.88 878.112 1255.51 878.464C1257.26 878.845 1258.53 879.381 1259.32 880.07C1260.12 880.745 1260.53 881.676 1260.53 882.864C1260.53 884.169 1260.04 885.225 1259.05 886.032C1258.07 886.824 1256.81 887.22 1255.27 887.22Z" fill="white"/>
<line x1="1113" y1="835.5" x2="1063" y2="835.5" stroke="#E59801"/>
<line x1="967.476" y1="537.846" x2="1063.48" y2="834.846" stroke="#E59801"/>
<line x1="116" y1="476.5" x2="165" y2="476.5" stroke="#FFD028"/>
<line x1="504.203" y1="325.457" x2="164.203" y2="476.457" stroke="#FFD028"/>
<line x1="237" y1="671.5" x2="189" y2="671.5" stroke="#E128FF"/>
<line x1="454" y1="840.5" x2="408" y2="840.5" stroke="#60FF28"/>
<line x1="463.322" y1="480.383" x2="236.322" y2="671.383" stroke="#E128FF"/>
<line x1="453.75" y1="840.567" x2="666.75" y2="717.567" stroke="#60FF28"/>
<line x1="972.093" y1="419.509" x2="1262.09" y2="474.509" stroke="#FF5656"/>
<line x1="1262" y1="474.5" x2="1311" y2="474.5" stroke="#FF5656"/>
<defs>
<filter id="filter0_i_1469_80" x="380" y="129" width="677" height="677" filterUnits="userSpaceOnUse" color-interpolation-filters="sRGB">
<feFlood flood-opacity="0" result="BackgroundImageFix"/>
<feBlend mode="normal" in="SourceGraphic" in2="BackgroundImageFix" result="shape"/>
<feColorMatrix in="SourceAlpha" type="matrix" values="0 0 0 0 0 0 0 0 0 0 0 0 0 0 0 0 0 0 127 0" result="hardAlpha"/>
<feOffset/>
<feGaussianBlur stdDeviation="5"/>
<feComposite in2="hardAlpha" operator="arithmetic" k2="-1" k3="1"/>
<feColorMatrix type="matrix" values="0 0 0 0 1 0 0 0 0 1 0 0 0 0 1 0 0 0 0.25 0"/>
<feBlend mode="normal" in2="shape" result="effect1_innerShadow_1469_80"/>
</filter>
<radialGradient id="paint0_radial_1469_80" cx="0" cy="0" r="1" gradientUnits="userSpaceOnUse" gradientTransform="translate(925.085 753.732) rotate(-160.273) scale(523.542 469.041)">
<stop stop-color="#42DCFF"/>
<stop offset="0.599661" stop-color="#78C7D9" stop-opacity="0"/>
</radialGradient>
<radialGradient id="paint1_radial_1469_80" cx="0" cy="0" r="1" gradientUnits="userSpaceOnUse" gradientTransform="translate(988.5 267.5) rotate(116.629) scale(602.397 696.182)">
<stop stop-color="#C51BFF"/>
<stop offset="1" stop-color="#033959" stop-opacity="0"/>
</radialGradient>
<radialGradient id="paint2_radial_1469_80" cx="0" cy="0" r="1" gradientUnits="userSpaceOnUse" gradientTransform="translate(404.5 308.5) rotate(57.7417) scale(588.305 805.643)">
<stop stop-color="#00B7FF"/>
<stop offset="0.743635" stop-color="#033959" stop-opacity="0"/>
</radialGradient>
</defs>
</svg>
