<svg width="1463" height="892" fill="none" xmlns="http://www.w3.org/2000/svg"><path d="M287.119 29v-2.196l9.144-8.064c1.968-1.728 3.336-3.168 4.104-4.32.768-1.152 1.152-2.352 1.152-3.6 0-1.44-.492-2.604-1.476-3.492-.984-.888-2.184-1.332-3.6-1.332-1.368 0-2.58.348-3.636 1.044-1.032.696-2.076 1.788-3.132 3.276l-2.088-1.512c1.224-1.824 2.52-3.168 3.888-4.032 1.368-.888 3.096-1.332 5.184-1.332 2.256 0 4.116.684 5.58 2.052 1.488 1.344 2.232 3.06 2.232 5.148 0 1.728-.468 3.264-1.404 4.608-.936 1.344-2.592 3.072-4.968 5.184l-6.732 5.976h13.356V29h-17.604Zm32.531.432c-3.336 0-6.336-1.332-9-3.996l1.872-2.052c2.376 2.304 4.764 3.456 7.164 3.456 1.8 0 3.264-.528 4.392-1.584 1.128-1.056 1.692-2.412 1.692-4.068 0-1.56-.588-2.832-1.764-3.816-1.152-.984-2.652-1.476-4.5-1.476-1.728 0-3.492.48-5.292 1.44l-1.908-1.26.72-12.276h14.508v2.628H315.51l-.54 8.064c1.704-.744 3.36-1.116 4.968-1.116 2.52 0 4.596.708 6.228 2.124 1.656 1.392 2.484 3.276 2.484 5.652 0 2.448-.84 4.44-2.52 5.976-1.68 1.536-3.84 2.304-6.48 2.304Zm24.599-14.94c-1.08 1.272-2.448 1.908-4.104 1.908-1.656 0-3.024-.624-4.104-1.872-1.056-1.272-1.584-2.796-1.584-4.572 0-1.752.54-3.264 1.62-4.536 1.08-1.272 2.46-1.908 4.14-1.908 1.656 0 3.012.636 4.068 1.908 1.056 1.248 1.584 2.76 1.584 4.536 0 1.752-.54 3.264-1.62 4.536ZM337.049 29l18.504-25.2h2.556L339.641 29h-2.592Zm17.928.288c-1.656 0-3.012-.624-4.068-1.872-1.056-1.272-1.584-2.796-1.584-4.572 0-1.752.54-3.264 1.62-4.536 1.08-1.272 2.448-1.908 4.104-1.908 1.656 0 3.012.636 4.068 1.908 1.056 1.248 1.584 2.76 1.584 4.536 0 1.776-.54 3.3-1.62 4.572-1.056 1.248-2.424 1.872-4.104 1.872Zm-14.76-14.904c.96 0 1.74-.42 2.34-1.26.624-.864.936-1.92.936-3.168 0-1.248-.324-2.292-.972-3.132-.648-.864-1.44-1.296-2.376-1.296-.96 0-1.752.432-2.376 1.296-.6.84-.9 1.884-.9 3.132 0 1.248.324 2.304.972 3.168.648.84 1.44 1.26 2.376 1.26Zm14.832 12.888c.984 0 1.776-.42 2.376-1.26.6-.84.9-1.896.9-3.168 0-1.248-.324-2.292-.972-3.132-.648-.864-1.44-1.296-2.376-1.296-.96 0-1.752.432-2.376 1.296-.6.84-.9 1.884-.9 3.132 0 1.248.324 2.304.972 3.168.648.84 1.44 1.26 2.376 1.26Z" fill="#FF28C3"/><path d="M1327.97 247.432c-3.33 0-6.33-1.332-9-3.996l1.88-2.052c2.37 2.304 4.76 3.456 7.16 3.456 1.8 0 3.26-.528 4.39-1.584s1.69-2.412 1.69-4.068c0-1.56-.58-2.832-1.76-3.816-1.15-.984-2.65-1.476-4.5-1.476-1.73 0-3.49.48-5.29 1.44l-1.91-1.26.72-12.276h14.51v2.628h-12.03l-.54 8.064c1.71-.744 3.36-1.116 4.97-1.116 2.52 0 4.6.708 6.23 2.124 1.66 1.392 2.48 3.276 2.48 5.652 0 2.448-.84 4.44-2.52 5.976-1.68 1.536-3.84 2.304-6.48 2.304Zm24.6-14.94c-1.08 1.272-2.44 1.908-4.1 1.908-1.66 0-3.02-.624-4.1-1.872-1.06-1.272-1.59-2.796-1.59-4.572 0-1.752.54-3.264 1.62-4.536 1.08-1.272 2.46-1.908 4.14-1.908 1.66 0 3.01.636 4.07 1.908 1.06 1.248 1.58 2.76 1.58 4.536 0 1.752-.54 3.264-1.62 4.536Zm-7.2 14.508 18.51-25.2h2.55l-18.46 25.2h-2.6Zm17.93.288c-1.65 0-3.01-.624-4.07-1.872-1.05-1.272-1.58-2.796-1.58-4.572 0-1.752.54-3.264 1.62-4.536 1.08-1.272 2.45-1.908 4.1-1.908 1.66 0 3.02.636 4.07 1.908 1.06 1.248 1.59 2.76 1.59 4.536 0 1.776-.54 3.3-1.62 4.572-1.06 1.248-2.43 1.872-4.11 1.872Zm-14.76-14.904c.96 0 1.74-.42 2.34-1.26.63-.864.94-1.92.94-3.168 0-1.248-.33-2.292-.97-3.132-.65-.864-1.44-1.296-2.38-1.296-.96 0-1.75.432-2.38 1.296-.6.84-.9 1.884-.9 3.132 0 1.248.33 2.304.98 3.168.64.84 1.44 1.26 2.37 1.26Zm14.83 12.888c.99 0 1.78-.42 2.38-1.26.6-.84.9-1.896.9-3.168 0-1.248-.32-2.292-.97-3.132-.65-.864-1.44-1.296-2.38-1.296-.96 0-1.75.432-2.37 1.296-.6.84-.9 1.884-.9 3.132 0 1.248.32 2.304.97 3.168.65.84 1.44 1.26 2.37 1.26Z" fill="#28F2FF"/><path d="M1303.9 682.652c-1.97 2.52-4.54 3.78-7.71 3.78s-5.73-1.248-7.7-3.744c-1.95-2.52-2.92-5.616-2.92-9.288 0-3.624.99-6.696 2.95-9.216 2-2.544 4.58-3.816 7.74-3.816 3.17 0 5.73 1.26 7.67 3.78 1.95 2.496 2.92 5.58 2.92 9.252 0 3.624-.99 6.708-2.95 9.252Zm-13.22-1.872c1.44 2.04 3.3 3.06 5.58 3.06 2.28 0 4.12-1.008 5.51-3.024 1.42-2.04 2.13-4.512 2.13-7.416 0-2.856-.72-5.304-2.16-7.344-1.42-2.064-3.27-3.096-5.55-3.096s-4.13 1.02-5.54 3.06c-1.42 2.016-2.13 4.476-2.13 7.38 0 2.856.72 5.316 2.16 7.38Zm22.26 5.22v-3.78h3.31V686h-3.31Zm18.76.432c-3.33 0-6.33-1.332-9-3.996l1.87-2.052c2.38 2.304 4.77 3.456 7.17 3.456 1.8 0 3.26-.528 4.39-1.584s1.69-2.412 1.69-4.068c0-1.56-.59-2.832-1.76-3.816-1.15-.984-2.65-1.476-4.5-1.476-1.73 0-3.49.48-5.29 1.44l-1.91-1.26.72-12.276h14.51v2.628h-12.03l-.54 8.064c1.71-.744 3.36-1.116 4.97-1.116 2.52 0 4.6.708 6.23 2.124 1.65 1.392 2.48 3.276 2.48 5.652 0 2.448-.84 4.44-2.52 5.976-1.68 1.536-3.84 2.304-6.48 2.304Zm24.6-14.94c-1.08 1.272-2.45 1.908-4.1 1.908-1.66 0-3.03-.624-4.11-1.872-1.05-1.272-1.58-2.796-1.58-4.572 0-1.752.54-3.264 1.62-4.536 1.08-1.272 2.46-1.908 4.14-1.908 1.66 0 3.01.636 4.07 1.908 1.05 1.248 1.58 2.76 1.58 4.536 0 1.752-.54 3.264-1.62 4.536ZM1349.1 686l18.51-25.2h2.55l-18.47 25.2h-2.59Zm17.93.288c-1.66 0-3.01-.624-4.07-1.872-1.05-1.272-1.58-2.796-1.58-4.572 0-1.752.54-3.264 1.62-4.536 1.08-1.272 2.45-1.908 4.1-1.908 1.66 0 3.01.636 4.07 1.908 1.06 1.248 1.58 2.76 1.58 4.536 0 1.776-.54 3.3-1.62 4.572-1.05 1.248-2.42 1.872-4.1 1.872Zm-14.76-14.904c.96 0 1.74-.42 2.34-1.26.62-.864.94-1.92.94-3.168 0-1.248-.33-2.292-.98-3.132-.64-.864-1.44-1.296-2.37-1.296-.96 0-1.75.432-2.38 1.296-.6.84-.9 1.884-.9 3.132 0 1.248.33 2.304.97 3.168.65.84 1.44 1.26 2.38 1.26Zm14.83 12.888c.99 0 1.78-.42 2.38-1.26.6-.84.9-1.896.9-3.168 0-1.248-.33-2.292-.97-3.132-.65-.864-1.44-1.296-2.38-1.296-.96 0-1.75.432-2.38 1.296-.6.84-.9 1.884-.9 3.132 0 1.248.33 2.304.98 3.168.64.84 1.44 1.26 2.37 1.26Z" fill="#3042FF"/><path d="M1090.81 29v-2.196l9.14-8.064c1.97-1.728 3.34-3.168 4.11-4.32.76-1.152 1.15-2.352 1.15-3.6 0-1.44-.49-2.604-1.48-3.492-.98-.888-2.18-1.332-3.6-1.332-1.37 0-2.58.348-3.63 1.044-1.04.696-2.08 1.788-3.14 3.276l-2.08-1.512c1.22-1.824 2.52-3.168 3.88-4.032 1.37-.888 3.1-1.332 5.19-1.332 2.25 0 4.11.684 5.58 2.052 1.49 1.344 2.23 3.06 2.23 5.148 0 1.728-.47 3.264-1.4 4.608-.94 1.344-2.6 3.072-4.97 5.184l-6.73 5.976h13.35V29h-17.6Zm24.39 0v-3.78h3.31V29h-3.31Zm18.76.432c-3.33 0-6.33-1.332-9-3.996l1.87-2.052c2.38 2.304 4.77 3.456 7.17 3.456 1.8 0 3.26-.528 4.39-1.584s1.69-2.412 1.69-4.068c0-1.56-.59-2.832-1.76-3.816-1.15-.984-2.65-1.476-4.5-1.476-1.73 0-3.49.48-5.29 1.44l-1.91-1.26.72-12.276h14.51v2.628h-12.03l-.54 8.064c1.71-.744 3.36-1.116 4.97-1.116 2.52 0 4.6.708 6.23 2.124 1.65 1.392 2.48 3.276 2.48 5.652 0 2.448-.84 4.44-2.52 5.976-1.68 1.536-3.84 2.304-6.48 2.304Zm24.6-14.94c-1.08 1.272-2.45 1.908-4.1 1.908-1.66 0-3.03-.624-4.11-1.872-1.05-1.272-1.58-2.796-1.58-4.572 0-1.752.54-3.264 1.62-4.536 1.08-1.272 2.46-1.908 4.14-1.908 1.66 0 3.01.636 4.07 1.908 1.05 1.248 1.58 2.76 1.58 4.536 0 1.752-.54 3.264-1.62 4.536ZM1151.36 29l18.51-25.2h2.55L1153.95 29h-2.59Zm17.93.288c-1.66 0-3.01-.624-4.07-1.872-1.05-1.272-1.58-2.796-1.58-4.572 0-1.752.54-3.264 1.62-4.536 1.08-1.272 2.45-1.908 4.1-1.908 1.66 0 3.01.636 4.07 1.908 1.06 1.248 1.58 2.76 1.58 4.536 0 1.776-.54 3.3-1.62 4.572-1.05 1.248-2.42 1.872-4.1 1.872Zm-14.76-14.904c.96 0 1.74-.42 2.34-1.26.62-.864.94-1.92.94-3.168 0-1.248-.33-2.292-.98-3.132-.64-.864-1.44-1.296-2.37-1.296-.96 0-1.75.432-2.38 1.296-.6.84-.9 1.884-.9 3.132 0 1.248.33 2.304.97 3.168.65.84 1.44 1.26 2.38 1.26Zm14.83 12.888c.99 0 1.78-.42 2.38-1.26.6-.84.9-1.896.9-3.168 0-1.248-.33-2.292-.97-3.132-.65-.864-1.44-1.296-2.38-1.296-.96 0-1.75.432-2.38 1.296-.6.84-.9 1.884-.9 3.132 0 1.248.33 2.304.98 3.168.64.84 1.44 1.26 2.37 1.26Z" fill="#E7FF53"/><path d="M88.13 686v-2.196l9.143-8.064c1.968-1.728 3.336-3.168 4.104-4.32.768-1.152 1.152-2.352 1.152-3.6 0-1.44-.492-2.604-1.476-3.492-.984-.888-2.184-1.332-3.6-1.332-1.368 0-2.58.348-3.636 1.044-1.032.696-2.076 1.788-3.132 3.276l-2.088-1.512c1.224-1.824 2.52-3.168 3.888-4.032 1.368-.888 3.096-1.332 5.184-1.332 2.256 0 4.116.684 5.58 2.052 1.488 1.344 2.232 3.06 2.232 5.148 0 1.728-.468 3.264-1.404 4.608-.936 1.344-2.592 3.072-4.968 5.184l-6.732 5.976h13.356V686H88.129Zm26.132 0 11.376-22.608h-13.86V660.8h17.1v2.124L117.43 686h-3.168Zm29.977-14.508c-1.08 1.272-2.448 1.908-4.104 1.908-1.656 0-3.024-.624-4.104-1.872-1.056-1.272-1.584-2.796-1.584-4.572 0-1.752.54-3.264 1.62-4.536 1.08-1.272 2.46-1.908 4.14-1.908 1.656 0 3.012.636 4.068 1.908 1.056 1.248 1.584 2.76 1.584 4.536 0 1.752-.54 3.264-1.62 4.536Zm-7.2 14.508 18.504-25.2h2.556L139.631 686h-2.592Zm17.928.288c-1.656 0-3.012-.624-4.068-1.872-1.056-1.272-1.584-2.796-1.584-4.572 0-1.752.54-3.264 1.62-4.536 1.08-1.272 2.448-1.908 4.104-1.908 1.656 0 3.012.636 4.068 1.908 1.056 1.248 1.584 2.76 1.584 4.536 0 1.776-.54 3.3-1.62 4.572-1.056 1.248-2.424 1.872-4.104 1.872Zm-14.76-14.904c.96 0 1.74-.42 2.34-1.26.624-.864.936-1.92.936-3.168 0-1.248-.324-2.292-.972-3.132-.648-.864-1.44-1.296-2.376-1.296-.96 0-1.752.432-2.376 1.296-.6.84-.9 1.884-.9 3.132 0 1.248.324 2.304.972 3.168.648.84 1.44 1.26 2.376 1.26Zm14.832 12.888c.984 0 1.776-.42 2.376-1.26.6-.84.9-1.896.9-3.168 0-1.248-.324-2.292-.972-3.132-.648-.864-1.44-1.296-2.376-1.296-.96 0-1.752.432-2.376 1.296-.6.84-.9 1.884-.9 3.132 0 1.248.324 2.304.972 3.168.648.84 1.44 1.26 2.376 1.26Z" fill="#E128FF"/><path d="M271.886 845v-2.196l9.144-8.064c1.968-1.728 3.336-3.168 4.104-4.32.768-1.152 1.152-2.352 1.152-3.6 0-1.44-.492-2.604-1.476-3.492-.984-.888-2.184-1.332-3.6-1.332-1.368 0-2.58.348-3.636 1.044-1.032.696-2.076 1.788-3.132 3.276l-2.088-1.512c1.224-1.824 2.52-3.168 3.888-4.032 1.368-.888 3.096-1.332 5.184-1.332 2.256 0 4.116.684 5.58 2.052 1.488 1.344 2.232 3.06 2.232 5.148 0 1.728-.468 3.264-1.404 4.608-.936 1.344-2.592 3.072-4.968 5.184l-6.732 5.976h13.356V845h-17.604Zm32.531.432c-3.336 0-6.336-1.332-9-3.996l1.872-2.052c2.376 2.304 4.764 3.456 7.164 3.456 1.8 0 3.264-.528 4.392-1.584 1.128-1.056 1.692-2.412 1.692-4.068 0-1.56-.588-2.832-1.764-3.816-1.152-.984-2.652-1.476-4.5-1.476-1.728 0-3.492.48-5.292 1.44l-1.908-1.26.72-12.276h14.508v2.628h-12.024l-.54 8.064c1.704-.744 3.36-1.116 4.968-1.116 2.52 0 4.596.708 6.228 2.124 1.656 1.392 2.484 3.276 2.484 5.652 0 2.448-.84 4.44-2.52 5.976-1.68 1.536-3.84 2.304-6.48 2.304Zm15.707-.432v-3.78h3.312V845h-3.312Zm18.76.432c-3.336 0-6.336-1.332-9-3.996l1.872-2.052c2.376 2.304 4.764 3.456 7.164 3.456 1.8 0 3.264-.528 4.392-1.584 1.128-1.056 1.692-2.412 1.692-4.068 0-1.56-.588-2.832-1.764-3.816-1.152-.984-2.652-1.476-4.5-1.476-1.728 0-3.492.48-5.292 1.44l-1.908-1.26.72-12.276h14.508v2.628h-12.024l-.54 8.064c1.704-.744 3.36-1.116 4.968-1.116 2.52 0 4.596.708 6.228 2.124 1.656 1.392 2.484 3.276 2.484 5.652 0 2.448-.84 4.44-2.52 5.976-1.68 1.536-3.84 2.304-6.48 2.304Zm24.599-14.94c-1.08 1.272-2.448 1.908-4.104 1.908-1.656 0-3.024-.624-4.104-1.872-1.056-1.272-1.584-2.796-1.584-4.572 0-1.752.54-3.264 1.62-4.536 1.08-1.272 2.46-1.908 4.14-1.908 1.656 0 3.012.636 4.068 1.908 1.056 1.248 1.584 2.76 1.584 4.536 0 1.752-.54 3.264-1.62 4.536Zm-7.2 14.508 18.504-25.2h2.556L358.875 845h-2.592Zm17.928.288c-1.656 0-3.012-.624-4.068-1.872-1.056-1.272-1.584-2.796-1.584-4.572 0-1.752.54-3.264 1.62-4.536 1.08-1.272 2.448-1.908 4.104-1.908 1.656 0 3.012.636 4.068 1.908 1.056 1.248 1.584 2.76 1.584 4.536 0 1.776-.54 3.3-1.62 4.572-1.056 1.248-2.424 1.872-4.104 1.872Zm-14.76-14.904c.96 0 1.74-.42 2.34-1.26.624-.864.936-1.92.936-3.168 0-1.248-.324-2.292-.972-3.132-.648-.864-1.44-1.296-2.376-1.296-.96 0-1.752.432-2.376 1.296-.6.84-.9 1.884-.9 3.132 0 1.248.324 2.304.972 3.168.648.84 1.44 1.26 2.376 1.26Zm14.832 12.888c.984 0 1.776-.42 2.376-1.26.6-.84.9-1.896.9-3.168 0-1.248-.324-2.292-.972-3.132-.648-.864-1.44-1.296-2.376-1.296-.96 0-1.752.432-2.376 1.296-.6.84-.9 1.884-.9 3.132 0 1.248.324 2.304.972 3.168.648.84 1.44 1.26 2.376 1.26Z" fill="#60FF28"/><path d="M38.04 487v-2.196l9.145-8.064c1.968-1.728 3.336-3.168 4.104-4.32.768-1.152 1.152-2.352 1.152-3.6 0-1.44-.492-2.604-1.476-3.492-.984-.888-2.184-1.332-3.6-1.332-1.368 0-2.58.348-3.636 1.044-1.032.696-2.076 1.788-3.132 3.276l-2.088-1.512c1.224-1.824 2.52-3.168 3.888-4.032 1.368-.888 3.096-1.332 5.184-1.332 2.256 0 4.116.684 5.58 2.052 1.488 1.344 2.232 3.06 2.232 5.148 0 1.728-.468 3.264-1.404 4.608-.936 1.344-2.592 3.072-4.968 5.184l-6.732 5.976h13.356V487H38.04Zm33.288-14.508c-1.08 1.272-2.448 1.908-4.104 1.908-1.656 0-3.024-.624-4.104-1.872-1.056-1.272-1.584-2.796-1.584-4.572 0-1.752.54-3.264 1.62-4.536 1.08-1.272 2.46-1.908 4.14-1.908 1.656 0 3.012.636 4.068 1.908 1.056 1.248 1.584 2.76 1.584 4.536 0 1.752-.54 3.264-1.62 4.536ZM64.128 487l18.504-25.2h2.556L66.72 487h-2.592Zm17.928.288c-1.656 0-3.012-.624-4.068-1.872-1.056-1.272-1.584-2.796-1.584-4.572 0-1.752.54-3.264 1.62-4.536 1.08-1.272 2.448-1.908 4.104-1.908 1.656 0 3.012.636 4.068 1.908 1.056 1.248 1.584 2.76 1.584 4.536 0 1.776-.54 3.3-1.62 4.572-1.056 1.248-2.424 1.872-4.104 1.872Zm-14.76-14.904c.96 0 1.74-.42 2.34-1.26.624-.864.936-1.92.936-3.168 0-1.248-.324-2.292-.972-3.132-.648-.864-1.44-1.296-2.376-1.296-.96 0-1.752.432-2.376 1.296-.6.84-.9 1.884-.9 3.132 0 1.248.324 2.304.972 3.168.648.84 1.44 1.26 2.376 1.26Zm14.832 12.888c.984 0 1.776-.42 2.376-1.26.6-.84.9-1.896.9-3.168 0-1.248-.324-2.292-.972-3.132-.648-.864-1.44-1.296-2.376-1.296-.96 0-1.752.432-2.376 1.296-.6.84-.9 1.884-.9 3.132 0 1.248.324 2.304.972 3.168.648.84 1.44 1.26 2.376 1.26Z" fill="#FFD028"/><path d="M93.04 247v-2.196l9.145-8.064c1.968-1.728 3.336-3.168 4.104-4.32.768-1.152 1.152-2.352 1.152-3.6 0-1.44-.492-2.604-1.476-3.492-.984-.888-2.184-1.332-3.6-1.332-1.368 0-2.58.348-3.636 1.044-1.032.696-2.076 1.788-3.132 3.276l-2.088-1.512c1.224-1.824 2.52-3.168 3.888-4.032 1.368-.888 3.096-1.332 5.184-1.332 2.256 0 4.116.684 5.58 2.052 1.488 1.344 2.232 3.06 2.232 5.148 0 1.728-.468 3.264-1.404 4.608-.936 1.344-2.592 3.072-4.968 5.184l-6.732 5.976h13.356V247H93.041Zm33.288-14.508c-1.08 1.272-2.448 1.908-4.104 1.908-1.656 0-3.024-.624-4.104-1.872-1.056-1.272-1.584-2.796-1.584-4.572 0-1.752.54-3.264 1.62-4.536 1.08-1.272 2.46-1.908 4.14-1.908 1.656 0 3.012.636 4.068 1.908 1.056 1.248 1.584 2.76 1.584 4.536 0 1.752-.54 3.264-1.62 4.536Zm-7.2 14.508 18.504-25.2h2.556L121.72 247h-2.592Zm17.928.288c-1.656 0-3.012-.624-4.068-1.872-1.056-1.272-1.584-2.796-1.584-4.572 0-1.752.54-3.264 1.62-4.536 1.08-1.272 2.448-1.908 4.104-1.908 1.656 0 3.012.636 4.068 1.908 1.056 1.248 1.584 2.76 1.584 4.536 0 1.776-.54 3.3-1.62 4.572-1.056 1.248-2.424 1.872-4.104 1.872Zm-14.76-14.904c.96 0 1.74-.42 2.34-1.26.624-.864.936-1.92.936-3.168 0-1.248-.324-2.292-.972-3.132-.648-.864-1.44-1.296-2.376-1.296-.96 0-1.752.432-2.376 1.296-.6.84-.9 1.884-.9 3.132 0 1.248.324 2.304.972 3.168.648.84 1.44 1.26 2.376 1.26Zm14.832 12.888c.984 0 1.776-.42 2.376-1.26.6-.84.9-1.896.9-3.168 0-1.248-.324-2.292-.972-3.132-.648-.864-1.44-1.296-2.376-1.296-.96 0-1.752.432-2.376 1.296-.6.84-.9 1.884-.9 3.132 0 1.248.324 2.304.972 3.168.648.84 1.44 1.26 2.376 1.26Z" fill="#5AAB28"/><circle opacity=".1" cx="718.5" cy="467.5" r="252.5" stroke="#fff" stroke-width="172" stroke-dasharray="1 30"/><g filter="url(#a)"><path d="M1057 467.5C1057 654.448 905.448 806 718.5 806S380 654.448 380 467.5 531.552 129 718.5 129 1057 280.552 1057 467.5Zm-630.105 0c0 161.049 130.556 291.605 291.605 291.605s291.6-130.556 291.6-291.605-130.551-291.605-291.6-291.605c-161.049 0-291.605 130.556-291.605 291.605Z" fill="#253CFB"/><path d="M1057 467.5C1057 654.448 905.448 806 718.5 806S380 654.448 380 467.5 531.552 129 718.5 129 1057 280.552 1057 467.5Zm-630.105 0c0 161.049 130.556 291.605 291.605 291.605s291.6-130.556 291.6-291.605-130.551-291.605-291.6-291.605c-161.049 0-291.605 130.556-291.605 291.605Z" fill="url(#b)"/><path d="M1057 467.5C1057 654.448 905.448 806 718.5 806S380 654.448 380 467.5 531.552 129 718.5 129 1057 280.552 1057 467.5Zm-630.105 0c0 161.049 130.556 291.605 291.605 291.605s291.6-130.556 291.6-291.605-130.551-291.605-291.6-291.605c-161.049 0-291.605 130.556-291.605 291.605Z" fill="url(#c)"/><path d="M1057 467.5C1057 654.448 905.448 806 718.5 806S380 654.448 380 467.5 531.552 129 718.5 129 1057 280.552 1057 467.5Zm-630.105 0c0 161.049 130.556 291.605 291.605 291.605s291.6-130.556 291.6-291.605-130.551-291.605-291.6-291.605c-161.049 0-291.605 130.556-291.605 291.605Z" fill="url(#d)"/></g><path d="M1259.23 290v-15.4h5.76c1.76 0 3.16.44 4.2 1.32 1.05.88 1.57 2.083 1.57 3.608 0 1.599-.58 2.838-1.74 3.718-1.15.88-2.58 1.32-4.31 1.32h-3.74V290h-1.74Zm1.74-7.018h3.8c1.28 0 2.3-.308 3.06-.924.78-.631 1.17-1.467 1.17-2.508 0-1.071-.38-1.892-1.13-2.464-.73-.587-1.73-.88-3.01-.88h-3.89v6.776Zm14.05 7.018v-15.4h6.63c1.89 0 3.35.513 4.37 1.54.8.792 1.19 1.819 1.19 3.08 0 1.232-.38 2.229-1.14 2.992-.76.763-1.78 1.261-3.04 1.496l4.73 6.292h-2.13l-4.47-5.984h-4.4V290h-1.74Zm1.74-7.546h4.73c1.18 0 2.13-.286 2.86-.858.74-.572 1.1-1.357 1.1-2.354 0-.953-.35-1.694-1.05-2.222-.69-.543-1.65-.814-2.89-.814h-4.75v6.248Zm15.42 7.546v-15.4h1.73V290h-1.73Zm12.65.11-6.63-15.51h1.94l5.48 13.266 5.5-13.266h1.87l-6.62 15.51h-1.54Zm8.78-.11 7.02-15.51h1.63l7.02 15.51h-1.87l-1.81-4.07h-8.38l-1.82 4.07h-1.79Zm4.29-5.632h7.02l-3.5-7.854-3.52 7.854Zm17.61 5.632v-13.794h-5.17V274.6h12.1v1.606h-5.17V290h-1.76Zm11.29 0v-15.4h11.14v1.584h-9.4v5.258h8.41v1.584h-8.41v5.39h9.51V290h-11.25Zm28.82.22c-2.36 0-4.46-.821-6.29-2.464l1.07-1.276c.82.748 1.65 1.298 2.47 1.65.83.352 1.77.528 2.81.528 1.03 0 1.86-.242 2.49-.726.63-.499.95-1.144.95-1.936 0-.748-.28-1.342-.84-1.782-.56-.44-1.61-.821-3.17-1.144-1.83-.396-3.15-.931-3.96-1.606s-1.21-1.635-1.21-2.882c0-1.217.48-2.222 1.43-3.014.95-.792 2.16-1.188 3.63-1.188 2.04 0 3.84.631 5.41 1.892l-1.01 1.342c-1.36-1.115-2.84-1.672-4.44-1.672-.99 0-1.78.242-2.38.726-.6.469-.9 1.071-.9 1.804 0 .763.29 1.364.86 1.804.58.44 1.69.836 3.32 1.188 1.74.381 3.01.917 3.81 1.606.8.675 1.21 1.606 1.21 2.794 0 1.305-.5 2.361-1.48 3.168-.98.792-2.24 1.188-3.78 1.188Zm8.25-.22 7.02-15.51h1.62l7.02 15.51h-1.87l-1.8-4.07h-8.38l-1.83 4.07h-1.78Zm4.29-5.632h7.02l-3.5-7.854-3.52 7.854Zm15.51 5.632v-15.4h1.74v13.794h8.66V290h-10.4Zm14.72 0v-15.4h11.13v1.584h-9.39v5.258h8.4v1.584h-8.4v5.39h9.5V290h-11.24Z" fill="#fff"/><path d="M1352.83 486v-5.976h-13.28l-.72-2.052 14.25-17.352h2.49v17.028h3.92v2.376h-3.92V486h-2.74Zm-10.58-8.352h10.58v-12.996l-10.58 12.996ZM1366 486v-3.78h3.31V486H1366Zm18.76.432c-3.33 0-6.33-1.332-9-3.996l1.88-2.052c2.37 2.304 4.76 3.456 7.16 3.456 1.8 0 3.26-.528 4.39-1.584s1.69-2.412 1.69-4.068c0-1.56-.58-2.832-1.76-3.816-1.15-.984-2.65-1.476-4.5-1.476-1.73 0-3.49.48-5.29 1.44l-1.91-1.26.72-12.276h14.51v2.628h-12.03l-.54 8.064c1.71-.744 3.36-1.116 4.97-1.116 2.52 0 4.6.708 6.23 2.124 1.66 1.392 2.48 3.276 2.48 5.652 0 2.448-.84 4.44-2.52 5.976-1.68 1.536-3.84 2.304-6.48 2.304Zm24.6-14.94c-1.08 1.272-2.45 1.908-4.1 1.908-1.66 0-3.03-.624-4.11-1.872-1.05-1.272-1.58-2.796-1.58-4.572 0-1.752.54-3.264 1.62-4.536 1.08-1.272 2.46-1.908 4.14-1.908 1.66 0 3.01.636 4.07 1.908 1.05 1.248 1.58 2.76 1.58 4.536 0 1.752-.54 3.264-1.62 4.536Zm-7.2 14.508 18.51-25.2h2.55l-18.47 25.2h-2.59Zm17.93.288c-1.66 0-3.01-.624-4.07-1.872-1.05-1.272-1.58-2.796-1.58-4.572 0-1.752.54-3.264 1.62-4.536 1.08-1.272 2.45-1.908 4.1-1.908 1.66 0 3.01.636 4.07 1.908 1.06 1.248 1.58 2.76 1.58 4.536 0 1.776-.54 3.3-1.62 4.572-1.05 1.248-2.42 1.872-4.1 1.872Zm-14.76-14.904c.96 0 1.74-.42 2.34-1.26.62-.864.94-1.92.94-3.168 0-1.248-.33-2.292-.98-3.132-.64-.864-1.44-1.296-2.37-1.296-.96 0-1.75.432-2.38 1.296-.6.84-.9 1.884-.9 3.132 0 1.248.33 2.304.97 3.168.65.84 1.44 1.26 2.38 1.26Zm14.83 12.888c.99 0 1.78-.42 2.38-1.26.6-.84.9-1.896.9-3.168 0-1.248-.33-2.292-.97-3.132-.65-.864-1.44-1.296-2.38-1.296-.96 0-1.75.432-2.38 1.296-.6.84-.9 1.884-.9 3.132 0 1.248.33 2.304.98 3.168.64.84 1.44 1.26 2.37 1.26Z" fill="#FF5656"/><path d="M1304.37 529v-15.4h5.76c1.76 0 3.16.44 4.21 1.32 1.04.88 1.56 2.083 1.56 3.608 0 1.599-.58 2.838-1.74 3.718-1.14.88-2.58 1.32-4.31 1.32h-3.74V529h-1.74Zm1.74-7.018h3.8c1.28 0 2.3-.308 3.06-.924.78-.631 1.17-1.467 1.17-2.508 0-1.071-.38-1.892-1.12-2.464-.74-.587-1.74-.88-3.02-.88h-3.89v6.776Zm20.21 7.26c-1.95 0-3.5-.579-4.66-1.738-1.16-1.173-1.74-2.823-1.74-4.95V513.6h1.74v8.844c0 1.657.41 2.941 1.23 3.85.84.895 2 1.342 3.48 1.342 1.45 0 2.59-.433 3.41-1.298.82-.865 1.23-2.127 1.23-3.784V513.6h1.74v8.822c0 2.2-.58 3.887-1.74 5.06-1.16 1.173-2.72 1.76-4.69 1.76Zm11.64-.242v-15.4h6.55c1.81 0 3.15.455 4.03 1.364.66.689.99 1.525.99 2.508 0 1.672-.81 2.86-2.44 3.564 2.2.66 3.3 1.914 3.3 3.762 0 1.305-.51 2.332-1.52 3.08-1.01.748-2.37 1.122-4.07 1.122h-6.84Zm1.71-8.536h4.56c1.07 0 1.93-.242 2.57-.726.65-.484.97-1.173.97-2.068 0-.777-.3-1.386-.9-1.826-.59-.455-1.42-.682-2.51-.682h-4.69v5.302Zm0 6.974h5.17c1.18 0 2.1-.242 2.78-.726.67-.499 1.01-1.188 1.01-2.068 0-.851-.35-1.503-1.06-1.958-.69-.455-1.7-.682-3.03-.682h-4.87v5.434Zm15.27 1.562v-15.4h1.73v13.794h8.67V529h-10.4Zm14.87 0v-15.4h1.74V529h-1.74Zm14.39.264c-2.22 0-4.06-.763-5.52-2.288-1.47-1.54-2.2-3.432-2.2-5.676 0-2.215.74-4.092 2.22-5.632 1.48-1.555 3.34-2.332 5.56-2.332 1.3 0 2.4.213 3.3.638.91.411 1.8 1.027 2.67 1.848l-1.15 1.232c-1.48-1.408-3.09-2.112-4.84-2.112-1.7 0-3.12.609-4.27 1.826-1.12 1.217-1.69 2.728-1.69 4.532 0 1.789.57 3.3 1.72 4.532 1.14 1.217 2.56 1.826 4.24 1.826 1 0 1.88-.183 2.64-.55.77-.367 1.54-.924 2.33-1.672l1.15 1.21c-.87.865-1.78 1.518-2.73 1.958-.95.44-2.1.66-3.43.66Zm23.28-.044c-2.36 0-4.46-.821-6.3-2.464l1.08-1.276c.82.748 1.65 1.298 2.47 1.65.83.352 1.77.528 2.81.528 1.03 0 1.86-.242 2.49-.726.63-.499.94-1.144.94-1.936 0-.748-.27-1.342-.83-1.782-.56-.44-1.61-.821-3.17-1.144-1.83-.396-3.15-.931-3.96-1.606s-1.21-1.635-1.21-2.882c0-1.217.48-2.222 1.43-3.014.95-.792 2.16-1.188 3.63-1.188 2.04 0 3.84.631 5.41 1.892l-1.01 1.342c-1.36-1.115-2.84-1.672-4.44-1.672-.99 0-1.78.242-2.38.726-.6.469-.9 1.071-.9 1.804 0 .763.28 1.364.86 1.804.58.44 1.69.836 3.32 1.188 1.74.381 3.01.917 3.8 1.606.81.675 1.21 1.606 1.21 2.794 0 1.305-.49 2.361-1.47 3.168-.98.792-2.24 1.188-3.78 1.188Zm8.25-.22 7.01-15.51h1.63l7.02 15.51h-1.87l-1.8-4.07h-8.39l-1.82 4.07h-1.78Zm4.29-5.632h7.01l-3.49-7.854-3.52 7.854Zm15.51 5.632v-15.4h1.74v13.794h8.66V529h-10.4Zm14.72 0v-15.4h11.13v1.584h-9.39v5.258h8.4v1.584h-8.4v5.39h9.5V529h-11.24ZM39.114 290.264c-2.214 0-4.055-.763-5.522-2.288-1.466-1.54-2.2-3.432-2.2-5.676 0-2.215.741-4.092 2.222-5.632 1.482-1.555 3.337-2.332 5.566-2.332 1.291 0 2.391.213 3.3.638.91.411 1.797 1.027 2.662 1.848l-1.144 1.232c-1.481-1.408-3.094-2.112-4.84-2.112-1.701 0-3.124.609-4.268 1.826-1.129 1.217-1.694 2.728-1.694 4.532 0 1.789.572 3.3 1.716 4.532 1.144 1.217 2.56 1.826 4.246 1.826.998 0 1.878-.183 2.64-.55.763-.367 1.54-.924 2.332-1.672l1.144 1.21c-.865.865-1.774 1.518-2.728 1.958-.953.44-2.097.66-3.432.66Zm22.677-2.332c-1.481 1.555-3.366 2.332-5.654 2.332s-4.166-.777-5.632-2.332c-1.467-1.555-2.2-3.432-2.2-5.632 0-2.185.74-4.055 2.222-5.61 1.481-1.569 3.366-2.354 5.654-2.354s4.165.777 5.632 2.332c1.466 1.555 2.2 3.432 2.2 5.632 0 2.185-.74 4.063-2.222 5.632Zm-9.966-1.122c1.158 1.232 2.61 1.848 4.356 1.848 1.745 0 3.183-.609 4.312-1.826 1.144-1.232 1.716-2.743 1.716-4.532 0-1.775-.58-3.278-1.738-4.51-1.144-1.232-2.589-1.848-4.334-1.848-1.745 0-3.19.616-4.334 1.848-1.13 1.217-1.694 2.721-1.694 4.51 0 1.775.572 3.278 1.716 4.51ZM68.778 290v-15.4h1.76l5.61 8.404 5.61-8.404h1.76V290H81.78v-12.474l-5.61 8.25h-.088l-5.61-8.228V290h-1.694Zm20.2 0v-15.4h1.76l5.61 8.404 5.61-8.404h1.76V290h-1.738v-12.474l-5.61 8.25h-.088l-5.61-8.228V290h-1.694Zm26.359.242c-1.95 0-3.505-.579-4.664-1.738-1.158-1.173-1.738-2.823-1.738-4.95V274.6h1.738v8.844c0 1.657.411 2.941 1.232 3.85.836.895 1.995 1.342 3.476 1.342 1.452 0 2.589-.433 3.41-1.298.822-.865 1.232-2.127 1.232-3.784V274.6h1.738v8.822c0 2.2-.579 3.887-1.738 5.06-1.158 1.173-2.72 1.76-4.686 1.76Zm11.634-.242v-15.4h1.628l9.702 12.342V274.6h1.694V290h-1.386l-9.944-12.628V290h-1.694Zm18.635 0v-15.4h1.738V290h-1.738Zm11.418 0v-13.794h-5.17V274.6h12.1v1.606h-5.17V290h-1.76Zm16.114 0v-6.094l-6.402-9.306h2.112l5.192 7.7 5.236-7.7h2.024l-6.402 9.284V290h-1.76Zm30.835.308-2.42-2.486c-1.481 1.599-3.16 2.398-5.038 2.398-1.408 0-2.566-.403-3.476-1.21-.909-.807-1.364-1.855-1.364-3.146 0-1.995 1.24-3.476 3.718-4.444-.542-.631-.938-1.203-1.188-1.716a4.188 4.188 0 0 1-.352-1.716c0-1.027.374-1.892 1.122-2.596.763-.704 1.746-1.056 2.948-1.056 1.071 0 1.958.345 2.662 1.034.719.675 1.078 1.503 1.078 2.486 0 1.819-1.21 3.153-3.63 4.004l3.52 3.586c.66-.953 1.276-2.097 1.848-3.432l1.43.66c-.777 1.657-1.518 2.948-2.222 3.872l2.684 2.75-1.32 1.012Zm-6.908-9.438c1.98-.675 2.97-1.665 2.97-2.97 0-.616-.205-1.122-.616-1.518-.41-.411-.931-.616-1.562-.616-.689 0-1.254.213-1.694.638-.425.425-.638.968-.638 1.628 0 .455.11.887.33 1.298.22.396.624.909 1.21 1.54Zm-.418 7.876c1.35 0 2.633-.667 3.85-2.002l-4.114-4.246c-.982.367-1.723.843-2.222 1.43-.484.572-.726 1.21-.726 1.914 0 .836.301 1.533.902 2.09.602.543 1.372.814 2.31.814ZM55.384 312l7.018-15.51h1.628L71.048 312h-1.87l-1.804-4.07h-8.382L57.166 312h-1.782Zm4.29-5.632h7.018l-3.498-7.854-3.52 7.854ZM75.339 312v-15.4h1.738V312h-1.738Zm7.348 0v-15.4h6.622c1.892 0 3.352.513 4.378 1.54.792.792 1.188 1.819 1.188 3.08 0 1.232-.381 2.229-1.144 2.992-.762.763-1.774 1.261-3.036 1.496l4.73 6.292h-2.134l-4.466-5.984h-4.4V312h-1.738Zm1.738-7.546h4.73c1.174 0 2.127-.286 2.86-.858.734-.572 1.1-1.357 1.1-2.354 0-.953-.352-1.694-1.056-2.222-.69-.543-1.65-.814-2.882-.814h-4.752v6.248ZM99.685 312v-15.4h5.347c2.405 0 4.37.733 5.896 2.2 1.525 1.452 2.288 3.285 2.288 5.5 0 2.2-.77 4.033-2.31 5.5-1.526 1.467-3.484 2.2-5.874 2.2h-5.346Zm1.739-1.606h3.608c1.921 0 3.461-.572 4.62-1.716 1.173-1.159 1.76-2.618 1.76-4.378 0-1.745-.587-3.197-1.76-4.356-1.174-1.159-2.714-1.738-4.62-1.738h-3.608v12.188ZM117.995 312v-15.4h6.622c1.892 0 3.351.513 4.378 1.54.792.792 1.188 1.819 1.188 3.08 0 1.232-.382 2.229-1.144 2.992-.763.763-1.775 1.261-3.036 1.496l4.73 6.292h-2.134l-4.466-5.984h-4.4V312h-1.738Zm1.738-7.546h4.73c1.173 0 2.126-.286 2.86-.858.733-.572 1.1-1.357 1.1-2.354 0-.953-.352-1.694-1.056-2.222-.69-.543-1.65-.814-2.882-.814h-4.752v6.248Zm28.064 5.478c-1.481 1.555-3.366 2.332-5.654 2.332s-4.165-.777-5.632-2.332c-1.467-1.555-2.2-3.432-2.2-5.632 0-2.185.741-4.055 2.222-5.61 1.481-1.569 3.366-2.354 5.654-2.354s4.165.777 5.632 2.332c1.467 1.555 2.2 3.432 2.2 5.632 0 2.185-.741 4.063-2.222 5.632Zm-9.966-1.122c1.159 1.232 2.611 1.848 4.356 1.848 1.745 0 3.183-.609 4.312-1.826 1.144-1.232 1.716-2.743 1.716-4.532 0-1.775-.579-3.278-1.738-4.51-1.144-1.232-2.589-1.848-4.334-1.848-1.745 0-3.19.616-4.334 1.848-1.129 1.217-1.694 2.721-1.694 4.51 0 1.775.572 3.278 1.716 4.51Zm16.953 3.19v-15.4h5.764c1.76 0 3.161.44 4.202 1.32 1.042.88 1.562 2.083 1.562 3.608 0 1.599-.579 2.838-1.738 3.718-1.144.88-2.581 1.32-4.312 1.32h-3.74V312h-1.738Zm1.738-7.018h3.806c1.276 0 2.296-.308 3.058-.924.778-.631 1.166-1.467 1.166-2.508 0-1.071-.374-1.892-1.122-2.464-.733-.587-1.738-.88-3.014-.88h-3.894v6.776Zm19.338 7.238c-2.362 0-4.459-.821-6.292-2.464l1.078-1.276c.821.748 1.642 1.298 2.464 1.65.836.352 1.774.528 2.816.528 1.026 0 1.855-.242 2.486-.726.63-.499.946-1.144.946-1.936 0-.748-.279-1.342-.836-1.782-.558-.44-1.614-.821-3.168-1.144-1.834-.396-3.154-.931-3.96-1.606-.807-.675-1.21-1.635-1.21-2.882 0-1.217.476-2.222 1.43-3.014.953-.792 2.163-1.188 3.63-1.188 2.038 0 3.842.631 5.412 1.892l-1.012 1.342c-1.364-1.115-2.846-1.672-4.444-1.672-.983 0-1.775.242-2.376.726-.602.469-.902 1.071-.902 1.804 0 .763.286 1.364.858 1.804.586.44 1.694.836 3.322 1.188 1.745.381 3.014.917 3.806 1.606.806.675 1.21 1.606 1.21 2.794 0 1.305-.492 2.361-1.474 3.168-.983.792-2.244 1.188-3.784 1.188ZM.889 529l7.018-15.51h1.628L16.553 529h-1.87l-1.804-4.07H4.497L2.67 529H.889Zm4.29-5.632h7.018l-3.498-7.854-3.52 7.854ZM20.689 529v-15.4h5.347c2.405 0 4.37.733 5.896 2.2 1.525 1.452 2.288 3.285 2.288 5.5 0 2.2-.77 4.033-2.31 5.5-1.526 1.467-3.484 2.2-5.874 2.2H20.69Zm1.739-1.606h3.608c1.921 0 3.461-.572 4.62-1.716 1.173-1.159 1.76-2.618 1.76-4.378 0-1.745-.587-3.197-1.76-4.356-1.174-1.159-2.714-1.738-4.62-1.738h-3.608v12.188Zm20.884 1.716L36.69 513.6h1.936l5.478 13.266 5.5-13.266h1.87l-6.622 15.51h-1.54Zm12.452-.11v-15.4h1.738V529h-1.738Zm12.629.22c-2.362 0-4.459-.821-6.292-2.464l1.078-1.276c.821.748 1.642 1.298 2.464 1.65.836.352 1.774.528 2.816.528 1.026 0 1.855-.242 2.486-.726.63-.499.946-1.144.946-1.936 0-.748-.279-1.342-.836-1.782-.558-.44-1.614-.821-3.168-1.144-1.834-.396-3.154-.931-3.96-1.606-.807-.675-1.21-1.635-1.21-2.882 0-1.217.476-2.222 1.43-3.014.953-.792 2.163-1.188 3.63-1.188 2.038 0 3.842.631 5.412 1.892l-1.012 1.342c-1.364-1.115-2.846-1.672-4.444-1.672-.983 0-1.775.242-2.376.726-.602.469-.902 1.071-.902 1.804 0 .763.286 1.364.858 1.804.586.44 1.694.836 3.322 1.188 1.745.381 3.014.917 3.806 1.606.806.675 1.21 1.606 1.21 2.794 0 1.305-.492 2.361-1.474 3.168-.983.792-2.244 1.188-3.784 1.188Zm22.696-2.288c-1.481 1.555-3.366 2.332-5.654 2.332s-4.165-.777-5.632-2.332c-1.467-1.555-2.2-3.432-2.2-5.632 0-2.185.74-4.055 2.222-5.61 1.481-1.569 3.366-2.354 5.654-2.354s4.165.777 5.632 2.332c1.467 1.555 2.2 3.432 2.2 5.632 0 2.185-.74 4.063-2.222 5.632Zm-9.966-1.122c1.159 1.232 2.61 1.848 4.356 1.848 1.745 0 3.183-.609 4.312-1.826 1.144-1.232 1.716-2.743 1.716-4.532 0-1.775-.58-3.278-1.738-4.51-1.144-1.232-2.589-1.848-4.334-1.848-1.745 0-3.19.616-4.334 1.848-1.13 1.217-1.694 2.721-1.694 4.51 0 1.775.572 3.278 1.716 4.51ZM98.076 529v-15.4h6.622c1.892 0 3.352.513 4.378 1.54.792.792 1.188 1.819 1.188 3.08 0 1.232-.381 2.229-1.144 2.992-.762.763-1.774 1.261-3.036 1.496l4.73 6.292h-2.134l-4.466-5.984h-4.4V529h-1.738Zm1.738-7.546h4.73c1.174 0 2.127-.286 2.86-.858.734-.572 1.1-1.357 1.1-2.354 0-.953-.352-1.694-1.056-2.222-.689-.543-1.65-.814-2.882-.814h-4.752v6.248Zm20.541 7.766c-2.361 0-4.459-.821-6.292-2.464l1.078-1.276c.821.748 1.643 1.298 2.464 1.65.836.352 1.775.528 2.816.528 1.027 0 1.855-.242 2.486-.726.631-.499.946-1.144.946-1.936 0-.748-.279-1.342-.836-1.782-.557-.44-1.613-.821-3.168-1.144-1.833-.396-3.153-.931-3.96-1.606-.807-.675-1.21-1.635-1.21-2.882 0-1.217.477-2.222 1.43-3.014.953-.792 2.163-1.188 3.63-1.188 2.039 0 3.843.631 5.412 1.892l-1.012 1.342c-1.364-1.115-2.845-1.672-4.444-1.672-.983 0-1.775.242-2.376.726-.601.469-.902 1.071-.902 1.804 0 .763.286 1.364.858 1.804.587.44 1.694.836 3.322 1.188 1.745.381 3.014.917 3.806 1.606.807.675 1.21 1.606 1.21 2.794 0 1.305-.491 2.361-1.474 3.168-.983.792-2.244 1.188-3.784 1.188ZM1218.38 728v-15.4h1.74v13.794h8.66V728h-10.4Zm13.4 0 7.02-15.51h1.63l7.01 15.51h-1.87l-1.8-4.07h-8.38l-1.83 4.07h-1.78Zm4.29-5.632h7.02l-3.5-7.854-3.52 7.854Zm21.11 5.874c-1.95 0-3.5-.579-4.66-1.738-1.16-1.173-1.74-2.823-1.74-4.95V712.6h1.74v8.844c0 1.657.41 2.941 1.23 3.85.84.895 1.99 1.342 3.48 1.342 1.45 0 2.58-.433 3.41-1.298.82-.865 1.23-2.127 1.23-3.784V712.6h1.74v8.822c0 2.2-.58 3.887-1.74 5.06-1.16 1.173-2.72 1.76-4.69 1.76Zm11.64-.242v-15.4h1.62l9.71 12.342V712.6h1.69V728h-1.39l-9.94-12.628V728h-1.69Zm25.52.264c-2.22 0-4.06-.763-5.53-2.288-1.46-1.54-2.2-3.432-2.2-5.676 0-2.215.74-4.092 2.23-5.632 1.48-1.555 3.33-2.332 5.56-2.332 1.29 0 2.39.213 3.3.638.91.411 1.8 1.027 2.66 1.848l-1.14 1.232c-1.48-1.408-3.09-2.112-4.84-2.112-1.7 0-3.12.609-4.27 1.826-1.13 1.217-1.69 2.728-1.69 4.532 0 1.789.57 3.3 1.71 4.532 1.15 1.217 2.56 1.826 4.25 1.826 1 0 1.88-.183 2.64-.55.76-.367 1.54-.924 2.33-1.672l1.15 1.21c-.87.865-1.78 1.518-2.73 1.958-.96.44-2.1.66-3.43.66Zm10.3-.264v-15.4h1.74v6.842h8.88V712.6h1.74V728h-1.74v-6.93h-8.88V728h-1.74Zm17.81 0v-15.4h5.77c1.76 0 3.16.44 4.2 1.32 1.04.88 1.56 2.083 1.56 3.608 0 1.599-.58 2.838-1.74 3.718-1.14.88-2.58 1.32-4.31 1.32h-3.74V728h-1.74Zm1.74-7.018h3.81c1.27 0 2.29-.308 3.06-.924.77-.631 1.16-1.467 1.16-2.508 0-1.071-.37-1.892-1.12-2.464-.73-.587-1.74-.88-3.01-.88h-3.9v6.776Zm11.19 7.018 7.02-15.51h1.63l7.02 15.51h-1.87l-1.81-4.07h-8.38l-1.83 4.07h-1.78Zm4.29-5.632h7.02l-3.5-7.854-3.52 7.854Zm15.51 5.632v-15.4h5.35c2.4 0 4.37.733 5.89 2.2 1.53 1.452 2.29 3.285 2.29 5.5 0 2.2-.77 4.033-2.31 5.5-1.52 1.467-3.48 2.2-5.87 2.2h-5.35Zm1.74-1.606h3.61c1.92 0 3.46-.572 4.62-1.716 1.17-1.159 1.76-2.618 1.76-4.378 0-1.745-.59-3.197-1.76-4.356-1.17-1.159-2.71-1.738-4.62-1.738h-3.61v12.188Zm29.55 1.826c-2.36 0-4.46-.821-6.29-2.464l1.07-1.276c.82.748 1.65 1.298 2.47 1.65.83.352 1.77.528 2.81.528 1.03 0 1.86-.242 2.49-.726.63-.499.95-1.144.95-1.936 0-.748-.28-1.342-.84-1.782-.56-.44-1.61-.821-3.17-1.144-1.83-.396-3.15-.931-3.96-1.606s-1.21-1.635-1.21-2.882c0-1.217.48-2.222 1.43-3.014.95-.792 2.16-1.188 3.63-1.188 2.04 0 3.84.631 5.41 1.892l-1.01 1.342c-1.36-1.115-2.84-1.672-4.44-1.672-.99 0-1.78.242-2.38.726-.6.469-.9 1.071-.9 1.804 0 .763.29 1.364.86 1.804.58.44 1.69.836 3.32 1.188 1.74.381 3.01.917 3.81 1.606.8.675 1.21 1.606 1.21 2.794 0 1.305-.5 2.361-1.48 3.168-.98.792-2.24 1.188-3.78 1.188Zm8.25-.22 7.02-15.51h1.62l7.02 15.51h-1.87l-1.8-4.07h-8.38l-1.83 4.07h-1.78Zm4.29-5.632h7.02l-3.5-7.854-3.52 7.854Zm15.51 5.632v-15.4h1.74v13.794h8.66V728h-10.4Zm14.72 0v-15.4h11.13v1.584h-9.39v5.258h8.4v1.584h-8.4v5.39h9.5V728h-11.24ZM1058.89 71.22c-2.36 0-4.45-.821-6.29-2.464l1.08-1.276c.82.748 1.64 1.298 2.46 1.65.84.352 1.78.528 2.82.528 1.03 0 1.86-.242 2.49-.726.63-.499.94-1.144.94-1.936 0-.748-.28-1.342-.83-1.782-.56-.44-1.62-.821-3.17-1.144-1.83-.396-3.15-.931-3.96-1.606s-1.21-1.635-1.21-2.882c0-1.217.48-2.222 1.43-3.014.95-.792 2.16-1.188 3.63-1.188 2.04 0 3.84.63 5.41 1.892l-1.01 1.342c-1.37-1.115-2.85-1.672-4.45-1.672-.98 0-1.77.242-2.37.726-.6.47-.9 1.07-.9 1.804 0 .763.28 1.364.85 1.804.59.44 1.7.836 3.33 1.188 1.74.381 3.01.917 3.8 1.606.81.675 1.21 1.606 1.21 2.794 0 1.305-.49 2.361-1.47 3.168-.98.792-2.25 1.188-3.79 1.188Zm9.9-.22V55.6h11.13v1.584h-9.4v5.258h8.41v1.584h-8.41v5.39h9.51V71h-11.24Zm15.84 0V55.6h11.13v1.584h-9.4v5.258h8.41v1.584h-8.41v5.39h9.51V71h-11.24Zm15.83 0V55.6h5.35c2.4 0 4.37.733 5.9 2.2 1.52 1.452 2.28 3.285 2.28 5.5 0 2.2-.77 4.033-2.31 5.5-1.52 1.467-3.48 2.2-5.87 2.2h-5.35Zm1.74-1.606h3.61c1.92 0 3.46-.572 4.62-1.716 1.17-1.159 1.76-2.618 1.76-4.378 0-1.745-.59-3.197-1.76-4.356-1.17-1.159-2.71-1.738-4.62-1.738h-3.61v12.188ZM1126.47 71V55.6h6.62c1.89 0 3.35.513 4.38 1.54.79.792 1.19 1.819 1.19 3.08 0 1.232-.39 2.23-1.15 2.992-.76.763-1.77 1.261-3.03 1.496l4.73 6.292h-2.14l-4.46-5.984h-4.4V71h-1.74Zm1.74-7.546h4.73c1.17 0 2.12-.286 2.86-.858.73-.572 1.1-1.357 1.1-2.354 0-.953-.36-1.694-1.06-2.222-.69-.543-1.65-.814-2.88-.814h-4.75v6.248Zm28.06 5.478c-1.48 1.555-3.37 2.332-5.65 2.332-2.29 0-4.17-.777-5.64-2.332-1.46-1.555-2.2-3.432-2.2-5.632 0-2.185.75-4.055 2.23-5.61 1.48-1.57 3.36-2.354 5.65-2.354 2.29 0 4.17.777 5.63 2.332 1.47 1.555 2.2 3.432 2.2 5.632 0 2.185-.74 4.063-2.22 5.632Zm-9.97-1.122c1.16 1.232 2.62 1.848 4.36 1.848 1.75 0 3.18-.609 4.31-1.826 1.15-1.232 1.72-2.743 1.72-4.532 0-1.775-.58-3.278-1.74-4.51-1.14-1.232-2.59-1.848-4.33-1.848-1.75 0-3.19.616-4.34 1.848-1.13 1.217-1.69 2.72-1.69 4.51 0 1.775.57 3.278 1.71 4.51Zm23.12 3.432c-1.95 0-3.51-.58-4.67-1.738-1.15-1.173-1.73-2.823-1.73-4.95V55.6h1.73v8.844c0 1.657.41 2.94 1.24 3.85.83.895 1.99 1.342 3.47 1.342 1.45 0 2.59-.433 3.41-1.298.82-.865 1.23-2.127 1.23-3.784V55.6h1.74v8.822c0 2.2-.58 3.887-1.74 5.06-1.15 1.173-2.72 1.76-4.68 1.76Zm11.63-.242V55.6h1.63l9.7 12.342V55.6h1.7V71h-1.39l-9.94-12.628V71h-1.7Zm18.48 0V55.6h5.35c2.4 0 4.37.733 5.89 2.2 1.53 1.452 2.29 3.285 2.29 5.5 0 2.2-.77 4.033-2.31 5.5-1.52 1.467-3.48 2.2-5.87 2.2h-5.35Zm1.74-1.606h3.61c1.92 0 3.46-.572 4.62-1.716 1.17-1.159 1.76-2.618 1.76-4.378 0-1.745-.59-3.197-1.76-4.356-1.18-1.159-2.72-1.738-4.62-1.738h-3.61v12.188ZM296.356 71V57.206h-5.17V55.6h12.1v1.606h-5.17V71h-1.76Zm11.295 0V55.6h11.132v1.584h-9.394v5.258h8.404v1.584h-8.404v5.39h9.504V71h-11.242Zm14.519 0 7.018-15.51h1.628L337.834 71h-1.87l-1.804-4.07h-8.382L323.952 71h-1.782Zm4.29-5.632h7.018l-3.498-7.854-3.52 7.854ZM341.971 71V55.6h1.76l5.61 8.404 5.61-8.404h1.76V71h-1.738V58.526l-5.61 8.25h-.088l-5.61-8.228V71h-1.694ZM102.393 728v-15.4h5.346c2.406 0 4.371.733 5.896 2.2 1.526 1.452 2.288 3.285 2.288 5.5 0 2.2-.77 4.033-2.31 5.5-1.525 1.467-3.483 2.2-5.874 2.2h-5.346Zm1.738-1.606h3.608c1.922 0 3.462-.572 4.62-1.716 1.174-1.159 1.76-2.618 1.76-4.378 0-1.745-.586-3.197-1.76-4.356-1.173-1.159-2.713-1.738-4.62-1.738h-3.608v12.188ZM118.373 728l7.018-15.51h1.628l7.018 15.51h-1.87l-1.804-4.07h-8.382l-1.826 4.07h-1.782Zm4.29-5.632h7.018l-3.498-7.854-3.52 7.854Zm27.412 3.564c-1.481 1.555-3.366 2.332-5.654 2.332s-4.165-.777-5.632-2.332c-1.467-1.555-2.2-3.432-2.2-5.632 0-2.185.741-4.055 2.222-5.61 1.481-1.569 3.366-2.354 5.654-2.354s4.165.777 5.632 2.332c1.467 1.555 2.2 3.432 2.2 5.632 0 2.185-.741 4.063-2.222 5.632Zm-9.966-1.122c1.159 1.232 2.611 1.848 4.356 1.848 1.745 0 3.183-.609 4.312-1.826 1.144-1.232 1.716-2.743 1.716-4.532 0-1.775-.579-3.278-1.738-4.51-1.144-1.232-2.589-1.848-4.334-1.848-1.745 0-3.19.616-4.334 1.848-1.129 1.217-1.694 2.721-1.694 4.51 0 1.775.572 3.278 1.716 4.51ZM249.368 887v-13.794h-5.17V871.6h12.1v1.606h-5.17V887h-1.76Zm11.296 0v-15.4h6.622c1.892 0 3.351.513 4.378 1.54.792.792 1.188 1.819 1.188 3.08 0 1.232-.381 2.229-1.144 2.992-.763.763-1.775 1.261-3.036 1.496l4.73 6.292h-2.134l-4.466-5.984h-4.4V887h-1.738Zm1.738-7.546h4.73c1.173 0 2.127-.286 2.86-.858.733-.572 1.1-1.357 1.1-2.354 0-.953-.352-1.694-1.056-2.222-.689-.543-1.65-.814-2.882-.814h-4.752v6.248Zm15.26 7.546v-15.4h11.132v1.584H279.4v5.258h8.404v1.584H279.4v5.39h9.504V887h-11.242Zm14.519 0 7.018-15.51h1.628l7.018 15.51h-1.87l-1.804-4.07h-8.382l-1.826 4.07h-1.782Zm4.29-5.632h7.018l-3.498-7.854-3.52 7.854Zm20.49 5.852c-2.362 0-4.459-.821-6.292-2.464l1.078-1.276c.821.748 1.642 1.298 2.464 1.65.836.352 1.774.528 2.816.528 1.026 0 1.855-.242 2.486-.726.63-.499.946-1.144.946-1.936 0-.748-.279-1.342-.836-1.782-.558-.44-1.614-.821-3.168-1.144-1.834-.396-3.154-.931-3.96-1.606-.807-.675-1.21-1.635-1.21-2.882 0-1.217.476-2.222 1.43-3.014.953-.792 2.163-1.188 3.63-1.188 2.038 0 3.842.631 5.412 1.892l-1.012 1.342c-1.364-1.115-2.846-1.672-4.444-1.672-.983 0-1.775.242-2.376.726-.602.469-.902 1.071-.902 1.804 0 .763.286 1.364.858 1.804.586.44 1.694.836 3.322 1.188 1.745.381 3.014.917 3.806 1.606.806.675 1.21 1.606 1.21 2.794 0 1.305-.492 2.361-1.474 3.168-.983.792-2.244 1.188-3.784 1.188Zm16.052.022c-1.951 0-3.505-.579-4.664-1.738-1.159-1.173-1.738-2.823-1.738-4.95V871.6h1.738v8.844c0 1.657.411 2.941 1.232 3.85.836.895 1.995 1.342 3.476 1.342 1.452 0 2.589-.433 3.41-1.298.821-.865 1.232-2.127 1.232-3.784V871.6h1.738v8.822c0 2.2-.579 3.887-1.738 5.06-1.159 1.173-2.721 1.76-4.686 1.76Zm11.633-.242v-15.4h6.622c1.892 0 3.352.513 4.378 1.54.792.792 1.188 1.819 1.188 3.08 0 1.232-.381 2.229-1.144 2.992-.762.763-1.774 1.261-3.036 1.496l4.73 6.292h-2.134l-4.466-5.984h-4.4V887h-1.738Zm1.738-7.546h4.73c1.174 0 2.127-.286 2.86-.858.734-.572 1.1-1.357 1.1-2.354 0-.953-.352-1.694-1.056-2.222-.689-.543-1.65-.814-2.882-.814h-4.752v6.248ZM361.799 887v-15.4h1.738V887h-1.738Zm7.348 0v-15.4h11.132v1.584h-9.394v5.258h8.404v1.584h-8.404v5.39h9.504V887h-11.242Zm21.118.22c-2.361 0-4.458-.821-6.292-2.464l1.078-1.276c.822.748 1.643 1.298 2.464 1.65.836.352 1.775.528 2.816.528 1.027 0 1.856-.242 2.486-.726.631-.499.946-1.144.946-1.936 0-.748-.278-1.342-.836-1.782-.557-.44-1.613-.821-3.168-1.144-1.833-.396-3.153-.931-3.96-1.606-.806-.675-1.21-1.635-1.21-2.882 0-1.217.477-2.222 1.43-3.014.954-.792 2.164-1.188 3.63-1.188 2.039 0 3.843.631 5.412 1.892l-1.012 1.342c-1.364-1.115-2.845-1.672-4.444-1.672-.982 0-1.774.242-2.376.726-.601.469-.902 1.071-.902 1.804 0 .763.286 1.364.858 1.804.587.44 1.694.836 3.322 1.188 1.746.381 3.014.917 3.806 1.606.807.675 1.21 1.606 1.21 2.794 0 1.305-.491 2.361-1.474 3.168-.982.792-2.244 1.188-3.784 1.188ZM57.54 758v-15.4h11.132v1.584h-9.394v5.258h8.404v1.584h-8.404v5.39h9.504V758H57.54Zm22.878.264c-2.215 0-4.055-.763-5.522-2.288-1.467-1.54-2.2-3.432-2.2-5.676 0-2.215.74-4.092 2.222-5.632 1.481-1.555 3.337-2.332 5.566-2.332 1.29 0 2.39.213 3.3.638.91.411 1.797 1.027 2.662 1.848l-1.144 1.232c-1.481-1.408-3.095-2.112-4.84-2.112-1.701 0-3.124.609-4.268 1.826-1.13 1.217-1.694 2.728-1.694 4.532 0 1.789.572 3.3 1.716 4.532 1.144 1.217 2.56 1.826 4.246 1.826.997 0 1.877-.183 2.64-.55.763-.367 1.54-.924 2.332-1.672l1.144 1.21c-.865.865-1.775 1.518-2.728 1.958-.953.44-2.097.66-3.432.66Zm22.677-2.332c-1.482 1.555-3.367 2.332-5.654 2.332-2.288 0-4.166-.777-5.633-2.332-1.466-1.555-2.2-3.432-2.2-5.632 0-2.185.741-4.055 2.222-5.61 1.482-1.569 3.367-2.354 5.654-2.354 2.288 0 4.166.777 5.633 2.332 1.466 1.555 2.2 3.432 2.2 5.632 0 2.185-.741 4.063-2.222 5.632Zm-9.966-1.122c1.158 1.232 2.61 1.848 4.355 1.848 1.746 0 3.183-.609 4.313-1.826 1.144-1.232 1.716-2.743 1.716-4.532 0-1.775-.58-3.278-1.738-4.51-1.144-1.232-2.59-1.848-4.335-1.848s-3.19.616-4.334 1.848c-1.129 1.217-1.694 2.721-1.694 4.51 0 1.775.572 3.278 1.716 4.51Zm22.233 3.41c-2.361 0-4.459-.821-6.292-2.464l1.078-1.276c.821.748 1.643 1.298 2.464 1.65.836.352 1.775.528 2.816.528 1.027 0 1.855-.242 2.486-.726.631-.499.946-1.144.946-1.936 0-.748-.279-1.342-.836-1.782-.557-.44-1.613-.821-3.168-1.144-1.833-.396-3.153-.931-3.96-1.606-.807-.675-1.21-1.635-1.21-2.882 0-1.217.477-2.222 1.43-3.014.953-.792 2.163-1.188 3.63-1.188 2.039 0 3.843.631 5.412 1.892l-1.012 1.342c-1.364-1.115-2.845-1.672-4.444-1.672-.983 0-1.775.242-2.376.726-.601.469-.902 1.071-.902 1.804 0 .763.286 1.364.858 1.804.587.44 1.694.836 3.322 1.188 1.745.381 3.014.917 3.806 1.606.807.675 1.21 1.606 1.21 2.794 0 1.305-.491 2.361-1.474 3.168-.983.792-2.244 1.188-3.784 1.188Zm14.044-.22v-6.094l-6.402-9.306h2.112l5.192 7.7 5.236-7.7h2.024l-6.402 9.284V758h-1.76Zm16.537.22c-2.362 0-4.459-.821-6.292-2.464l1.078-1.276c.821.748 1.642 1.298 2.464 1.65.836.352 1.774.528 2.816.528 1.026 0 1.855-.242 2.486-.726.63-.499.946-1.144.946-1.936 0-.748-.279-1.342-.836-1.782-.558-.44-1.614-.821-3.168-1.144-1.834-.396-3.154-.931-3.96-1.606-.807-.675-1.21-1.635-1.21-2.882 0-1.217.476-2.222 1.43-3.014.953-.792 2.163-1.188 3.63-1.188 2.038 0 3.842.631 5.412 1.892l-1.012 1.342c-1.364-1.115-2.846-1.672-4.444-1.672-.983 0-1.775.242-2.376.726-.602.469-.902 1.071-.902 1.804 0 .763.286 1.364.858 1.804.586.44 1.694.836 3.322 1.188 1.745.381 3.014.917 3.806 1.606.806.675 1.21 1.606 1.21 2.794 0 1.305-.492 2.361-1.474 3.168-.983.792-2.244 1.188-3.784 1.188Zm13.64-.22v-13.794h-5.17V742.6h12.1v1.606h-5.17V758h-1.76Zm11.295 0v-15.4h11.132v1.584h-9.394v5.258h8.404v1.584h-8.404v5.39h9.504V758h-11.242Zm15.839 0v-15.4h1.76l5.61 8.404 5.61-8.404h1.76V758h-1.738v-12.474l-5.61 8.25h-.088l-5.61-8.228V758h-1.694Z" fill="#fff"/><path stroke="#28F2FF" d="m952.804 359.54 288.996-123"/><path d="M639.977 217.409c138.082-44.171 285.827 31.959 329.998 170.041 44.175 138.082-31.959 285.827-170.041 329.998-138.082 44.17-285.827-31.96-329.998-170.042-44.171-138.082 31.959-285.827 170.041-329.997Zm156.014 487.715c131.276-41.994 203.654-182.456 161.66-313.732-41.993-131.276-182.456-203.653-313.732-161.66-131.275 41.994-203.653 182.456-161.659 313.732 41.993 131.276 182.456 203.653 313.731 161.66Z" fill="#5AAB28"/><path d="M475.075 372.877a262.5 262.5 0 1 0 405.174-113.324l-7.901 10.246a249.558 249.558 0 0 1 31.044 366.838 249.564 249.564 0 0 1-428.761-123.42 249.557 249.557 0 0 1 12.514-135.679l-12.07-4.661Z" fill="#E7FF53"/><path d="M969.727 386.686a262.514 262.514 0 0 0-37.604-73.823l-10.458 7.619a249.544 249.544 0 0 1 35.75 70.183l12.312-3.979Z" fill="#54FFF5" fill-opacity=".71"/><path d="M982.262 457.418a262.508 262.508 0 0 0-13.038-72.273l-12.287 4.056a249.57 249.57 0 0 1 12.396 68.71l12.929-.493Z" fill="#FF5656"/><path d="M959.928 573.816a262.503 262.503 0 0 0 22.521-104.926l-12.939-.072a249.56 249.56 0 0 1-21.411 99.754l11.829 5.244Z" fill="#E69801"/><path d="M982.449 469.213c.028-4.139-.042-8.279-.21-12.416l-12.915.524a249.8 249.8 0 0 1 .199 11.804l12.926.088Z" fill="#3042FF"/><path d="M491.719 337.757a262.494 262.494 0 0 0-19.898 215.319 262.503 262.503 0 0 0 148.481 157.2l4.912-11.97a249.565 249.565 0 0 1-141.162-149.451 249.557 249.557 0 0 1 18.917-204.706l-11.25-6.392Z" fill="#E128FF"/><path d="M491.719 337.757a262.494 262.494 0 0 0-19.898 215.319 262.503 262.503 0 0 0 148.481 157.2l4.912-11.97a249.565 249.565 0 0 1-141.162-149.451 249.557 249.557 0 0 1 18.917-204.706l-11.25-6.392Z" fill="#E128FF"/><path d="M509.229 310.898a262.612 262.612 0 0 0-17.934 27.605l11.271 6.355a249.534 249.534 0 0 1 17.05-26.245l-10.387-7.715Z" fill="#E128FF"/><path d="M509.229 310.898a262.612 262.612 0 0 0-17.934 27.605l11.271 6.355a249.534 249.534 0 0 1 17.05-26.245l-10.387-7.715Z" fill="#3175F8"/><path d="M509.229 310.898a262.612 262.612 0 0 0-17.934 27.605l11.271 6.355a249.534 249.534 0 0 1 17.05-26.245l-10.387-7.715Z" fill="#FFD028"/><path d="M899.939 276.347a262.494 262.494 0 0 0-287.642-48.328 262.5 262.5 0 0 0-83.423 59.423l9.419 8.871a249.559 249.559 0 0 1 352.775-10.547l8.871-9.419Z" fill="#E128FF"/><path d="M899.939 276.347a262.494 262.494 0 0 0-287.642-48.328 262.5 262.5 0 0 0-83.423 59.423l9.419 8.871a249.559 249.559 0 0 1 352.775-10.547l8.871-9.419Z" fill="#3175F8"/><path d="M899.939 276.347a262.494 262.494 0 0 0-287.642-48.328 262.5 262.5 0 0 0-83.423 59.423l9.419 8.871a249.559 249.559 0 0 1 352.775-10.547l8.871-9.419Z" fill="#FF28C3"/><path d="M618.075 709.35a262.498 262.498 0 0 0 343.803-140.042l-12.111-5.1a249.37 249.37 0 0 1-135.745 134.155 249.349 249.349 0 0 1-95.535 18.418 249.347 249.347 0 0 1-95.312-19.542l-5.1 12.111Z" fill="#E128FF"/><path d="M618.075 709.35a262.498 262.498 0 0 0 343.803-140.042l-12.111-5.1a249.37 249.37 0 0 1-135.745 134.155 249.349 249.349 0 0 1-95.535 18.418 249.347 249.347 0 0 1-95.312-19.542l-5.1 12.111Z" fill="#60FF28"/><path stroke="#5AAB28" d="M171 236.5h51"/><path stroke="#FF28C3" d="M389 16.5h51"/><path stroke="#5AAB28" d="m221.105 236.511 304 65"/><path stroke="#FF28C3" d="m439.364 16.657 197 209"/><path stroke="#28F2FF" d="M1291 236.5h-50"/><path stroke="#E7FF53" d="M1063 19.5h-50M911.53 296.829l101-278"/><path stroke="#3042FF" d="M1257 676.5h-50M978.343 460.636l229.147 216.043"/><path d="M1150.42 845.432c-3.02 0-5.41-.996-7.16-2.988s-2.63-5.124-2.63-9.396c0-3.936.94-7.2 2.81-9.792 1.89-2.592 4.45-3.888 7.67-3.888 2.61 0 5.1.96 7.45 2.88l-1.66 2.196c-1.97-1.656-3.95-2.484-5.94-2.484-2.23 0-4.02 1.02-5.36 3.06-1.35 2.04-2.02 4.692-2.02 7.956v.108c1.75-2.568 4.14-3.852 7.17-3.852 2.42 0 4.47.72 6.15 2.16 1.71 1.44 2.56 3.324 2.56 5.652 0 2.424-.87 4.428-2.59 6.012-1.73 1.584-3.88 2.376-6.45 2.376Zm.04-2.52c1.82 0 3.29-.552 4.39-1.656 1.13-1.104 1.69-2.496 1.69-4.176 0-1.56-.57-2.844-1.73-3.852-1.15-1.032-2.62-1.548-4.42-1.548-1.83 0-3.34.564-4.54 1.692-1.18 1.104-1.76 2.4-1.76 3.888 0 1.608.6 2.952 1.8 4.032 1.2 1.08 2.72 1.62 4.57 1.62Zm24.75-12.42c-1.08 1.272-2.45 1.908-4.11 1.908-1.65 0-3.02-.624-4.1-1.872-1.06-1.272-1.59-2.796-1.59-4.572 0-1.752.54-3.264 1.62-4.536 1.08-1.272 2.46-1.908 4.14-1.908 1.66 0 3.02.636 4.07 1.908 1.06 1.248 1.59 2.76 1.59 4.536 0 1.752-.54 3.264-1.62 4.536Zm-7.2 14.508 18.5-25.2h2.56L1170.6 845h-2.59Zm17.92.288c-1.65 0-3.01-.624-4.06-1.872-1.06-1.272-1.59-2.796-1.59-4.572 0-1.752.54-3.264 1.62-4.536 1.08-1.272 2.45-1.908 4.11-1.908 1.65 0 3.01.636 4.06 1.908 1.06 1.248 1.59 2.76 1.59 4.536 0 1.776-.54 3.3-1.62 4.572-1.06 1.248-2.43 1.872-4.11 1.872Zm-14.76-14.904c.96 0 1.74-.42 2.34-1.26.63-.864.94-1.92.94-3.168 0-1.248-.32-2.292-.97-3.132-.65-.864-1.44-1.296-2.38-1.296-.96 0-1.75.432-2.37 1.296-.6.84-.9 1.884-.9 3.132 0 1.248.32 2.304.97 3.168.65.84 1.44 1.26 2.37 1.26Zm14.84 12.888c.98 0 1.77-.42 2.37-1.26.6-.84.9-1.896.9-3.168 0-1.248-.32-2.292-.97-3.132-.65-.864-1.44-1.296-2.38-1.296-.96 0-1.75.432-2.37 1.296-.6.84-.9 1.884-.9 3.132 0 1.248.32 2.304.97 3.168.65.84 1.44 1.26 2.38 1.26Z" fill="#E69801"/><path d="M1077.29 887v-15.4h5.77c1.76 0 3.16.44 4.2 1.32 1.04.88 1.56 2.083 1.56 3.608 0 1.599-.58 2.838-1.74 3.718-1.14.88-2.58 1.32-4.31 1.32h-3.74V887h-1.74Zm1.74-7.018h3.81c1.27 0 2.29-.308 3.06-.924.77-.631 1.16-1.467 1.16-2.508 0-1.071-.37-1.892-1.12-2.464-.73-.587-1.74-.88-3.01-.88h-3.9v6.776Zm11.19 7.018 7.02-15.51h1.63l7.02 15.51h-1.87l-1.81-4.07h-8.38L1092 887h-1.78Zm4.29-5.632h7.02l-3.5-7.854-3.52 7.854Zm15.51 5.632v-15.4h6.63c1.89 0 3.35.513 4.37 1.54.8.792 1.19 1.819 1.19 3.08 0 1.232-.38 2.229-1.14 2.992-.77.763-1.78 1.261-3.04 1.496l4.73 6.292h-2.13l-4.47-5.984h-4.4V887h-1.74Zm1.74-7.546h4.73c1.17 0 2.13-.286 2.86-.858.73-.572 1.1-1.357 1.1-2.354 0-.953-.35-1.694-1.05-2.222-.69-.543-1.65-.814-2.89-.814h-4.75v6.248Zm19.33 7.546v-13.794h-5.17V871.6h12.1v1.606h-5.17V887h-1.76Zm11.3 0v-15.4h1.63l9.7 12.342V871.6h1.69V887h-1.38l-9.95-12.628V887h-1.69Zm18.48 0v-15.4H1172v1.584h-9.39v5.258h8.4v1.584h-8.4v5.39h9.5V887h-11.24Zm15.84 0v-15.4h6.62c1.89 0 3.35.513 4.38 1.54.79.792 1.18 1.819 1.18 3.08 0 1.232-.38 2.229-1.14 2.992-.76.763-1.77 1.261-3.04 1.496l4.73 6.292h-2.13l-4.47-5.984h-4.4V887h-1.73Zm1.73-7.546h4.73c1.18 0 2.13-.286 2.86-.858.74-.572 1.1-1.357 1.1-2.354 0-.953-.35-1.694-1.05-2.222-.69-.543-1.65-.814-2.88-.814h-4.76v6.248Zm20.54 7.766c-2.36 0-4.45-.821-6.29-2.464l1.08-1.276c.82.748 1.64 1.298 2.46 1.65.84.352 1.78.528 2.82.528 1.03 0 1.86-.242 2.49-.726.63-.499.94-1.144.94-1.936 0-.748-.28-1.342-.83-1.782-.56-.44-1.62-.821-3.17-1.144-1.83-.396-3.15-.931-3.96-1.606s-1.21-1.635-1.21-2.882c0-1.217.48-2.222 1.43-3.014.95-.792 2.16-1.188 3.63-1.188 2.04 0 3.84.631 5.41 1.892l-1.01 1.342c-1.37-1.115-2.85-1.672-4.45-1.672-.98 0-1.77.242-2.37.726-.6.469-.9 1.071-.9 1.804 0 .763.28 1.364.85 1.804.59.44 1.7.836 3.33 1.188 1.74.381 3.01.917 3.8 1.606.81.675 1.21 1.606 1.21 2.794 0 1.305-.49 2.361-1.47 3.168-.98.792-2.25 1.188-3.79 1.188Zm9.9-.22v-15.4h1.74v6.842h8.88V871.6h1.74V887h-1.74v-6.93h-8.88V887h-1.74Zm17.97 0v-15.4h1.73V887h-1.73Zm7.34 0v-15.4h5.77c1.76 0 3.16.44 4.2 1.32 1.04.88 1.56 2.083 1.56 3.608 0 1.599-.58 2.838-1.74 3.718-1.14.88-2.58 1.32-4.31 1.32h-3.74V887h-1.74Zm1.74-7.018h3.81c1.27 0 2.29-.308 3.06-.924.77-.631 1.16-1.467 1.16-2.508 0-1.071-.37-1.892-1.12-2.464-.73-.587-1.74-.88-3.01-.88h-3.9v6.776Zm19.34 7.238c-2.36 0-4.46-.821-6.29-2.464l1.08-1.276c.82.748 1.64 1.298 2.46 1.65.84.352 1.77.528 2.82.528 1.02 0 1.85-.242 2.48-.726.63-.499.95-1.144.95-1.936 0-.748-.28-1.342-.84-1.782-.56-.44-1.61-.821-3.17-1.144-1.83-.396-3.15-.931-3.96-1.606-.8-.675-1.21-1.635-1.21-2.882 0-1.217.48-2.222 1.43-3.014.96-.792 2.17-1.188 3.63-1.188 2.04 0 3.85.631 5.42 1.892l-1.02 1.342c-1.36-1.115-2.84-1.672-4.44-1.672-.98 0-1.77.242-2.38.726-.6.469-.9 1.071-.9 1.804 0 .763.29 1.364.86 1.804.59.44 1.69.836 3.32 1.188 1.75.381 3.02.917 3.81 1.606.8.675 1.21 1.606 1.21 2.794 0 1.305-.49 2.361-1.48 3.168-.98.792-2.24 1.188-3.78 1.188Z" fill="#fff"/><path stroke="#E59801" d="M1113 835.5h-50M967.476 537.846l96.004 297"/><path stroke="#FFD028" d="M116 476.5h49M504.203 325.457l-340 151"/><path stroke="#E128FF" d="M237 671.5h-48"/><path stroke="#60FF28" d="M454 840.5h-46"/><path stroke="#E128FF" d="m463.322 480.383-227 191"/><path stroke="#60FF28" d="m453.75 840.567 213-123"/><path stroke="#FF5656" d="m972.093 419.509 289.997 55M1262 474.5h49"/><defs><radialGradient id="b" cx="0" cy="0" r="1" gradientUnits="userSpaceOnUse" gradientTransform="rotate(-160.273 528.069 296.443) scale(523.542 469.041)"><stop stop-color="#42DCFF"/><stop offset=".6" stop-color="#78C7D9" stop-opacity="0"/></radialGradient><radialGradient id="c" cx="0" cy="0" r="1" gradientUnits="userSpaceOnUse" gradientTransform="rotate(116.629 411.691 438.832) scale(602.397 696.182)"><stop stop-color="#C51BFF"/><stop offset="1" stop-color="#033959" stop-opacity="0"/></radialGradient><radialGradient id="d" cx="0" cy="0" r="1" gradientUnits="userSpaceOnUse" gradientTransform="rotate(57.742 -77.51 521.066) scale(588.305 805.643)"><stop stop-color="#00B7FF"/><stop offset=".744" stop-color="#033959" stop-opacity="0"/></radialGradient><filter id="a" x="380" y="129" width="677" height="677" filterUnits="userSpaceOnUse" color-interpolation-filters="sRGB"><feFlood flood-opacity="0" result="BackgroundImageFix"/><feBlend in="SourceGraphic" in2="BackgroundImageFix" result="shape"/><feColorMatrix in="SourceAlpha" values="0 0 0 0 0 0 0 0 0 0 0 0 0 0 0 0 0 0 127 0" result="hardAlpha"/><feOffset/><feGaussianBlur stdDeviation="5"/><feComposite in2="hardAlpha" operator="arithmetic" k2="-1" k3="1"/><feColorMatrix values="0 0 0 0 1 0 0 0 0 1 0 0 0 0 1 0 0 0 0.25 0"/><feBlend in2="shape" result="effect1_innerShadow_1469_80"/></filter></defs></svg>